M48
; DRILL file {KiCad 7.0.1} date Wed May 31 09:22:38 2023
; FORMAT={-:-/ absolute / inch / decimal}
; #@! TF.CreationDate,2023-05-31T09:22:38+05:30
; #@! TF.GenerationSoftware,Kicad,Pcbnew,7.0.1
; #@! TF.FileFunction,NonPlated,1,2,NPTH
FMAT,2
INCH
; #@! TA.AperFunction,NonPlated,NPTH,ComponentDrill
T1C0.0689
; #@! TA.AperFunction,NonPlated,NPTH,ComponentDrill
T2C0.1181
; #@! TA.AperFunction,NonPlated,NPTH,ComponentDrill
T3C0.1200
; #@! TA.AperFunction,NonPlated,NPTH,ComponentDrill
T4C0.1570
%
G90
G05
T1
X0.1543Y-0.3543
X0.2481Y-3.3543
X0.3418Y-1.1043
X0.4356Y-1.8543
X0.5543Y-0.3543
X0.6231Y-2.6043
X0.6481Y-3.3543
X0.7418Y-1.1043
X0.8356Y-1.8543
X0.9043Y-0.3543
X1.0231Y-2.6043
X1.1856Y-3.3543
X1.2793Y-1.1043
X1.3043Y-0.3543
X1.4668Y-1.8543
X1.5856Y-3.3543
X1.6543Y-0.3543
X1.6793Y-1.1043
X1.8418Y-2.6043
X1.8668Y-1.8543
X2.0293Y-1.1043
X2.0543Y-0.3543
X2.1231Y-3.3543
X2.2168Y-1.8543
X2.2418Y-2.6043
X2.4043Y-0.3543
X2.4293Y-1.1043
X2.5231Y-3.3543
X2.5918Y-2.6043
X2.6168Y-1.8543
X2.7793Y-1.1043
X2.8043Y-0.3543
X2.9668Y-1.8543
X2.9918Y-2.6043
X3.1543Y-0.3543
X3.1793Y-1.1043
X3.3418Y-2.6043
X3.3668Y-1.8543
X3.5293Y-1.1043
X3.5543Y-0.3543
X3.7168Y-1.8543
X3.7418Y-2.6043
X3.9043Y-0.3543
X3.9293Y-1.1043
X4.0918Y-2.6043
X4.1168Y-1.8543
X4.2793Y-1.1043
X4.3043Y-0.3543
X4.4668Y-1.8543
X4.4918Y-2.6043
X4.6543Y-0.3543
X4.6793Y-1.1043
X4.8418Y-2.6043
X4.8668Y-1.8543
X4.9356Y-3.3543
X5.0293Y-1.1043
X5.0543Y-0.3543
X5.2168Y-1.8543
X5.2418Y-2.6043
X5.3356Y-3.3543
X5.4043Y-0.3543
X5.4293Y-1.1043
X5.5918Y-2.6043
X5.6168Y-1.8543
X5.7793Y-1.1043
X5.8043Y-0.3543
X5.9668Y-1.8543
X5.9918Y-2.6043
X6.1543Y-0.3543
X6.1793Y-1.1043
X6.3418Y-2.6043
X6.3668Y-1.8543
X6.5293Y-1.1043
X6.5543Y-0.3543
X6.7168Y-1.8543
X6.7418Y-2.6043
X6.9043Y-0.3543
X6.9293Y-1.1043
X7.0918Y-2.6043
X7.1168Y-1.8543
X7.2793Y-1.1043
X7.3043Y-0.3543
X7.4668Y-1.8543
X7.4918Y-2.6043
X7.6543Y-0.3543
X7.6793Y-1.1043
X7.7481Y-3.3543
X7.8418Y-2.6043
X7.8668Y-1.8543
X8.0293Y-1.1043
X8.0543Y-0.3543
X8.1481Y-3.3543
X8.2168Y-1.8543
X8.2418Y-2.6043
X8.4043Y-0.3543
X8.4293Y-1.1043
X8.5918Y-2.6043
X8.6168Y-1.8543
X8.6856Y-3.3543
X8.7793Y-1.1043
X8.8043Y-0.3543
X8.9668Y-1.8543
X8.9918Y-2.6043
X9.0856Y-3.3543
X9.1543Y-0.3543
X9.1793Y-1.1043
X9.3668Y-1.8543
X9.5293Y-1.1043
X9.5543Y-0.3543
X9.6231Y-2.6043
X9.6231Y-3.3543
X9.9293Y-1.1043
X10.0231Y-2.6043
X10.0231Y-3.3543
X10.1856Y-1.8543
X10.2793Y-0.3543
X10.4668Y-1.1043
X10.5625Y-3.3543
X10.5856Y-1.8543
X10.6543Y-2.6043
X10.6793Y-0.3543
X10.8668Y-1.1043
X10.9625Y-3.3543
X11.0543Y-2.6043
T2
X0.2043Y-0.2543
X0.2981Y-3.2543
X0.3918Y-1.0043
X0.4543Y-0.1543
X0.4856Y-1.7543
X0.5481Y-3.1543
X0.6418Y-0.9043
X0.6731Y-2.5043
X0.7356Y-1.6543
X0.9231Y-2.4043
X0.9543Y-0.2543
X1.2043Y-0.1543
X1.2356Y-3.2543
X1.3293Y-1.0043
X1.4856Y-3.1543
X1.5168Y-1.7543
X1.5793Y-0.9043
X1.7043Y-0.2543
X1.7668Y-1.6543
X1.8918Y-2.5043
X1.9543Y-0.1543
X2.0793Y-1.0043
X2.1418Y-2.4043
X2.1731Y-3.2543
X2.2668Y-1.7543
X2.3293Y-0.9043
X2.4231Y-3.1543
X2.4543Y-0.2543
X2.5168Y-1.6543
X2.6418Y-2.5043
X2.7043Y-0.1543
X2.8293Y-1.0043
X2.8918Y-2.4043
X3.0168Y-1.7543
X3.0793Y-0.9043
X3.2043Y-0.2543
X3.2668Y-1.6543
X3.3918Y-2.5043
X3.4543Y-0.1543
X3.5793Y-1.0043
X3.6418Y-2.4043
X3.7668Y-1.7543
X3.8293Y-0.9043
X3.9543Y-0.2543
X4.0168Y-1.6543
X4.1418Y-2.5043
X4.2043Y-0.1543
X4.3293Y-1.0043
X4.3918Y-2.4043
X4.5168Y-1.7543
X4.5793Y-0.9043
X4.7043Y-0.2543
X4.7668Y-1.6543
X4.8918Y-2.5043
X4.9543Y-0.1543
X4.9856Y-3.2543
X5.0793Y-1.0043
X5.1418Y-2.4043
X5.2356Y-3.1543
X5.2668Y-1.7543
X5.3293Y-0.9043
X5.4543Y-0.2543
X5.5168Y-1.6543
X5.6418Y-2.5043
X5.7043Y-0.1543
X5.8293Y-1.0043
X5.8918Y-2.4043
X6.0168Y-1.7543
X6.0793Y-0.9043
X6.2043Y-0.2543
X6.2668Y-1.6543
X6.3918Y-2.5043
X6.4543Y-0.1543
X6.5793Y-1.0043
X6.6418Y-2.4043
X6.7668Y-1.7543
X6.8293Y-0.9043
X6.9543Y-0.2543
X7.0168Y-1.6543
X7.1418Y-2.5043
X7.2043Y-0.1543
X7.3293Y-1.0043
X7.3918Y-2.4043
X7.5168Y-1.7543
X7.5793Y-0.9043
X7.7043Y-0.2543
X7.7668Y-1.6543
X7.7981Y-3.2543
X7.8918Y-2.5043
X7.9543Y-0.1543
X8.0481Y-3.1543
X8.0793Y-1.0043
X8.1418Y-2.4043
X8.2668Y-1.7543
X8.3293Y-0.9043
X8.4543Y-0.2543
X8.5168Y-1.6543
X8.6418Y-2.5043
X8.7043Y-0.1543
X8.7356Y-3.2543
X8.8293Y-1.0043
X8.8918Y-2.4043
X8.9856Y-3.1543
X9.0168Y-1.7543
X9.0793Y-0.9043
X9.2043Y-0.2543
X9.2668Y-1.6543
X9.4543Y-0.1543
X9.5793Y-1.0043
X9.6731Y-2.5043
X9.6731Y-3.2543
X9.8293Y-0.9043
X9.9231Y-2.4043
X9.9231Y-3.1543
X10.2356Y-1.7543
X10.3293Y-0.2543
X10.4856Y-1.6543
X10.5168Y-1.0043
X10.5793Y-0.1543
X10.6125Y-3.2543
X10.7043Y-2.5043
X10.7668Y-0.9043
X10.8625Y-3.1543
X10.9543Y-2.4043
T3
X0.3531Y-2.3293
X1.2931Y-2.3293
X3.1671Y-3.6293
X7.1041Y-3.6293
X9.9156Y-1.5793
X10.0093Y-0.0793
X10.8556Y-1.5793
X10.9493Y-0.0793
T4
X0.3531Y-2.9293
X0.3543Y-0.3543
X0.4481Y-3.3543
X0.5418Y-1.1043
X0.6356Y-1.8543
X0.8231Y-2.6043
X1.1043Y-0.3543
X1.2931Y-2.9293
X1.3856Y-3.3543
X1.4793Y-1.1043
X1.6668Y-1.8543
X1.8543Y-0.3543
X2.0418Y-2.6043
X2.2293Y-1.1043
X2.3231Y-3.3543
X2.4168Y-1.8543
X2.6043Y-0.3543
X2.7918Y-2.6043
X2.9793Y-1.1043
X3.1668Y-1.8543
X3.1671Y-3.0293
X3.3543Y-0.3543
X3.5418Y-2.6043
X3.7293Y-1.1043
X3.9168Y-1.8543
X4.1043Y-0.3543
X4.2918Y-2.6043
X4.4793Y-1.1043
X4.6668Y-1.8543
X4.8543Y-0.3543
X5.0418Y-2.6043
X5.1356Y-3.3543
X5.2293Y-1.1043
X5.4168Y-1.8543
X5.6043Y-0.3543
X5.7918Y-2.6043
X5.9793Y-1.1043
X6.1668Y-1.8543
X6.3543Y-0.3543
X6.5418Y-2.6043
X6.7293Y-1.1043
X6.9168Y-1.8543
X7.1041Y-3.0293
X7.1043Y-0.3543
X7.2918Y-2.6043
X7.4793Y-1.1043
X7.6668Y-1.8543
X7.8543Y-0.3543
X7.9481Y-3.3543
X8.0418Y-2.6043
X8.2293Y-1.1043
X8.4168Y-1.8543
X8.6043Y-0.3543
X8.7918Y-2.6043
X8.8856Y-3.3543
X8.9793Y-1.1043
X9.1668Y-1.8543
X9.3543Y-0.3543
X9.7293Y-1.1043
X9.8231Y-2.6043
X9.8231Y-3.3543
X9.9156Y-2.1793
X10.0093Y-0.6793
X10.3856Y-1.8543
X10.4793Y-0.3543
X10.6668Y-1.1043
X10.7625Y-3.3543
X10.8543Y-2.6043
X10.8556Y-2.1793
X10.9493Y-0.6793
T0
M30
