G04 #@! TF.GenerationSoftware,KiCad,Pcbnew,7.0.1*
G04 #@! TF.CreationDate,2023-05-31T09:22:42+05:30*
G04 #@! TF.ProjectId,glowie60,676c6f77-6965-4363-902e-6b696361645f,rev?*
G04 #@! TF.SameCoordinates,Original*
G04 #@! TF.FileFunction,Soldermask,Bot*
G04 #@! TF.FilePolarity,Negative*
%FSLAX46Y46*%
G04 Gerber Fmt 4.6, Leading zero omitted, Abs format (unit mm)*
G04 Created by KiCad (PCBNEW 7.0.1) date 2023-05-31 09:22:42*
%MOMM*%
%LPD*%
G01*
G04 APERTURE LIST*
G04 Aperture macros list*
%AMRoundRect*
0 Rectangle with rounded corners*
0 $1 Rounding radius*
0 $2 $3 $4 $5 $6 $7 $8 $9 X,Y pos of 4 corners*
0 Add a 4 corners polygon primitive as box body*
4,1,4,$2,$3,$4,$5,$6,$7,$8,$9,$2,$3,0*
0 Add four circle primitives for the rounded corners*
1,1,$1+$1,$2,$3*
1,1,$1+$1,$4,$5*
1,1,$1+$1,$6,$7*
1,1,$1+$1,$8,$9*
0 Add four rect primitives between the rounded corners*
20,1,$1+$1,$2,$3,$4,$5,0*
20,1,$1+$1,$4,$5,$6,$7,0*
20,1,$1+$1,$6,$7,$8,$9,0*
20,1,$1+$1,$8,$9,$2,$3,0*%
G04 Aperture macros list end*
%ADD10C,1.850000*%
%ADD11C,3.100000*%
%ADD12C,4.087800*%
%ADD13RoundRect,0.050000X-1.275000X-1.250000X1.275000X-1.250000X1.275000X1.250000X-1.275000X1.250000X0*%
%ADD14C,3.148000*%
%ADD15O,1.800000X1.800000*%
%ADD16RoundRect,0.050000X0.850000X-0.850000X0.850000X0.850000X-0.850000X0.850000X-0.850000X-0.850000X0*%
%ADD17RoundRect,0.200000X-0.625000X0.150000X-0.625000X-0.150000X0.625000X-0.150000X0.625000X0.150000X0*%
%ADD18RoundRect,0.299999X-0.650001X0.350001X-0.650001X-0.350001X0.650001X-0.350001X0.650001X0.350001X0*%
%ADD19RoundRect,0.293750X-0.243750X-0.456250X0.243750X-0.456250X0.243750X0.456250X-0.243750X0.456250X0*%
%ADD20RoundRect,0.050000X-0.850000X-0.500000X0.850000X-0.500000X0.850000X0.500000X-0.850000X0.500000X0*%
%ADD21RoundRect,0.293750X0.243750X0.456250X-0.243750X0.456250X-0.243750X-0.456250X0.243750X-0.456250X0*%
%ADD22RoundRect,0.050000X0.700000X0.600000X-0.700000X0.600000X-0.700000X-0.600000X0.700000X-0.600000X0*%
%ADD23RoundRect,0.293750X-0.456250X0.243750X-0.456250X-0.243750X0.456250X-0.243750X0.456250X0.243750X0*%
%ADD24RoundRect,0.050000X0.600000X-0.450000X0.600000X0.450000X-0.600000X0.450000X-0.600000X-0.450000X0*%
%ADD25RoundRect,0.050000X0.325000X-0.530000X0.325000X0.530000X-0.325000X0.530000X-0.325000X-0.530000X0*%
%ADD26RoundRect,0.112500X-0.062500X0.475000X-0.062500X-0.475000X0.062500X-0.475000X0.062500X0.475000X0*%
%ADD27RoundRect,0.112500X-0.475000X0.062500X-0.475000X-0.062500X0.475000X-0.062500X0.475000X0.062500X0*%
%ADD28RoundRect,0.050000X-2.600000X2.600000X-2.600000X-2.600000X2.600000X-2.600000X2.600000X2.600000X0*%
%ADD29RoundRect,0.300000X-0.375000X-0.625000X0.375000X-0.625000X0.375000X0.625000X-0.375000X0.625000X0*%
%ADD30RoundRect,0.050000X0.750000X0.450000X-0.750000X0.450000X-0.750000X-0.450000X0.750000X-0.450000X0*%
%ADD31RoundRect,0.050000X-0.750000X-0.450000X0.750000X-0.450000X0.750000X0.450000X-0.750000X0.450000X0*%
G04 APERTURE END LIST*
D10*
X3920000Y-9000000D03*
D11*
X5190000Y-6460000D03*
D12*
X9000000Y-9000000D03*
D11*
X11540000Y-3920000D03*
D10*
X14080000Y-9000000D03*
D13*
X1915000Y-6460000D03*
X14842000Y-3920000D03*
D10*
X22970000Y-9000000D03*
D11*
X24240000Y-6460000D03*
D12*
X28050000Y-9000000D03*
D11*
X30590000Y-3920000D03*
D10*
X33130000Y-9000000D03*
D13*
X20965000Y-6460000D03*
X33892000Y-3920000D03*
D10*
X42020000Y-9000000D03*
D11*
X43290000Y-6460000D03*
D12*
X47100000Y-9000000D03*
D11*
X49640000Y-3920000D03*
D10*
X52180000Y-9000000D03*
D13*
X40015000Y-6460000D03*
X52942000Y-3920000D03*
D10*
X61070000Y-9000000D03*
D11*
X62340000Y-6460000D03*
D12*
X66150000Y-9000000D03*
D11*
X68690000Y-3920000D03*
D10*
X71230000Y-9000000D03*
D13*
X59065000Y-6460000D03*
X71992000Y-3920000D03*
D10*
X80120000Y-9000000D03*
D11*
X81390000Y-6460000D03*
D12*
X85200000Y-9000000D03*
D11*
X87740000Y-3920000D03*
D10*
X90280000Y-9000000D03*
D13*
X78115000Y-6460000D03*
X91042000Y-3920000D03*
D10*
X99170000Y-9000000D03*
D11*
X100440000Y-6460000D03*
D12*
X104250000Y-9000000D03*
D11*
X106790000Y-3920000D03*
D10*
X109330000Y-9000000D03*
D13*
X97165000Y-6460000D03*
X110092000Y-3920000D03*
D10*
X118220000Y-9000000D03*
D11*
X119490000Y-6460000D03*
D12*
X123300000Y-9000000D03*
D11*
X125840000Y-3920000D03*
D10*
X128380000Y-9000000D03*
D13*
X116215000Y-6460000D03*
X129142000Y-3920000D03*
D10*
X156320000Y-9000000D03*
D11*
X157590000Y-6460000D03*
D12*
X161400000Y-9000000D03*
D11*
X163940000Y-3920000D03*
D10*
X166480000Y-9000000D03*
D13*
X154315000Y-6460000D03*
X167242000Y-3920000D03*
D10*
X175370000Y-9000000D03*
D11*
X176640000Y-6460000D03*
D12*
X180450000Y-9000000D03*
D11*
X182990000Y-3920000D03*
D10*
X185530000Y-9000000D03*
D13*
X173365000Y-6460000D03*
X186292000Y-3920000D03*
D10*
X194420000Y-9000000D03*
D11*
X195690000Y-6460000D03*
D12*
X199500000Y-9000000D03*
D11*
X202040000Y-3920000D03*
D10*
X204580000Y-9000000D03*
D13*
X192415000Y-6460000D03*
X205342000Y-3920000D03*
D10*
X213470000Y-9000000D03*
D11*
X214740000Y-6460000D03*
D12*
X218550000Y-9000000D03*
D11*
X221090000Y-3920000D03*
D10*
X223630000Y-9000000D03*
D13*
X211465000Y-6460000D03*
X224392000Y-3920000D03*
D10*
X232520000Y-9000000D03*
D11*
X233790000Y-6460000D03*
D12*
X237600000Y-9000000D03*
D11*
X240140000Y-3920000D03*
D10*
X242680000Y-9000000D03*
D13*
X230515000Y-6460000D03*
X243442000Y-3920000D03*
D14*
X254237000Y-2015000D03*
D12*
X254237000Y-17255000D03*
D10*
X261095000Y-9000000D03*
D11*
X262365000Y-6460000D03*
D12*
X266175000Y-9000000D03*
D11*
X268715000Y-3920000D03*
D10*
X271255000Y-9000000D03*
D14*
X278113000Y-2015000D03*
D12*
X278113000Y-17255000D03*
D13*
X259090000Y-6460000D03*
X272017000Y-3920000D03*
D10*
X8682500Y-28050000D03*
D11*
X9952500Y-25510000D03*
D12*
X13762500Y-28050000D03*
D11*
X16302500Y-22970000D03*
D10*
X18842500Y-28050000D03*
D13*
X6677500Y-25510000D03*
X19604500Y-22970000D03*
D10*
X32495000Y-28050000D03*
D11*
X33765000Y-25510000D03*
D12*
X37575000Y-28050000D03*
D11*
X40115000Y-22970000D03*
D10*
X42655000Y-28050000D03*
D13*
X30490000Y-25510000D03*
X43417000Y-22970000D03*
D10*
X51545000Y-28050000D03*
D11*
X52815000Y-25510000D03*
D12*
X56625000Y-28050000D03*
D11*
X59165000Y-22970000D03*
D10*
X61705000Y-28050000D03*
D13*
X49540000Y-25510000D03*
X62467000Y-22970000D03*
D10*
X70595000Y-28050000D03*
D11*
X71865000Y-25510000D03*
D12*
X75675000Y-28050000D03*
D11*
X78215000Y-22970000D03*
D10*
X80755000Y-28050000D03*
D13*
X68590000Y-25510000D03*
X81517000Y-22970000D03*
D10*
X89645000Y-28050000D03*
D11*
X90915000Y-25510000D03*
D12*
X94725000Y-28050000D03*
D11*
X97265000Y-22970000D03*
D10*
X99805000Y-28050000D03*
D13*
X87640000Y-25510000D03*
X100567000Y-22970000D03*
D10*
X127745000Y-28050000D03*
D11*
X129015000Y-25510000D03*
D12*
X132825000Y-28050000D03*
D11*
X135365000Y-22970000D03*
D10*
X137905000Y-28050000D03*
D13*
X125740000Y-25510000D03*
X138667000Y-22970000D03*
D10*
X146795000Y-28050000D03*
D11*
X148065000Y-25510000D03*
D12*
X151875000Y-28050000D03*
D11*
X154415000Y-22970000D03*
D10*
X156955000Y-28050000D03*
D13*
X144790000Y-25510000D03*
X157717000Y-22970000D03*
D10*
X165845000Y-28050000D03*
D11*
X167115000Y-25510000D03*
D12*
X170925000Y-28050000D03*
D11*
X173465000Y-22970000D03*
D10*
X176005000Y-28050000D03*
D13*
X163840000Y-25510000D03*
X176767000Y-22970000D03*
D10*
X184895000Y-28050000D03*
D11*
X186165000Y-25510000D03*
D12*
X189975000Y-28050000D03*
D11*
X192515000Y-22970000D03*
D10*
X195055000Y-28050000D03*
D13*
X182890000Y-25510000D03*
X195817000Y-22970000D03*
D10*
X203945000Y-28050000D03*
D11*
X205215000Y-25510000D03*
D12*
X209025000Y-28050000D03*
D11*
X211565000Y-22970000D03*
D10*
X214105000Y-28050000D03*
D13*
X201940000Y-25510000D03*
X214867000Y-22970000D03*
D10*
X222995000Y-28050000D03*
D11*
X224265000Y-25510000D03*
D12*
X228075000Y-28050000D03*
D11*
X230615000Y-22970000D03*
D10*
X233155000Y-28050000D03*
D13*
X220990000Y-25510000D03*
X233917000Y-22970000D03*
D10*
X242045000Y-28050000D03*
D11*
X243315000Y-25510000D03*
D12*
X247125000Y-28050000D03*
D11*
X249665000Y-22970000D03*
D10*
X252205000Y-28050000D03*
D13*
X240040000Y-25510000D03*
X252967000Y-22970000D03*
D10*
X265857500Y-28050000D03*
D11*
X267127500Y-25510000D03*
D12*
X270937500Y-28050000D03*
D11*
X273477500Y-22970000D03*
D10*
X276017500Y-28050000D03*
D13*
X263852500Y-25510000D03*
X276779500Y-22970000D03*
D10*
X11063750Y-47100000D03*
D11*
X12333750Y-44560000D03*
D12*
X16143750Y-47100000D03*
D11*
X18683750Y-42020000D03*
D10*
X21223750Y-47100000D03*
D13*
X9058750Y-44560000D03*
X21985750Y-42020000D03*
D10*
X37257500Y-47100000D03*
D11*
X38527500Y-44560000D03*
D12*
X42337500Y-47100000D03*
D11*
X44877500Y-42020000D03*
D10*
X47417500Y-47100000D03*
D13*
X35252500Y-44560000D03*
X48179500Y-42020000D03*
D10*
X56307500Y-47100000D03*
D11*
X57577500Y-44560000D03*
D12*
X61387500Y-47100000D03*
D11*
X63927500Y-42020000D03*
D10*
X66467500Y-47100000D03*
D13*
X54302500Y-44560000D03*
X67229500Y-42020000D03*
D10*
X75357500Y-47100000D03*
D11*
X76627500Y-44560000D03*
D12*
X80437500Y-47100000D03*
D11*
X82977500Y-42020000D03*
D10*
X85517500Y-47100000D03*
D13*
X73352500Y-44560000D03*
X86279500Y-42020000D03*
D10*
X94407500Y-47100000D03*
D11*
X95677500Y-44560000D03*
D12*
X99487500Y-47100000D03*
D11*
X102027500Y-42020000D03*
D10*
X104567500Y-47100000D03*
D13*
X92402500Y-44560000D03*
X105329500Y-42020000D03*
D10*
X113457500Y-47100000D03*
D11*
X114727500Y-44560000D03*
D12*
X118537500Y-47100000D03*
D11*
X121077500Y-42020000D03*
D10*
X123617500Y-47100000D03*
D13*
X111452500Y-44560000D03*
X124379500Y-42020000D03*
D10*
X132507500Y-47100000D03*
D11*
X133777500Y-44560000D03*
D12*
X137587500Y-47100000D03*
D11*
X140127500Y-42020000D03*
D10*
X142667500Y-47100000D03*
D13*
X130502500Y-44560000D03*
X143429500Y-42020000D03*
D10*
X151557500Y-47100000D03*
D11*
X152827500Y-44560000D03*
D12*
X156637500Y-47100000D03*
D11*
X159177500Y-42020000D03*
D10*
X161717500Y-47100000D03*
D13*
X149552500Y-44560000D03*
X162479500Y-42020000D03*
D10*
X170607500Y-47100000D03*
D11*
X171877500Y-44560000D03*
D12*
X175687500Y-47100000D03*
D11*
X178227500Y-42020000D03*
D10*
X180767500Y-47100000D03*
D13*
X168602500Y-44560000D03*
X181529500Y-42020000D03*
D10*
X189657500Y-47100000D03*
D11*
X190927500Y-44560000D03*
D12*
X194737500Y-47100000D03*
D11*
X197277500Y-42020000D03*
D10*
X199817500Y-47100000D03*
D13*
X187652500Y-44560000D03*
X200579500Y-42020000D03*
D10*
X208707500Y-47100000D03*
D11*
X209977500Y-44560000D03*
D12*
X213787500Y-47100000D03*
D11*
X216327500Y-42020000D03*
D10*
X218867500Y-47100000D03*
D13*
X206702500Y-44560000D03*
X219629500Y-42020000D03*
D10*
X227757500Y-47100000D03*
D11*
X229027500Y-44560000D03*
D12*
X232837500Y-47100000D03*
D11*
X235377500Y-42020000D03*
D10*
X237917500Y-47100000D03*
D13*
X225752500Y-44560000D03*
X238679500Y-42020000D03*
D14*
X251855750Y-40115000D03*
D12*
X251855750Y-55355000D03*
D10*
X258713750Y-47100000D03*
D11*
X259983750Y-44560000D03*
D12*
X263793750Y-47100000D03*
D11*
X266333750Y-42020000D03*
D10*
X268873750Y-47100000D03*
D14*
X275731750Y-40115000D03*
D12*
X275731750Y-55355000D03*
D13*
X256708750Y-44560000D03*
X269635750Y-42020000D03*
D14*
X8968250Y-59165000D03*
D12*
X8968250Y-74405000D03*
D10*
X15826250Y-66150000D03*
D11*
X17096250Y-63610000D03*
D12*
X20906250Y-66150000D03*
D11*
X23446250Y-61070000D03*
D10*
X25986250Y-66150000D03*
D14*
X32844250Y-59165000D03*
D12*
X32844250Y-74405000D03*
D13*
X13821250Y-63610000D03*
X26748250Y-61070000D03*
D10*
X46782500Y-66150000D03*
D11*
X48052500Y-63610000D03*
D12*
X51862500Y-66150000D03*
D11*
X54402500Y-61070000D03*
D10*
X56942500Y-66150000D03*
D13*
X44777500Y-63610000D03*
X57704500Y-61070000D03*
D10*
X65832500Y-66150000D03*
D11*
X67102500Y-63610000D03*
D12*
X70912500Y-66150000D03*
D11*
X73452500Y-61070000D03*
D10*
X75992500Y-66150000D03*
D13*
X63827500Y-63610000D03*
X76754500Y-61070000D03*
D10*
X84882500Y-66150000D03*
D11*
X86152500Y-63610000D03*
D12*
X89962500Y-66150000D03*
D11*
X92502500Y-61070000D03*
D10*
X95042500Y-66150000D03*
D13*
X82877500Y-63610000D03*
X95804500Y-61070000D03*
D10*
X103932500Y-66150000D03*
D11*
X105202500Y-63610000D03*
D12*
X109012500Y-66150000D03*
D11*
X111552500Y-61070000D03*
D10*
X114092500Y-66150000D03*
D13*
X101927500Y-63610000D03*
X114854500Y-61070000D03*
D10*
X122982500Y-66150000D03*
D11*
X124252500Y-63610000D03*
D12*
X128062500Y-66150000D03*
D11*
X130602500Y-61070000D03*
D10*
X133142500Y-66150000D03*
D13*
X120977500Y-63610000D03*
X133904500Y-61070000D03*
D10*
X142032500Y-66150000D03*
D11*
X143302500Y-63610000D03*
D12*
X147112500Y-66150000D03*
D11*
X149652500Y-61070000D03*
D10*
X152192500Y-66150000D03*
D13*
X140027500Y-63610000D03*
X152954500Y-61070000D03*
D10*
X161082500Y-66150000D03*
D11*
X162352500Y-63610000D03*
D12*
X166162500Y-66150000D03*
D11*
X168702500Y-61070000D03*
D10*
X171242500Y-66150000D03*
D13*
X159077500Y-63610000D03*
X172004500Y-61070000D03*
D10*
X180132500Y-66150000D03*
D11*
X181402500Y-63610000D03*
D12*
X185212500Y-66150000D03*
D11*
X187752500Y-61070000D03*
D10*
X190292500Y-66150000D03*
D13*
X178127500Y-63610000D03*
X191054500Y-61070000D03*
D10*
X199182500Y-66150000D03*
D11*
X200452500Y-63610000D03*
D12*
X204262500Y-66150000D03*
D11*
X206802500Y-61070000D03*
D10*
X209342500Y-66150000D03*
D13*
X197177500Y-63610000D03*
X210104500Y-61070000D03*
D10*
X218232500Y-66150000D03*
D11*
X219502500Y-63610000D03*
D12*
X223312500Y-66150000D03*
D11*
X225852500Y-61070000D03*
D10*
X228392500Y-66150000D03*
D13*
X216227500Y-63610000D03*
X229154500Y-61070000D03*
D10*
X244426250Y-66150000D03*
D11*
X245696250Y-63610000D03*
D12*
X249506250Y-66150000D03*
D11*
X252046250Y-61070000D03*
D10*
X254586250Y-66150000D03*
D13*
X242421250Y-63610000D03*
X255348250Y-61070000D03*
D10*
X270620000Y-66150000D03*
D11*
X271890000Y-63610000D03*
D12*
X275700000Y-66150000D03*
D11*
X278240000Y-61070000D03*
D10*
X280780000Y-66150000D03*
D13*
X268615000Y-63610000D03*
X281542000Y-61070000D03*
D10*
X196801250Y-85200000D03*
D11*
X198071250Y-82660000D03*
D12*
X201881250Y-85200000D03*
D11*
X204421250Y-80120000D03*
D10*
X206961250Y-85200000D03*
D13*
X194796250Y-82660000D03*
X207723250Y-80120000D03*
D10*
X244426250Y-85200000D03*
D11*
X245696250Y-82660000D03*
D12*
X249506250Y-85200000D03*
D11*
X252046250Y-80120000D03*
D10*
X254586250Y-85200000D03*
D13*
X242421250Y-82660000D03*
X255348250Y-80120000D03*
D10*
X220613750Y-85200000D03*
D11*
X221883750Y-82660000D03*
D12*
X225693750Y-85200000D03*
D11*
X228233750Y-80120000D03*
D10*
X230773750Y-85200000D03*
D13*
X218608750Y-82660000D03*
X231535750Y-80120000D03*
D10*
X137270000Y-9000000D03*
D11*
X138540000Y-6460000D03*
D12*
X142350000Y-9000000D03*
D11*
X144890000Y-3920000D03*
D10*
X147430000Y-9000000D03*
D13*
X135265000Y-6460000D03*
X148192000Y-3920000D03*
D10*
X6301250Y-85200000D03*
D11*
X7571250Y-82660000D03*
D12*
X11381250Y-85200000D03*
D11*
X13921250Y-80120000D03*
D10*
X16461250Y-85200000D03*
D13*
X4296250Y-82660000D03*
X17223250Y-80120000D03*
D10*
X30113750Y-85200000D03*
D11*
X31383750Y-82660000D03*
D12*
X35193750Y-85200000D03*
D11*
X37733750Y-80120000D03*
D10*
X40273750Y-85200000D03*
D13*
X28108750Y-82660000D03*
X41035750Y-80120000D03*
D10*
X53926250Y-85200000D03*
D11*
X55196250Y-82660000D03*
D12*
X59006250Y-85200000D03*
D11*
X61546250Y-80120000D03*
D10*
X64086250Y-85200000D03*
D13*
X51921250Y-82660000D03*
X64848250Y-80120000D03*
D12*
X80443850Y-76945000D03*
D14*
X80443850Y-92185000D03*
D10*
X125363750Y-85200000D03*
D11*
X126633750Y-82660000D03*
D12*
X130443750Y-85200000D03*
D11*
X132983750Y-80120000D03*
D10*
X135523750Y-85200000D03*
D12*
X180443650Y-76945000D03*
D14*
X180443650Y-92185000D03*
D13*
X123358750Y-82660000D03*
X136285750Y-80120000D03*
D10*
X268288750Y-85200000D03*
D11*
X269558750Y-82660000D03*
D12*
X273368750Y-85200000D03*
D11*
X275908750Y-80120000D03*
D10*
X278448750Y-85200000D03*
D13*
X266283750Y-82660000D03*
X279210750Y-80120000D03*
D15*
X167000000Y-54400000D03*
X167000000Y-56940000D03*
X164460000Y-54400000D03*
X164460000Y-56940000D03*
X161920000Y-54400000D03*
D16*
X161920000Y-56940000D03*
D10*
X108695000Y-28050000D03*
D11*
X109965000Y-25510000D03*
D12*
X113775000Y-28050000D03*
D11*
X116315000Y-22970000D03*
D10*
X118855000Y-28050000D03*
D13*
X106690000Y-25510000D03*
X119617000Y-22970000D03*
D17*
X45000000Y-16003750D03*
X45000000Y-17003750D03*
X45000000Y-18003750D03*
X45000000Y-19003750D03*
D18*
X48875000Y-14703750D03*
X48875000Y-20303750D03*
D19*
X31402500Y-18753750D03*
X33277500Y-18753750D03*
X31402500Y-16253750D03*
X33277500Y-16253750D03*
D20*
X177663750Y-85515000D03*
X183963750Y-85515000D03*
X177663750Y-81715000D03*
X183963750Y-81715000D03*
D21*
X167467500Y-83000000D03*
X165592500Y-83000000D03*
X160937500Y-89450000D03*
X159062500Y-89450000D03*
D22*
X167630000Y-86650000D03*
X165430000Y-86650000D03*
X165430000Y-84950000D03*
X167630000Y-84950000D03*
D23*
X162730000Y-81112500D03*
X162730000Y-82987500D03*
X175280000Y-81712500D03*
X175280000Y-83587500D03*
D24*
X1681250Y-13556250D03*
X1681250Y-10256250D03*
X20750000Y-13556250D03*
X20750000Y-10256250D03*
X39800000Y-13556250D03*
X39800000Y-10256250D03*
X58850000Y-13556250D03*
X58850000Y-10256250D03*
X77900000Y-13556250D03*
X77900000Y-10256250D03*
X96950000Y-13556250D03*
X96950000Y-10256250D03*
X116000000Y-13556250D03*
X116000000Y-10256250D03*
X135050000Y-13556250D03*
X135050000Y-10256250D03*
X154100000Y-13556250D03*
X154100000Y-10256250D03*
X173150000Y-13556250D03*
X173150000Y-10256250D03*
X192200000Y-13556250D03*
X192200000Y-10256250D03*
X211250000Y-13556250D03*
X211250000Y-10256250D03*
X258875000Y-13556250D03*
X258875000Y-10256250D03*
X6462500Y-32606250D03*
X6462500Y-29306250D03*
X30275000Y-32606250D03*
X30275000Y-29306250D03*
X49325000Y-32606250D03*
X49325000Y-29306250D03*
X68375000Y-32606250D03*
X68375000Y-29306250D03*
X87425000Y-32606250D03*
X87425000Y-29306250D03*
X106475000Y-32606250D03*
X106475000Y-29306250D03*
X125525000Y-32606250D03*
X125525000Y-29306250D03*
X144575000Y-32606250D03*
X144575000Y-29306250D03*
X163625000Y-32606250D03*
X163625000Y-29306250D03*
X182675000Y-32606250D03*
X182675000Y-29306250D03*
X201725000Y-32606250D03*
X201725000Y-29306250D03*
X220775000Y-32606250D03*
X220775000Y-29306250D03*
X239825000Y-32606250D03*
X239825000Y-29306250D03*
X263637500Y-32606250D03*
X263637500Y-29306250D03*
X8843750Y-51656250D03*
X8843750Y-48356250D03*
X35037500Y-51656250D03*
X35037500Y-48356250D03*
X54087500Y-51656250D03*
X54087500Y-48356250D03*
X73137500Y-51656250D03*
X73137500Y-48356250D03*
X111237500Y-51656250D03*
X111237500Y-48356250D03*
X130287500Y-51656250D03*
X130287500Y-48356250D03*
X149337500Y-51656250D03*
X149337500Y-48356250D03*
X168387500Y-51656250D03*
X168387500Y-48356250D03*
X187437500Y-51656250D03*
X187437500Y-48356250D03*
X206487500Y-51656250D03*
X206487500Y-48356250D03*
X225537500Y-51656250D03*
X225537500Y-48356250D03*
X256493750Y-51656250D03*
X256493750Y-48356250D03*
X13606250Y-70706250D03*
X13606250Y-67406250D03*
X44562500Y-70706250D03*
X44562500Y-67406250D03*
X63612500Y-70706250D03*
X63612500Y-67406250D03*
X82662500Y-70706250D03*
X82662500Y-67406250D03*
X101712500Y-70706250D03*
X101712500Y-67406250D03*
X120762500Y-70706250D03*
X120762500Y-67406250D03*
X139812500Y-70706250D03*
X139812500Y-67406250D03*
X158862500Y-70706250D03*
X158862500Y-67406250D03*
X177900000Y-70706250D03*
X177900000Y-67406250D03*
X196962500Y-70706250D03*
X196962500Y-67406250D03*
X216012500Y-70706250D03*
X216012500Y-67406250D03*
X242206250Y-70706250D03*
X242206250Y-67406250D03*
X268400000Y-70706250D03*
X268400000Y-67406250D03*
X4081250Y-89756250D03*
X4081250Y-86456250D03*
X27893750Y-89756250D03*
X27893750Y-86456250D03*
X51681250Y-89756250D03*
X51681250Y-86456250D03*
X123143750Y-89756250D03*
X123143750Y-86456250D03*
X218312500Y-89756250D03*
X218312500Y-86456250D03*
X230300000Y-13556250D03*
X230300000Y-10256250D03*
D23*
X153610000Y-74682500D03*
X153610000Y-76557500D03*
D21*
X167467500Y-88600000D03*
X165592500Y-88600000D03*
D24*
X92187500Y-51656250D03*
X92187500Y-48356250D03*
X194500000Y-89756250D03*
X194500000Y-86456250D03*
D19*
X141806250Y-86688750D03*
X143681250Y-86688750D03*
D25*
X39173750Y-18603750D03*
X38223750Y-18603750D03*
X37273750Y-18603750D03*
X37273750Y-16403750D03*
X38223750Y-16403750D03*
X39173750Y-16403750D03*
D26*
X151573750Y-82472500D03*
X152073750Y-82472500D03*
X152573750Y-82472500D03*
X153073750Y-82472500D03*
X153573750Y-82472500D03*
X154073750Y-82472500D03*
X154573750Y-82472500D03*
X155073750Y-82472500D03*
X155573750Y-82472500D03*
X156073750Y-82472500D03*
X156573750Y-82472500D03*
D27*
X157411250Y-83310000D03*
X157411250Y-83810000D03*
X157411250Y-84310000D03*
X157411250Y-84810000D03*
X157411250Y-85310000D03*
X157411250Y-85810000D03*
X157411250Y-86310000D03*
X157411250Y-86810000D03*
X157411250Y-87310000D03*
X157411250Y-87810000D03*
X157411250Y-88310000D03*
D26*
X156573750Y-89147500D03*
X156073750Y-89147500D03*
X155573750Y-89147500D03*
X155073750Y-89147500D03*
X154573750Y-89147500D03*
X154073750Y-89147500D03*
X153573750Y-89147500D03*
X153073750Y-89147500D03*
X152573750Y-89147500D03*
X152073750Y-89147500D03*
X151573750Y-89147500D03*
D27*
X150736250Y-88310000D03*
X150736250Y-87810000D03*
X150736250Y-87310000D03*
X150736250Y-86810000D03*
X150736250Y-86310000D03*
X150736250Y-85810000D03*
X150736250Y-85310000D03*
X150736250Y-84810000D03*
X150736250Y-84310000D03*
X150736250Y-83810000D03*
X150736250Y-83310000D03*
D28*
X154073750Y-85810000D03*
D29*
X23290000Y-15090000D03*
X26090000Y-15090000D03*
D19*
X141806250Y-89080000D03*
X143681250Y-89080000D03*
D23*
X145850000Y-75382500D03*
X145850000Y-77257500D03*
D24*
X266018750Y-89756250D03*
X266018750Y-86456250D03*
X242206250Y-89756250D03*
X242206250Y-86456250D03*
D30*
X119606310Y-16150000D03*
X119606310Y-19450000D03*
X114706310Y-19450000D03*
X114706310Y-16150000D03*
D31*
X163736310Y-76600000D03*
X163736310Y-73300000D03*
X168636310Y-73300000D03*
X168636310Y-76600000D03*
X114706310Y-76600000D03*
X114706310Y-73300000D03*
X119606310Y-73300000D03*
X119606310Y-76600000D03*
D30*
X168636310Y-16150000D03*
X168636310Y-19450000D03*
X163736310Y-19450000D03*
X163736310Y-16150000D03*
D31*
X262796310Y-76600000D03*
X262796310Y-73300000D03*
X267696310Y-73300000D03*
X267696310Y-76600000D03*
X15146310Y-76600000D03*
X15146310Y-73300000D03*
X20046310Y-73300000D03*
X20046310Y-76600000D03*
X213266310Y-76600000D03*
X213266310Y-73300000D03*
X218166310Y-73300000D03*
X218166310Y-76600000D03*
D30*
X267696310Y-16150000D03*
X267696310Y-19450000D03*
X262796310Y-19450000D03*
X262796310Y-16150000D03*
D31*
X64676310Y-76600000D03*
X64676310Y-73300000D03*
X69576310Y-73300000D03*
X69576310Y-76600000D03*
D30*
X20046310Y-16150000D03*
X20046310Y-19450000D03*
X15146310Y-19450000D03*
X15146310Y-16150000D03*
X69576310Y-16150000D03*
X69576310Y-19450000D03*
X64676310Y-19450000D03*
X64676310Y-16150000D03*
X218166310Y-16150000D03*
X218166310Y-19450000D03*
X213266310Y-19450000D03*
X213266310Y-16150000D03*
M02*
