G04 #@! TF.GenerationSoftware,KiCad,Pcbnew,7.0.1*
G04 #@! TF.CreationDate,2023-05-31T09:22:42+05:30*
G04 #@! TF.ProjectId,glowie60,676c6f77-6965-4363-902e-6b696361645f,rev?*
G04 #@! TF.SameCoordinates,Original*
G04 #@! TF.FileFunction,Legend,Bot*
G04 #@! TF.FilePolarity,Positive*
%FSLAX46Y46*%
G04 Gerber Fmt 4.6, Leading zero omitted, Abs format (unit mm)*
G04 Created by KiCad (PCBNEW 7.0.1) date 2023-05-31 09:22:42*
%MOMM*%
%LPD*%
G01*
G04 APERTURE LIST*
G04 Aperture macros list*
%AMRoundRect*
0 Rectangle with rounded corners*
0 $1 Rounding radius*
0 $2 $3 $4 $5 $6 $7 $8 $9 X,Y pos of 4 corners*
0 Add a 4 corners polygon primitive as box body*
4,1,4,$2,$3,$4,$5,$6,$7,$8,$9,$2,$3,0*
0 Add four circle primitives for the rounded corners*
1,1,$1+$1,$2,$3*
1,1,$1+$1,$4,$5*
1,1,$1+$1,$6,$7*
1,1,$1+$1,$8,$9*
0 Add four rect primitives between the rounded corners*
20,1,$1+$1,$2,$3,$4,$5,0*
20,1,$1+$1,$4,$5,$6,$7,0*
20,1,$1+$1,$6,$7,$8,$9,0*
20,1,$1+$1,$8,$9,$2,$3,0*%
G04 Aperture macros list end*
%ADD10C,0.150000*%
%ADD11C,0.120000*%
%ADD12C,1.850000*%
%ADD13C,3.100000*%
%ADD14C,4.087800*%
%ADD15RoundRect,0.050000X-1.275000X-1.250000X1.275000X-1.250000X1.275000X1.250000X-1.275000X1.250000X0*%
%ADD16C,3.148000*%
%ADD17O,1.800000X1.800000*%
%ADD18RoundRect,0.050000X0.850000X-0.850000X0.850000X0.850000X-0.850000X0.850000X-0.850000X-0.850000X0*%
%ADD19RoundRect,0.200000X-0.625000X0.150000X-0.625000X-0.150000X0.625000X-0.150000X0.625000X0.150000X0*%
%ADD20RoundRect,0.299999X-0.650001X0.350001X-0.650001X-0.350001X0.650001X-0.350001X0.650001X0.350001X0*%
%ADD21RoundRect,0.293750X-0.243750X-0.456250X0.243750X-0.456250X0.243750X0.456250X-0.243750X0.456250X0*%
%ADD22RoundRect,0.050000X-0.850000X-0.500000X0.850000X-0.500000X0.850000X0.500000X-0.850000X0.500000X0*%
%ADD23RoundRect,0.293750X0.243750X0.456250X-0.243750X0.456250X-0.243750X-0.456250X0.243750X-0.456250X0*%
%ADD24RoundRect,0.050000X0.700000X0.600000X-0.700000X0.600000X-0.700000X-0.600000X0.700000X-0.600000X0*%
%ADD25RoundRect,0.293750X-0.456250X0.243750X-0.456250X-0.243750X0.456250X-0.243750X0.456250X0.243750X0*%
%ADD26RoundRect,0.050000X0.600000X-0.450000X0.600000X0.450000X-0.600000X0.450000X-0.600000X-0.450000X0*%
%ADD27RoundRect,0.050000X0.325000X-0.530000X0.325000X0.530000X-0.325000X0.530000X-0.325000X-0.530000X0*%
%ADD28RoundRect,0.112500X-0.062500X0.475000X-0.062500X-0.475000X0.062500X-0.475000X0.062500X0.475000X0*%
%ADD29RoundRect,0.112500X-0.475000X0.062500X-0.475000X-0.062500X0.475000X-0.062500X0.475000X0.062500X0*%
%ADD30RoundRect,0.050000X-2.600000X2.600000X-2.600000X-2.600000X2.600000X-2.600000X2.600000X2.600000X0*%
%ADD31RoundRect,0.300000X-0.375000X-0.625000X0.375000X-0.625000X0.375000X0.625000X-0.375000X0.625000X0*%
%ADD32RoundRect,0.050000X0.750000X0.450000X-0.750000X0.450000X-0.750000X-0.450000X0.750000X-0.450000X0*%
%ADD33RoundRect,0.050000X-0.750000X-0.450000X0.750000X-0.450000X0.750000X0.450000X-0.750000X0.450000X0*%
G04 APERTURE END LIST*
D10*
X277133333Y-92810952D02*
X277133333Y-93620476D01*
X277133333Y-93620476D02*
X277180952Y-93715714D01*
X277180952Y-93715714D02*
X277228571Y-93763333D01*
X277228571Y-93763333D02*
X277323809Y-93810952D01*
X277323809Y-93810952D02*
X277466666Y-93810952D01*
X277466666Y-93810952D02*
X277561904Y-93763333D01*
X277133333Y-93430000D02*
X277228571Y-93477619D01*
X277228571Y-93477619D02*
X277419047Y-93477619D01*
X277419047Y-93477619D02*
X277514285Y-93430000D01*
X277514285Y-93430000D02*
X277561904Y-93382380D01*
X277561904Y-93382380D02*
X277609523Y-93287142D01*
X277609523Y-93287142D02*
X277609523Y-93001428D01*
X277609523Y-93001428D02*
X277561904Y-92906190D01*
X277561904Y-92906190D02*
X277514285Y-92858571D01*
X277514285Y-92858571D02*
X277419047Y-92810952D01*
X277419047Y-92810952D02*
X277228571Y-92810952D01*
X277228571Y-92810952D02*
X277133333Y-92858571D01*
X276514285Y-93477619D02*
X276609523Y-93430000D01*
X276609523Y-93430000D02*
X276657142Y-93334761D01*
X276657142Y-93334761D02*
X276657142Y-92477619D01*
X275990475Y-93477619D02*
X276085713Y-93430000D01*
X276085713Y-93430000D02*
X276133332Y-93382380D01*
X276133332Y-93382380D02*
X276180951Y-93287142D01*
X276180951Y-93287142D02*
X276180951Y-93001428D01*
X276180951Y-93001428D02*
X276133332Y-92906190D01*
X276133332Y-92906190D02*
X276085713Y-92858571D01*
X276085713Y-92858571D02*
X275990475Y-92810952D01*
X275990475Y-92810952D02*
X275847618Y-92810952D01*
X275847618Y-92810952D02*
X275752380Y-92858571D01*
X275752380Y-92858571D02*
X275704761Y-92906190D01*
X275704761Y-92906190D02*
X275657142Y-93001428D01*
X275657142Y-93001428D02*
X275657142Y-93287142D01*
X275657142Y-93287142D02*
X275704761Y-93382380D01*
X275704761Y-93382380D02*
X275752380Y-93430000D01*
X275752380Y-93430000D02*
X275847618Y-93477619D01*
X275847618Y-93477619D02*
X275990475Y-93477619D01*
X275323808Y-92810952D02*
X275133332Y-93477619D01*
X275133332Y-93477619D02*
X274942856Y-93001428D01*
X274942856Y-93001428D02*
X274752380Y-93477619D01*
X274752380Y-93477619D02*
X274561904Y-92810952D01*
X274180951Y-93477619D02*
X274180951Y-92810952D01*
X274180951Y-92477619D02*
X274228570Y-92525238D01*
X274228570Y-92525238D02*
X274180951Y-92572857D01*
X274180951Y-92572857D02*
X274133332Y-92525238D01*
X274133332Y-92525238D02*
X274180951Y-92477619D01*
X274180951Y-92477619D02*
X274180951Y-92572857D01*
X273323809Y-93430000D02*
X273419047Y-93477619D01*
X273419047Y-93477619D02*
X273609523Y-93477619D01*
X273609523Y-93477619D02*
X273704761Y-93430000D01*
X273704761Y-93430000D02*
X273752380Y-93334761D01*
X273752380Y-93334761D02*
X273752380Y-92953809D01*
X273752380Y-92953809D02*
X273704761Y-92858571D01*
X273704761Y-92858571D02*
X273609523Y-92810952D01*
X273609523Y-92810952D02*
X273419047Y-92810952D01*
X273419047Y-92810952D02*
X273323809Y-92858571D01*
X273323809Y-92858571D02*
X273276190Y-92953809D01*
X273276190Y-92953809D02*
X273276190Y-93049047D01*
X273276190Y-93049047D02*
X273752380Y-93144285D01*
X272419047Y-92477619D02*
X272609523Y-92477619D01*
X272609523Y-92477619D02*
X272704761Y-92525238D01*
X272704761Y-92525238D02*
X272752380Y-92572857D01*
X272752380Y-92572857D02*
X272847618Y-92715714D01*
X272847618Y-92715714D02*
X272895237Y-92906190D01*
X272895237Y-92906190D02*
X272895237Y-93287142D01*
X272895237Y-93287142D02*
X272847618Y-93382380D01*
X272847618Y-93382380D02*
X272799999Y-93430000D01*
X272799999Y-93430000D02*
X272704761Y-93477619D01*
X272704761Y-93477619D02*
X272514285Y-93477619D01*
X272514285Y-93477619D02*
X272419047Y-93430000D01*
X272419047Y-93430000D02*
X272371428Y-93382380D01*
X272371428Y-93382380D02*
X272323809Y-93287142D01*
X272323809Y-93287142D02*
X272323809Y-93049047D01*
X272323809Y-93049047D02*
X272371428Y-92953809D01*
X272371428Y-92953809D02*
X272419047Y-92906190D01*
X272419047Y-92906190D02*
X272514285Y-92858571D01*
X272514285Y-92858571D02*
X272704761Y-92858571D01*
X272704761Y-92858571D02*
X272799999Y-92906190D01*
X272799999Y-92906190D02*
X272847618Y-92953809D01*
X272847618Y-92953809D02*
X272895237Y-93049047D01*
X271704761Y-92477619D02*
X271609523Y-92477619D01*
X271609523Y-92477619D02*
X271514285Y-92525238D01*
X271514285Y-92525238D02*
X271466666Y-92572857D01*
X271466666Y-92572857D02*
X271419047Y-92668095D01*
X271419047Y-92668095D02*
X271371428Y-92858571D01*
X271371428Y-92858571D02*
X271371428Y-93096666D01*
X271371428Y-93096666D02*
X271419047Y-93287142D01*
X271419047Y-93287142D02*
X271466666Y-93382380D01*
X271466666Y-93382380D02*
X271514285Y-93430000D01*
X271514285Y-93430000D02*
X271609523Y-93477619D01*
X271609523Y-93477619D02*
X271704761Y-93477619D01*
X271704761Y-93477619D02*
X271799999Y-93430000D01*
X271799999Y-93430000D02*
X271847618Y-93382380D01*
X271847618Y-93382380D02*
X271895237Y-93287142D01*
X271895237Y-93287142D02*
X271942856Y-93096666D01*
X271942856Y-93096666D02*
X271942856Y-92858571D01*
X271942856Y-92858571D02*
X271895237Y-92668095D01*
X271895237Y-92668095D02*
X271847618Y-92572857D01*
X271847618Y-92572857D02*
X271799999Y-92525238D01*
X271799999Y-92525238D02*
X271704761Y-92477619D01*
X10285713Y-12510619D02*
X10285713Y-11510619D01*
X10285713Y-11510619D02*
X9952380Y-12224904D01*
X9952380Y-12224904D02*
X9619047Y-11510619D01*
X9619047Y-11510619D02*
X9619047Y-12510619D01*
X9238094Y-11510619D02*
X8571428Y-12510619D01*
X8571428Y-11510619D02*
X9238094Y-12510619D01*
X7666666Y-12510619D02*
X8238094Y-12510619D01*
X7952380Y-12510619D02*
X7952380Y-11510619D01*
X7952380Y-11510619D02*
X8047618Y-11653476D01*
X8047618Y-11653476D02*
X8142856Y-11748714D01*
X8142856Y-11748714D02*
X8238094Y-11796333D01*
X29335713Y-12510619D02*
X29335713Y-11510619D01*
X29335713Y-11510619D02*
X29002380Y-12224904D01*
X29002380Y-12224904D02*
X28669047Y-11510619D01*
X28669047Y-11510619D02*
X28669047Y-12510619D01*
X28288094Y-11510619D02*
X27621428Y-12510619D01*
X27621428Y-11510619D02*
X28288094Y-12510619D01*
X27288094Y-11605857D02*
X27240475Y-11558238D01*
X27240475Y-11558238D02*
X27145237Y-11510619D01*
X27145237Y-11510619D02*
X26907142Y-11510619D01*
X26907142Y-11510619D02*
X26811904Y-11558238D01*
X26811904Y-11558238D02*
X26764285Y-11605857D01*
X26764285Y-11605857D02*
X26716666Y-11701095D01*
X26716666Y-11701095D02*
X26716666Y-11796333D01*
X26716666Y-11796333D02*
X26764285Y-11939190D01*
X26764285Y-11939190D02*
X27335713Y-12510619D01*
X27335713Y-12510619D02*
X26716666Y-12510619D01*
X48385713Y-12510619D02*
X48385713Y-11510619D01*
X48385713Y-11510619D02*
X48052380Y-12224904D01*
X48052380Y-12224904D02*
X47719047Y-11510619D01*
X47719047Y-11510619D02*
X47719047Y-12510619D01*
X47338094Y-11510619D02*
X46671428Y-12510619D01*
X46671428Y-11510619D02*
X47338094Y-12510619D01*
X46385713Y-11510619D02*
X45766666Y-11510619D01*
X45766666Y-11510619D02*
X46099999Y-11891571D01*
X46099999Y-11891571D02*
X45957142Y-11891571D01*
X45957142Y-11891571D02*
X45861904Y-11939190D01*
X45861904Y-11939190D02*
X45814285Y-11986809D01*
X45814285Y-11986809D02*
X45766666Y-12082047D01*
X45766666Y-12082047D02*
X45766666Y-12320142D01*
X45766666Y-12320142D02*
X45814285Y-12415380D01*
X45814285Y-12415380D02*
X45861904Y-12463000D01*
X45861904Y-12463000D02*
X45957142Y-12510619D01*
X45957142Y-12510619D02*
X46242856Y-12510619D01*
X46242856Y-12510619D02*
X46338094Y-12463000D01*
X46338094Y-12463000D02*
X46385713Y-12415380D01*
X67435713Y-12510619D02*
X67435713Y-11510619D01*
X67435713Y-11510619D02*
X67102380Y-12224904D01*
X67102380Y-12224904D02*
X66769047Y-11510619D01*
X66769047Y-11510619D02*
X66769047Y-12510619D01*
X66388094Y-11510619D02*
X65721428Y-12510619D01*
X65721428Y-11510619D02*
X66388094Y-12510619D01*
X64911904Y-11843952D02*
X64911904Y-12510619D01*
X65149999Y-11463000D02*
X65388094Y-12177285D01*
X65388094Y-12177285D02*
X64769047Y-12177285D01*
X86485713Y-12510619D02*
X86485713Y-11510619D01*
X86485713Y-11510619D02*
X86152380Y-12224904D01*
X86152380Y-12224904D02*
X85819047Y-11510619D01*
X85819047Y-11510619D02*
X85819047Y-12510619D01*
X85438094Y-11510619D02*
X84771428Y-12510619D01*
X84771428Y-11510619D02*
X85438094Y-12510619D01*
X83914285Y-11510619D02*
X84390475Y-11510619D01*
X84390475Y-11510619D02*
X84438094Y-11986809D01*
X84438094Y-11986809D02*
X84390475Y-11939190D01*
X84390475Y-11939190D02*
X84295237Y-11891571D01*
X84295237Y-11891571D02*
X84057142Y-11891571D01*
X84057142Y-11891571D02*
X83961904Y-11939190D01*
X83961904Y-11939190D02*
X83914285Y-11986809D01*
X83914285Y-11986809D02*
X83866666Y-12082047D01*
X83866666Y-12082047D02*
X83866666Y-12320142D01*
X83866666Y-12320142D02*
X83914285Y-12415380D01*
X83914285Y-12415380D02*
X83961904Y-12463000D01*
X83961904Y-12463000D02*
X84057142Y-12510619D01*
X84057142Y-12510619D02*
X84295237Y-12510619D01*
X84295237Y-12510619D02*
X84390475Y-12463000D01*
X84390475Y-12463000D02*
X84438094Y-12415380D01*
X105535713Y-12510619D02*
X105535713Y-11510619D01*
X105535713Y-11510619D02*
X105202380Y-12224904D01*
X105202380Y-12224904D02*
X104869047Y-11510619D01*
X104869047Y-11510619D02*
X104869047Y-12510619D01*
X104488094Y-11510619D02*
X103821428Y-12510619D01*
X103821428Y-11510619D02*
X104488094Y-12510619D01*
X103011904Y-11510619D02*
X103202380Y-11510619D01*
X103202380Y-11510619D02*
X103297618Y-11558238D01*
X103297618Y-11558238D02*
X103345237Y-11605857D01*
X103345237Y-11605857D02*
X103440475Y-11748714D01*
X103440475Y-11748714D02*
X103488094Y-11939190D01*
X103488094Y-11939190D02*
X103488094Y-12320142D01*
X103488094Y-12320142D02*
X103440475Y-12415380D01*
X103440475Y-12415380D02*
X103392856Y-12463000D01*
X103392856Y-12463000D02*
X103297618Y-12510619D01*
X103297618Y-12510619D02*
X103107142Y-12510619D01*
X103107142Y-12510619D02*
X103011904Y-12463000D01*
X103011904Y-12463000D02*
X102964285Y-12415380D01*
X102964285Y-12415380D02*
X102916666Y-12320142D01*
X102916666Y-12320142D02*
X102916666Y-12082047D01*
X102916666Y-12082047D02*
X102964285Y-11986809D01*
X102964285Y-11986809D02*
X103011904Y-11939190D01*
X103011904Y-11939190D02*
X103107142Y-11891571D01*
X103107142Y-11891571D02*
X103297618Y-11891571D01*
X103297618Y-11891571D02*
X103392856Y-11939190D01*
X103392856Y-11939190D02*
X103440475Y-11986809D01*
X103440475Y-11986809D02*
X103488094Y-12082047D01*
X124585713Y-12510619D02*
X124585713Y-11510619D01*
X124585713Y-11510619D02*
X124252380Y-12224904D01*
X124252380Y-12224904D02*
X123919047Y-11510619D01*
X123919047Y-11510619D02*
X123919047Y-12510619D01*
X123538094Y-11510619D02*
X122871428Y-12510619D01*
X122871428Y-11510619D02*
X123538094Y-12510619D01*
X122585713Y-11510619D02*
X121919047Y-11510619D01*
X121919047Y-11510619D02*
X122347618Y-12510619D01*
X162685713Y-12510619D02*
X162685713Y-11510619D01*
X162685713Y-11510619D02*
X162352380Y-12224904D01*
X162352380Y-12224904D02*
X162019047Y-11510619D01*
X162019047Y-11510619D02*
X162019047Y-12510619D01*
X161638094Y-11510619D02*
X160971428Y-12510619D01*
X160971428Y-11510619D02*
X161638094Y-12510619D01*
X160542856Y-12510619D02*
X160352380Y-12510619D01*
X160352380Y-12510619D02*
X160257142Y-12463000D01*
X160257142Y-12463000D02*
X160209523Y-12415380D01*
X160209523Y-12415380D02*
X160114285Y-12272523D01*
X160114285Y-12272523D02*
X160066666Y-12082047D01*
X160066666Y-12082047D02*
X160066666Y-11701095D01*
X160066666Y-11701095D02*
X160114285Y-11605857D01*
X160114285Y-11605857D02*
X160161904Y-11558238D01*
X160161904Y-11558238D02*
X160257142Y-11510619D01*
X160257142Y-11510619D02*
X160447618Y-11510619D01*
X160447618Y-11510619D02*
X160542856Y-11558238D01*
X160542856Y-11558238D02*
X160590475Y-11605857D01*
X160590475Y-11605857D02*
X160638094Y-11701095D01*
X160638094Y-11701095D02*
X160638094Y-11939190D01*
X160638094Y-11939190D02*
X160590475Y-12034428D01*
X160590475Y-12034428D02*
X160542856Y-12082047D01*
X160542856Y-12082047D02*
X160447618Y-12129666D01*
X160447618Y-12129666D02*
X160257142Y-12129666D01*
X160257142Y-12129666D02*
X160161904Y-12082047D01*
X160161904Y-12082047D02*
X160114285Y-12034428D01*
X160114285Y-12034428D02*
X160066666Y-11939190D01*
X182211904Y-12510619D02*
X182211904Y-11510619D01*
X182211904Y-11510619D02*
X181878571Y-12224904D01*
X181878571Y-12224904D02*
X181545238Y-11510619D01*
X181545238Y-11510619D02*
X181545238Y-12510619D01*
X181164285Y-11510619D02*
X180497619Y-12510619D01*
X180497619Y-11510619D02*
X181164285Y-12510619D01*
X179592857Y-12510619D02*
X180164285Y-12510619D01*
X179878571Y-12510619D02*
X179878571Y-11510619D01*
X179878571Y-11510619D02*
X179973809Y-11653476D01*
X179973809Y-11653476D02*
X180069047Y-11748714D01*
X180069047Y-11748714D02*
X180164285Y-11796333D01*
X178973809Y-11510619D02*
X178878571Y-11510619D01*
X178878571Y-11510619D02*
X178783333Y-11558238D01*
X178783333Y-11558238D02*
X178735714Y-11605857D01*
X178735714Y-11605857D02*
X178688095Y-11701095D01*
X178688095Y-11701095D02*
X178640476Y-11891571D01*
X178640476Y-11891571D02*
X178640476Y-12129666D01*
X178640476Y-12129666D02*
X178688095Y-12320142D01*
X178688095Y-12320142D02*
X178735714Y-12415380D01*
X178735714Y-12415380D02*
X178783333Y-12463000D01*
X178783333Y-12463000D02*
X178878571Y-12510619D01*
X178878571Y-12510619D02*
X178973809Y-12510619D01*
X178973809Y-12510619D02*
X179069047Y-12463000D01*
X179069047Y-12463000D02*
X179116666Y-12415380D01*
X179116666Y-12415380D02*
X179164285Y-12320142D01*
X179164285Y-12320142D02*
X179211904Y-12129666D01*
X179211904Y-12129666D02*
X179211904Y-11891571D01*
X179211904Y-11891571D02*
X179164285Y-11701095D01*
X179164285Y-11701095D02*
X179116666Y-11605857D01*
X179116666Y-11605857D02*
X179069047Y-11558238D01*
X179069047Y-11558238D02*
X178973809Y-11510619D01*
X201261904Y-12510619D02*
X201261904Y-11510619D01*
X201261904Y-11510619D02*
X200928571Y-12224904D01*
X200928571Y-12224904D02*
X200595238Y-11510619D01*
X200595238Y-11510619D02*
X200595238Y-12510619D01*
X200214285Y-11510619D02*
X199547619Y-12510619D01*
X199547619Y-11510619D02*
X200214285Y-12510619D01*
X198642857Y-12510619D02*
X199214285Y-12510619D01*
X198928571Y-12510619D02*
X198928571Y-11510619D01*
X198928571Y-11510619D02*
X199023809Y-11653476D01*
X199023809Y-11653476D02*
X199119047Y-11748714D01*
X199119047Y-11748714D02*
X199214285Y-11796333D01*
X197690476Y-12510619D02*
X198261904Y-12510619D01*
X197976190Y-12510619D02*
X197976190Y-11510619D01*
X197976190Y-11510619D02*
X198071428Y-11653476D01*
X198071428Y-11653476D02*
X198166666Y-11748714D01*
X198166666Y-11748714D02*
X198261904Y-11796333D01*
X220311904Y-12510619D02*
X220311904Y-11510619D01*
X220311904Y-11510619D02*
X219978571Y-12224904D01*
X219978571Y-12224904D02*
X219645238Y-11510619D01*
X219645238Y-11510619D02*
X219645238Y-12510619D01*
X219264285Y-11510619D02*
X218597619Y-12510619D01*
X218597619Y-11510619D02*
X219264285Y-12510619D01*
X217692857Y-12510619D02*
X218264285Y-12510619D01*
X217978571Y-12510619D02*
X217978571Y-11510619D01*
X217978571Y-11510619D02*
X218073809Y-11653476D01*
X218073809Y-11653476D02*
X218169047Y-11748714D01*
X218169047Y-11748714D02*
X218264285Y-11796333D01*
X217311904Y-11605857D02*
X217264285Y-11558238D01*
X217264285Y-11558238D02*
X217169047Y-11510619D01*
X217169047Y-11510619D02*
X216930952Y-11510619D01*
X216930952Y-11510619D02*
X216835714Y-11558238D01*
X216835714Y-11558238D02*
X216788095Y-11605857D01*
X216788095Y-11605857D02*
X216740476Y-11701095D01*
X216740476Y-11701095D02*
X216740476Y-11796333D01*
X216740476Y-11796333D02*
X216788095Y-11939190D01*
X216788095Y-11939190D02*
X217359523Y-12510619D01*
X217359523Y-12510619D02*
X216740476Y-12510619D01*
X239361904Y-12510619D02*
X239361904Y-11510619D01*
X239361904Y-11510619D02*
X239028571Y-12224904D01*
X239028571Y-12224904D02*
X238695238Y-11510619D01*
X238695238Y-11510619D02*
X238695238Y-12510619D01*
X238314285Y-11510619D02*
X237647619Y-12510619D01*
X237647619Y-11510619D02*
X238314285Y-12510619D01*
X236742857Y-12510619D02*
X237314285Y-12510619D01*
X237028571Y-12510619D02*
X237028571Y-11510619D01*
X237028571Y-11510619D02*
X237123809Y-11653476D01*
X237123809Y-11653476D02*
X237219047Y-11748714D01*
X237219047Y-11748714D02*
X237314285Y-11796333D01*
X236409523Y-11510619D02*
X235790476Y-11510619D01*
X235790476Y-11510619D02*
X236123809Y-11891571D01*
X236123809Y-11891571D02*
X235980952Y-11891571D01*
X235980952Y-11891571D02*
X235885714Y-11939190D01*
X235885714Y-11939190D02*
X235838095Y-11986809D01*
X235838095Y-11986809D02*
X235790476Y-12082047D01*
X235790476Y-12082047D02*
X235790476Y-12320142D01*
X235790476Y-12320142D02*
X235838095Y-12415380D01*
X235838095Y-12415380D02*
X235885714Y-12463000D01*
X235885714Y-12463000D02*
X235980952Y-12510619D01*
X235980952Y-12510619D02*
X236266666Y-12510619D01*
X236266666Y-12510619D02*
X236361904Y-12463000D01*
X236361904Y-12463000D02*
X236409523Y-12415380D01*
X267936904Y-12510619D02*
X267936904Y-11510619D01*
X267936904Y-11510619D02*
X267603571Y-12224904D01*
X267603571Y-12224904D02*
X267270238Y-11510619D01*
X267270238Y-11510619D02*
X267270238Y-12510619D01*
X266889285Y-11510619D02*
X266222619Y-12510619D01*
X266222619Y-11510619D02*
X266889285Y-12510619D01*
X265317857Y-12510619D02*
X265889285Y-12510619D01*
X265603571Y-12510619D02*
X265603571Y-11510619D01*
X265603571Y-11510619D02*
X265698809Y-11653476D01*
X265698809Y-11653476D02*
X265794047Y-11748714D01*
X265794047Y-11748714D02*
X265889285Y-11796333D01*
X264460714Y-11843952D02*
X264460714Y-12510619D01*
X264698809Y-11463000D02*
X264936904Y-12177285D01*
X264936904Y-12177285D02*
X264317857Y-12177285D01*
X15524404Y-31560619D02*
X15524404Y-30560619D01*
X15524404Y-30560619D02*
X15191071Y-31274904D01*
X15191071Y-31274904D02*
X14857738Y-30560619D01*
X14857738Y-30560619D02*
X14857738Y-31560619D01*
X14476785Y-30560619D02*
X13810119Y-31560619D01*
X13810119Y-30560619D02*
X14476785Y-31560619D01*
X12905357Y-31560619D02*
X13476785Y-31560619D01*
X13191071Y-31560619D02*
X13191071Y-30560619D01*
X13191071Y-30560619D02*
X13286309Y-30703476D01*
X13286309Y-30703476D02*
X13381547Y-30798714D01*
X13381547Y-30798714D02*
X13476785Y-30846333D01*
X12048214Y-30560619D02*
X12238690Y-30560619D01*
X12238690Y-30560619D02*
X12333928Y-30608238D01*
X12333928Y-30608238D02*
X12381547Y-30655857D01*
X12381547Y-30655857D02*
X12476785Y-30798714D01*
X12476785Y-30798714D02*
X12524404Y-30989190D01*
X12524404Y-30989190D02*
X12524404Y-31370142D01*
X12524404Y-31370142D02*
X12476785Y-31465380D01*
X12476785Y-31465380D02*
X12429166Y-31513000D01*
X12429166Y-31513000D02*
X12333928Y-31560619D01*
X12333928Y-31560619D02*
X12143452Y-31560619D01*
X12143452Y-31560619D02*
X12048214Y-31513000D01*
X12048214Y-31513000D02*
X12000595Y-31465380D01*
X12000595Y-31465380D02*
X11952976Y-31370142D01*
X11952976Y-31370142D02*
X11952976Y-31132047D01*
X11952976Y-31132047D02*
X12000595Y-31036809D01*
X12000595Y-31036809D02*
X12048214Y-30989190D01*
X12048214Y-30989190D02*
X12143452Y-30941571D01*
X12143452Y-30941571D02*
X12333928Y-30941571D01*
X12333928Y-30941571D02*
X12429166Y-30989190D01*
X12429166Y-30989190D02*
X12476785Y-31036809D01*
X12476785Y-31036809D02*
X12524404Y-31132047D01*
X39336904Y-31560619D02*
X39336904Y-30560619D01*
X39336904Y-30560619D02*
X39003571Y-31274904D01*
X39003571Y-31274904D02*
X38670238Y-30560619D01*
X38670238Y-30560619D02*
X38670238Y-31560619D01*
X38289285Y-30560619D02*
X37622619Y-31560619D01*
X37622619Y-30560619D02*
X38289285Y-31560619D01*
X36717857Y-31560619D02*
X37289285Y-31560619D01*
X37003571Y-31560619D02*
X37003571Y-30560619D01*
X37003571Y-30560619D02*
X37098809Y-30703476D01*
X37098809Y-30703476D02*
X37194047Y-30798714D01*
X37194047Y-30798714D02*
X37289285Y-30846333D01*
X36384523Y-30560619D02*
X35717857Y-30560619D01*
X35717857Y-30560619D02*
X36146428Y-31560619D01*
X58386904Y-31560619D02*
X58386904Y-30560619D01*
X58386904Y-30560619D02*
X58053571Y-31274904D01*
X58053571Y-31274904D02*
X57720238Y-30560619D01*
X57720238Y-30560619D02*
X57720238Y-31560619D01*
X57339285Y-30560619D02*
X56672619Y-31560619D01*
X56672619Y-30560619D02*
X57339285Y-31560619D01*
X55767857Y-31560619D02*
X56339285Y-31560619D01*
X56053571Y-31560619D02*
X56053571Y-30560619D01*
X56053571Y-30560619D02*
X56148809Y-30703476D01*
X56148809Y-30703476D02*
X56244047Y-30798714D01*
X56244047Y-30798714D02*
X56339285Y-30846333D01*
X55196428Y-30989190D02*
X55291666Y-30941571D01*
X55291666Y-30941571D02*
X55339285Y-30893952D01*
X55339285Y-30893952D02*
X55386904Y-30798714D01*
X55386904Y-30798714D02*
X55386904Y-30751095D01*
X55386904Y-30751095D02*
X55339285Y-30655857D01*
X55339285Y-30655857D02*
X55291666Y-30608238D01*
X55291666Y-30608238D02*
X55196428Y-30560619D01*
X55196428Y-30560619D02*
X55005952Y-30560619D01*
X55005952Y-30560619D02*
X54910714Y-30608238D01*
X54910714Y-30608238D02*
X54863095Y-30655857D01*
X54863095Y-30655857D02*
X54815476Y-30751095D01*
X54815476Y-30751095D02*
X54815476Y-30798714D01*
X54815476Y-30798714D02*
X54863095Y-30893952D01*
X54863095Y-30893952D02*
X54910714Y-30941571D01*
X54910714Y-30941571D02*
X55005952Y-30989190D01*
X55005952Y-30989190D02*
X55196428Y-30989190D01*
X55196428Y-30989190D02*
X55291666Y-31036809D01*
X55291666Y-31036809D02*
X55339285Y-31084428D01*
X55339285Y-31084428D02*
X55386904Y-31179666D01*
X55386904Y-31179666D02*
X55386904Y-31370142D01*
X55386904Y-31370142D02*
X55339285Y-31465380D01*
X55339285Y-31465380D02*
X55291666Y-31513000D01*
X55291666Y-31513000D02*
X55196428Y-31560619D01*
X55196428Y-31560619D02*
X55005952Y-31560619D01*
X55005952Y-31560619D02*
X54910714Y-31513000D01*
X54910714Y-31513000D02*
X54863095Y-31465380D01*
X54863095Y-31465380D02*
X54815476Y-31370142D01*
X54815476Y-31370142D02*
X54815476Y-31179666D01*
X54815476Y-31179666D02*
X54863095Y-31084428D01*
X54863095Y-31084428D02*
X54910714Y-31036809D01*
X54910714Y-31036809D02*
X55005952Y-30989190D01*
X77436904Y-31560619D02*
X77436904Y-30560619D01*
X77436904Y-30560619D02*
X77103571Y-31274904D01*
X77103571Y-31274904D02*
X76770238Y-30560619D01*
X76770238Y-30560619D02*
X76770238Y-31560619D01*
X76389285Y-30560619D02*
X75722619Y-31560619D01*
X75722619Y-30560619D02*
X76389285Y-31560619D01*
X74817857Y-31560619D02*
X75389285Y-31560619D01*
X75103571Y-31560619D02*
X75103571Y-30560619D01*
X75103571Y-30560619D02*
X75198809Y-30703476D01*
X75198809Y-30703476D02*
X75294047Y-30798714D01*
X75294047Y-30798714D02*
X75389285Y-30846333D01*
X74341666Y-31560619D02*
X74151190Y-31560619D01*
X74151190Y-31560619D02*
X74055952Y-31513000D01*
X74055952Y-31513000D02*
X74008333Y-31465380D01*
X74008333Y-31465380D02*
X73913095Y-31322523D01*
X73913095Y-31322523D02*
X73865476Y-31132047D01*
X73865476Y-31132047D02*
X73865476Y-30751095D01*
X73865476Y-30751095D02*
X73913095Y-30655857D01*
X73913095Y-30655857D02*
X73960714Y-30608238D01*
X73960714Y-30608238D02*
X74055952Y-30560619D01*
X74055952Y-30560619D02*
X74246428Y-30560619D01*
X74246428Y-30560619D02*
X74341666Y-30608238D01*
X74341666Y-30608238D02*
X74389285Y-30655857D01*
X74389285Y-30655857D02*
X74436904Y-30751095D01*
X74436904Y-30751095D02*
X74436904Y-30989190D01*
X74436904Y-30989190D02*
X74389285Y-31084428D01*
X74389285Y-31084428D02*
X74341666Y-31132047D01*
X74341666Y-31132047D02*
X74246428Y-31179666D01*
X74246428Y-31179666D02*
X74055952Y-31179666D01*
X74055952Y-31179666D02*
X73960714Y-31132047D01*
X73960714Y-31132047D02*
X73913095Y-31084428D01*
X73913095Y-31084428D02*
X73865476Y-30989190D01*
X96486904Y-31560619D02*
X96486904Y-30560619D01*
X96486904Y-30560619D02*
X96153571Y-31274904D01*
X96153571Y-31274904D02*
X95820238Y-30560619D01*
X95820238Y-30560619D02*
X95820238Y-31560619D01*
X95439285Y-30560619D02*
X94772619Y-31560619D01*
X94772619Y-30560619D02*
X95439285Y-31560619D01*
X94439285Y-30655857D02*
X94391666Y-30608238D01*
X94391666Y-30608238D02*
X94296428Y-30560619D01*
X94296428Y-30560619D02*
X94058333Y-30560619D01*
X94058333Y-30560619D02*
X93963095Y-30608238D01*
X93963095Y-30608238D02*
X93915476Y-30655857D01*
X93915476Y-30655857D02*
X93867857Y-30751095D01*
X93867857Y-30751095D02*
X93867857Y-30846333D01*
X93867857Y-30846333D02*
X93915476Y-30989190D01*
X93915476Y-30989190D02*
X94486904Y-31560619D01*
X94486904Y-31560619D02*
X93867857Y-31560619D01*
X93248809Y-30560619D02*
X93153571Y-30560619D01*
X93153571Y-30560619D02*
X93058333Y-30608238D01*
X93058333Y-30608238D02*
X93010714Y-30655857D01*
X93010714Y-30655857D02*
X92963095Y-30751095D01*
X92963095Y-30751095D02*
X92915476Y-30941571D01*
X92915476Y-30941571D02*
X92915476Y-31179666D01*
X92915476Y-31179666D02*
X92963095Y-31370142D01*
X92963095Y-31370142D02*
X93010714Y-31465380D01*
X93010714Y-31465380D02*
X93058333Y-31513000D01*
X93058333Y-31513000D02*
X93153571Y-31560619D01*
X93153571Y-31560619D02*
X93248809Y-31560619D01*
X93248809Y-31560619D02*
X93344047Y-31513000D01*
X93344047Y-31513000D02*
X93391666Y-31465380D01*
X93391666Y-31465380D02*
X93439285Y-31370142D01*
X93439285Y-31370142D02*
X93486904Y-31179666D01*
X93486904Y-31179666D02*
X93486904Y-30941571D01*
X93486904Y-30941571D02*
X93439285Y-30751095D01*
X93439285Y-30751095D02*
X93391666Y-30655857D01*
X93391666Y-30655857D02*
X93344047Y-30608238D01*
X93344047Y-30608238D02*
X93248809Y-30560619D01*
X134586904Y-31560619D02*
X134586904Y-30560619D01*
X134586904Y-30560619D02*
X134253571Y-31274904D01*
X134253571Y-31274904D02*
X133920238Y-30560619D01*
X133920238Y-30560619D02*
X133920238Y-31560619D01*
X133539285Y-30560619D02*
X132872619Y-31560619D01*
X132872619Y-30560619D02*
X133539285Y-31560619D01*
X132539285Y-30655857D02*
X132491666Y-30608238D01*
X132491666Y-30608238D02*
X132396428Y-30560619D01*
X132396428Y-30560619D02*
X132158333Y-30560619D01*
X132158333Y-30560619D02*
X132063095Y-30608238D01*
X132063095Y-30608238D02*
X132015476Y-30655857D01*
X132015476Y-30655857D02*
X131967857Y-30751095D01*
X131967857Y-30751095D02*
X131967857Y-30846333D01*
X131967857Y-30846333D02*
X132015476Y-30989190D01*
X132015476Y-30989190D02*
X132586904Y-31560619D01*
X132586904Y-31560619D02*
X131967857Y-31560619D01*
X131586904Y-30655857D02*
X131539285Y-30608238D01*
X131539285Y-30608238D02*
X131444047Y-30560619D01*
X131444047Y-30560619D02*
X131205952Y-30560619D01*
X131205952Y-30560619D02*
X131110714Y-30608238D01*
X131110714Y-30608238D02*
X131063095Y-30655857D01*
X131063095Y-30655857D02*
X131015476Y-30751095D01*
X131015476Y-30751095D02*
X131015476Y-30846333D01*
X131015476Y-30846333D02*
X131063095Y-30989190D01*
X131063095Y-30989190D02*
X131634523Y-31560619D01*
X131634523Y-31560619D02*
X131015476Y-31560619D01*
X153636904Y-31560619D02*
X153636904Y-30560619D01*
X153636904Y-30560619D02*
X153303571Y-31274904D01*
X153303571Y-31274904D02*
X152970238Y-30560619D01*
X152970238Y-30560619D02*
X152970238Y-31560619D01*
X152589285Y-30560619D02*
X151922619Y-31560619D01*
X151922619Y-30560619D02*
X152589285Y-31560619D01*
X151589285Y-30655857D02*
X151541666Y-30608238D01*
X151541666Y-30608238D02*
X151446428Y-30560619D01*
X151446428Y-30560619D02*
X151208333Y-30560619D01*
X151208333Y-30560619D02*
X151113095Y-30608238D01*
X151113095Y-30608238D02*
X151065476Y-30655857D01*
X151065476Y-30655857D02*
X151017857Y-30751095D01*
X151017857Y-30751095D02*
X151017857Y-30846333D01*
X151017857Y-30846333D02*
X151065476Y-30989190D01*
X151065476Y-30989190D02*
X151636904Y-31560619D01*
X151636904Y-31560619D02*
X151017857Y-31560619D01*
X150684523Y-30560619D02*
X150065476Y-30560619D01*
X150065476Y-30560619D02*
X150398809Y-30941571D01*
X150398809Y-30941571D02*
X150255952Y-30941571D01*
X150255952Y-30941571D02*
X150160714Y-30989190D01*
X150160714Y-30989190D02*
X150113095Y-31036809D01*
X150113095Y-31036809D02*
X150065476Y-31132047D01*
X150065476Y-31132047D02*
X150065476Y-31370142D01*
X150065476Y-31370142D02*
X150113095Y-31465380D01*
X150113095Y-31465380D02*
X150160714Y-31513000D01*
X150160714Y-31513000D02*
X150255952Y-31560619D01*
X150255952Y-31560619D02*
X150541666Y-31560619D01*
X150541666Y-31560619D02*
X150636904Y-31513000D01*
X150636904Y-31513000D02*
X150684523Y-31465380D01*
X172686904Y-31560619D02*
X172686904Y-30560619D01*
X172686904Y-30560619D02*
X172353571Y-31274904D01*
X172353571Y-31274904D02*
X172020238Y-30560619D01*
X172020238Y-30560619D02*
X172020238Y-31560619D01*
X171639285Y-30560619D02*
X170972619Y-31560619D01*
X170972619Y-30560619D02*
X171639285Y-31560619D01*
X170639285Y-30655857D02*
X170591666Y-30608238D01*
X170591666Y-30608238D02*
X170496428Y-30560619D01*
X170496428Y-30560619D02*
X170258333Y-30560619D01*
X170258333Y-30560619D02*
X170163095Y-30608238D01*
X170163095Y-30608238D02*
X170115476Y-30655857D01*
X170115476Y-30655857D02*
X170067857Y-30751095D01*
X170067857Y-30751095D02*
X170067857Y-30846333D01*
X170067857Y-30846333D02*
X170115476Y-30989190D01*
X170115476Y-30989190D02*
X170686904Y-31560619D01*
X170686904Y-31560619D02*
X170067857Y-31560619D01*
X169210714Y-30893952D02*
X169210714Y-31560619D01*
X169448809Y-30513000D02*
X169686904Y-31227285D01*
X169686904Y-31227285D02*
X169067857Y-31227285D01*
X191736904Y-31560619D02*
X191736904Y-30560619D01*
X191736904Y-30560619D02*
X191403571Y-31274904D01*
X191403571Y-31274904D02*
X191070238Y-30560619D01*
X191070238Y-30560619D02*
X191070238Y-31560619D01*
X190689285Y-30560619D02*
X190022619Y-31560619D01*
X190022619Y-30560619D02*
X190689285Y-31560619D01*
X189689285Y-30655857D02*
X189641666Y-30608238D01*
X189641666Y-30608238D02*
X189546428Y-30560619D01*
X189546428Y-30560619D02*
X189308333Y-30560619D01*
X189308333Y-30560619D02*
X189213095Y-30608238D01*
X189213095Y-30608238D02*
X189165476Y-30655857D01*
X189165476Y-30655857D02*
X189117857Y-30751095D01*
X189117857Y-30751095D02*
X189117857Y-30846333D01*
X189117857Y-30846333D02*
X189165476Y-30989190D01*
X189165476Y-30989190D02*
X189736904Y-31560619D01*
X189736904Y-31560619D02*
X189117857Y-31560619D01*
X188213095Y-30560619D02*
X188689285Y-30560619D01*
X188689285Y-30560619D02*
X188736904Y-31036809D01*
X188736904Y-31036809D02*
X188689285Y-30989190D01*
X188689285Y-30989190D02*
X188594047Y-30941571D01*
X188594047Y-30941571D02*
X188355952Y-30941571D01*
X188355952Y-30941571D02*
X188260714Y-30989190D01*
X188260714Y-30989190D02*
X188213095Y-31036809D01*
X188213095Y-31036809D02*
X188165476Y-31132047D01*
X188165476Y-31132047D02*
X188165476Y-31370142D01*
X188165476Y-31370142D02*
X188213095Y-31465380D01*
X188213095Y-31465380D02*
X188260714Y-31513000D01*
X188260714Y-31513000D02*
X188355952Y-31560619D01*
X188355952Y-31560619D02*
X188594047Y-31560619D01*
X188594047Y-31560619D02*
X188689285Y-31513000D01*
X188689285Y-31513000D02*
X188736904Y-31465380D01*
X210786904Y-31560619D02*
X210786904Y-30560619D01*
X210786904Y-30560619D02*
X210453571Y-31274904D01*
X210453571Y-31274904D02*
X210120238Y-30560619D01*
X210120238Y-30560619D02*
X210120238Y-31560619D01*
X209739285Y-30560619D02*
X209072619Y-31560619D01*
X209072619Y-30560619D02*
X209739285Y-31560619D01*
X208739285Y-30655857D02*
X208691666Y-30608238D01*
X208691666Y-30608238D02*
X208596428Y-30560619D01*
X208596428Y-30560619D02*
X208358333Y-30560619D01*
X208358333Y-30560619D02*
X208263095Y-30608238D01*
X208263095Y-30608238D02*
X208215476Y-30655857D01*
X208215476Y-30655857D02*
X208167857Y-30751095D01*
X208167857Y-30751095D02*
X208167857Y-30846333D01*
X208167857Y-30846333D02*
X208215476Y-30989190D01*
X208215476Y-30989190D02*
X208786904Y-31560619D01*
X208786904Y-31560619D02*
X208167857Y-31560619D01*
X207310714Y-30560619D02*
X207501190Y-30560619D01*
X207501190Y-30560619D02*
X207596428Y-30608238D01*
X207596428Y-30608238D02*
X207644047Y-30655857D01*
X207644047Y-30655857D02*
X207739285Y-30798714D01*
X207739285Y-30798714D02*
X207786904Y-30989190D01*
X207786904Y-30989190D02*
X207786904Y-31370142D01*
X207786904Y-31370142D02*
X207739285Y-31465380D01*
X207739285Y-31465380D02*
X207691666Y-31513000D01*
X207691666Y-31513000D02*
X207596428Y-31560619D01*
X207596428Y-31560619D02*
X207405952Y-31560619D01*
X207405952Y-31560619D02*
X207310714Y-31513000D01*
X207310714Y-31513000D02*
X207263095Y-31465380D01*
X207263095Y-31465380D02*
X207215476Y-31370142D01*
X207215476Y-31370142D02*
X207215476Y-31132047D01*
X207215476Y-31132047D02*
X207263095Y-31036809D01*
X207263095Y-31036809D02*
X207310714Y-30989190D01*
X207310714Y-30989190D02*
X207405952Y-30941571D01*
X207405952Y-30941571D02*
X207596428Y-30941571D01*
X207596428Y-30941571D02*
X207691666Y-30989190D01*
X207691666Y-30989190D02*
X207739285Y-31036809D01*
X207739285Y-31036809D02*
X207786904Y-31132047D01*
X229836904Y-31560619D02*
X229836904Y-30560619D01*
X229836904Y-30560619D02*
X229503571Y-31274904D01*
X229503571Y-31274904D02*
X229170238Y-30560619D01*
X229170238Y-30560619D02*
X229170238Y-31560619D01*
X228789285Y-30560619D02*
X228122619Y-31560619D01*
X228122619Y-30560619D02*
X228789285Y-31560619D01*
X227789285Y-30655857D02*
X227741666Y-30608238D01*
X227741666Y-30608238D02*
X227646428Y-30560619D01*
X227646428Y-30560619D02*
X227408333Y-30560619D01*
X227408333Y-30560619D02*
X227313095Y-30608238D01*
X227313095Y-30608238D02*
X227265476Y-30655857D01*
X227265476Y-30655857D02*
X227217857Y-30751095D01*
X227217857Y-30751095D02*
X227217857Y-30846333D01*
X227217857Y-30846333D02*
X227265476Y-30989190D01*
X227265476Y-30989190D02*
X227836904Y-31560619D01*
X227836904Y-31560619D02*
X227217857Y-31560619D01*
X226884523Y-30560619D02*
X226217857Y-30560619D01*
X226217857Y-30560619D02*
X226646428Y-31560619D01*
X248886904Y-31560619D02*
X248886904Y-30560619D01*
X248886904Y-30560619D02*
X248553571Y-31274904D01*
X248553571Y-31274904D02*
X248220238Y-30560619D01*
X248220238Y-30560619D02*
X248220238Y-31560619D01*
X247839285Y-30560619D02*
X247172619Y-31560619D01*
X247172619Y-30560619D02*
X247839285Y-31560619D01*
X246839285Y-30655857D02*
X246791666Y-30608238D01*
X246791666Y-30608238D02*
X246696428Y-30560619D01*
X246696428Y-30560619D02*
X246458333Y-30560619D01*
X246458333Y-30560619D02*
X246363095Y-30608238D01*
X246363095Y-30608238D02*
X246315476Y-30655857D01*
X246315476Y-30655857D02*
X246267857Y-30751095D01*
X246267857Y-30751095D02*
X246267857Y-30846333D01*
X246267857Y-30846333D02*
X246315476Y-30989190D01*
X246315476Y-30989190D02*
X246886904Y-31560619D01*
X246886904Y-31560619D02*
X246267857Y-31560619D01*
X245696428Y-30989190D02*
X245791666Y-30941571D01*
X245791666Y-30941571D02*
X245839285Y-30893952D01*
X245839285Y-30893952D02*
X245886904Y-30798714D01*
X245886904Y-30798714D02*
X245886904Y-30751095D01*
X245886904Y-30751095D02*
X245839285Y-30655857D01*
X245839285Y-30655857D02*
X245791666Y-30608238D01*
X245791666Y-30608238D02*
X245696428Y-30560619D01*
X245696428Y-30560619D02*
X245505952Y-30560619D01*
X245505952Y-30560619D02*
X245410714Y-30608238D01*
X245410714Y-30608238D02*
X245363095Y-30655857D01*
X245363095Y-30655857D02*
X245315476Y-30751095D01*
X245315476Y-30751095D02*
X245315476Y-30798714D01*
X245315476Y-30798714D02*
X245363095Y-30893952D01*
X245363095Y-30893952D02*
X245410714Y-30941571D01*
X245410714Y-30941571D02*
X245505952Y-30989190D01*
X245505952Y-30989190D02*
X245696428Y-30989190D01*
X245696428Y-30989190D02*
X245791666Y-31036809D01*
X245791666Y-31036809D02*
X245839285Y-31084428D01*
X245839285Y-31084428D02*
X245886904Y-31179666D01*
X245886904Y-31179666D02*
X245886904Y-31370142D01*
X245886904Y-31370142D02*
X245839285Y-31465380D01*
X245839285Y-31465380D02*
X245791666Y-31513000D01*
X245791666Y-31513000D02*
X245696428Y-31560619D01*
X245696428Y-31560619D02*
X245505952Y-31560619D01*
X245505952Y-31560619D02*
X245410714Y-31513000D01*
X245410714Y-31513000D02*
X245363095Y-31465380D01*
X245363095Y-31465380D02*
X245315476Y-31370142D01*
X245315476Y-31370142D02*
X245315476Y-31179666D01*
X245315476Y-31179666D02*
X245363095Y-31084428D01*
X245363095Y-31084428D02*
X245410714Y-31036809D01*
X245410714Y-31036809D02*
X245505952Y-30989190D01*
X272699404Y-31560619D02*
X272699404Y-30560619D01*
X272699404Y-30560619D02*
X272366071Y-31274904D01*
X272366071Y-31274904D02*
X272032738Y-30560619D01*
X272032738Y-30560619D02*
X272032738Y-31560619D01*
X271651785Y-30560619D02*
X270985119Y-31560619D01*
X270985119Y-30560619D02*
X271651785Y-31560619D01*
X270651785Y-30655857D02*
X270604166Y-30608238D01*
X270604166Y-30608238D02*
X270508928Y-30560619D01*
X270508928Y-30560619D02*
X270270833Y-30560619D01*
X270270833Y-30560619D02*
X270175595Y-30608238D01*
X270175595Y-30608238D02*
X270127976Y-30655857D01*
X270127976Y-30655857D02*
X270080357Y-30751095D01*
X270080357Y-30751095D02*
X270080357Y-30846333D01*
X270080357Y-30846333D02*
X270127976Y-30989190D01*
X270127976Y-30989190D02*
X270699404Y-31560619D01*
X270699404Y-31560619D02*
X270080357Y-31560619D01*
X269604166Y-31560619D02*
X269413690Y-31560619D01*
X269413690Y-31560619D02*
X269318452Y-31513000D01*
X269318452Y-31513000D02*
X269270833Y-31465380D01*
X269270833Y-31465380D02*
X269175595Y-31322523D01*
X269175595Y-31322523D02*
X269127976Y-31132047D01*
X269127976Y-31132047D02*
X269127976Y-30751095D01*
X269127976Y-30751095D02*
X269175595Y-30655857D01*
X269175595Y-30655857D02*
X269223214Y-30608238D01*
X269223214Y-30608238D02*
X269318452Y-30560619D01*
X269318452Y-30560619D02*
X269508928Y-30560619D01*
X269508928Y-30560619D02*
X269604166Y-30608238D01*
X269604166Y-30608238D02*
X269651785Y-30655857D01*
X269651785Y-30655857D02*
X269699404Y-30751095D01*
X269699404Y-30751095D02*
X269699404Y-30989190D01*
X269699404Y-30989190D02*
X269651785Y-31084428D01*
X269651785Y-31084428D02*
X269604166Y-31132047D01*
X269604166Y-31132047D02*
X269508928Y-31179666D01*
X269508928Y-31179666D02*
X269318452Y-31179666D01*
X269318452Y-31179666D02*
X269223214Y-31132047D01*
X269223214Y-31132047D02*
X269175595Y-31084428D01*
X269175595Y-31084428D02*
X269127976Y-30989190D01*
X17905654Y-50610619D02*
X17905654Y-49610619D01*
X17905654Y-49610619D02*
X17572321Y-50324904D01*
X17572321Y-50324904D02*
X17238988Y-49610619D01*
X17238988Y-49610619D02*
X17238988Y-50610619D01*
X16858035Y-49610619D02*
X16191369Y-50610619D01*
X16191369Y-49610619D02*
X16858035Y-50610619D01*
X15905654Y-49610619D02*
X15286607Y-49610619D01*
X15286607Y-49610619D02*
X15619940Y-49991571D01*
X15619940Y-49991571D02*
X15477083Y-49991571D01*
X15477083Y-49991571D02*
X15381845Y-50039190D01*
X15381845Y-50039190D02*
X15334226Y-50086809D01*
X15334226Y-50086809D02*
X15286607Y-50182047D01*
X15286607Y-50182047D02*
X15286607Y-50420142D01*
X15286607Y-50420142D02*
X15334226Y-50515380D01*
X15334226Y-50515380D02*
X15381845Y-50563000D01*
X15381845Y-50563000D02*
X15477083Y-50610619D01*
X15477083Y-50610619D02*
X15762797Y-50610619D01*
X15762797Y-50610619D02*
X15858035Y-50563000D01*
X15858035Y-50563000D02*
X15905654Y-50515380D01*
X14334226Y-50610619D02*
X14905654Y-50610619D01*
X14619940Y-50610619D02*
X14619940Y-49610619D01*
X14619940Y-49610619D02*
X14715178Y-49753476D01*
X14715178Y-49753476D02*
X14810416Y-49848714D01*
X14810416Y-49848714D02*
X14905654Y-49896333D01*
X44099404Y-50610619D02*
X44099404Y-49610619D01*
X44099404Y-49610619D02*
X43766071Y-50324904D01*
X43766071Y-50324904D02*
X43432738Y-49610619D01*
X43432738Y-49610619D02*
X43432738Y-50610619D01*
X43051785Y-49610619D02*
X42385119Y-50610619D01*
X42385119Y-49610619D02*
X43051785Y-50610619D01*
X42099404Y-49610619D02*
X41480357Y-49610619D01*
X41480357Y-49610619D02*
X41813690Y-49991571D01*
X41813690Y-49991571D02*
X41670833Y-49991571D01*
X41670833Y-49991571D02*
X41575595Y-50039190D01*
X41575595Y-50039190D02*
X41527976Y-50086809D01*
X41527976Y-50086809D02*
X41480357Y-50182047D01*
X41480357Y-50182047D02*
X41480357Y-50420142D01*
X41480357Y-50420142D02*
X41527976Y-50515380D01*
X41527976Y-50515380D02*
X41575595Y-50563000D01*
X41575595Y-50563000D02*
X41670833Y-50610619D01*
X41670833Y-50610619D02*
X41956547Y-50610619D01*
X41956547Y-50610619D02*
X42051785Y-50563000D01*
X42051785Y-50563000D02*
X42099404Y-50515380D01*
X41099404Y-49705857D02*
X41051785Y-49658238D01*
X41051785Y-49658238D02*
X40956547Y-49610619D01*
X40956547Y-49610619D02*
X40718452Y-49610619D01*
X40718452Y-49610619D02*
X40623214Y-49658238D01*
X40623214Y-49658238D02*
X40575595Y-49705857D01*
X40575595Y-49705857D02*
X40527976Y-49801095D01*
X40527976Y-49801095D02*
X40527976Y-49896333D01*
X40527976Y-49896333D02*
X40575595Y-50039190D01*
X40575595Y-50039190D02*
X41147023Y-50610619D01*
X41147023Y-50610619D02*
X40527976Y-50610619D01*
X63149404Y-50610619D02*
X63149404Y-49610619D01*
X63149404Y-49610619D02*
X62816071Y-50324904D01*
X62816071Y-50324904D02*
X62482738Y-49610619D01*
X62482738Y-49610619D02*
X62482738Y-50610619D01*
X62101785Y-49610619D02*
X61435119Y-50610619D01*
X61435119Y-49610619D02*
X62101785Y-50610619D01*
X61149404Y-49610619D02*
X60530357Y-49610619D01*
X60530357Y-49610619D02*
X60863690Y-49991571D01*
X60863690Y-49991571D02*
X60720833Y-49991571D01*
X60720833Y-49991571D02*
X60625595Y-50039190D01*
X60625595Y-50039190D02*
X60577976Y-50086809D01*
X60577976Y-50086809D02*
X60530357Y-50182047D01*
X60530357Y-50182047D02*
X60530357Y-50420142D01*
X60530357Y-50420142D02*
X60577976Y-50515380D01*
X60577976Y-50515380D02*
X60625595Y-50563000D01*
X60625595Y-50563000D02*
X60720833Y-50610619D01*
X60720833Y-50610619D02*
X61006547Y-50610619D01*
X61006547Y-50610619D02*
X61101785Y-50563000D01*
X61101785Y-50563000D02*
X61149404Y-50515380D01*
X60197023Y-49610619D02*
X59577976Y-49610619D01*
X59577976Y-49610619D02*
X59911309Y-49991571D01*
X59911309Y-49991571D02*
X59768452Y-49991571D01*
X59768452Y-49991571D02*
X59673214Y-50039190D01*
X59673214Y-50039190D02*
X59625595Y-50086809D01*
X59625595Y-50086809D02*
X59577976Y-50182047D01*
X59577976Y-50182047D02*
X59577976Y-50420142D01*
X59577976Y-50420142D02*
X59625595Y-50515380D01*
X59625595Y-50515380D02*
X59673214Y-50563000D01*
X59673214Y-50563000D02*
X59768452Y-50610619D01*
X59768452Y-50610619D02*
X60054166Y-50610619D01*
X60054166Y-50610619D02*
X60149404Y-50563000D01*
X60149404Y-50563000D02*
X60197023Y-50515380D01*
X82199404Y-50610619D02*
X82199404Y-49610619D01*
X82199404Y-49610619D02*
X81866071Y-50324904D01*
X81866071Y-50324904D02*
X81532738Y-49610619D01*
X81532738Y-49610619D02*
X81532738Y-50610619D01*
X81151785Y-49610619D02*
X80485119Y-50610619D01*
X80485119Y-49610619D02*
X81151785Y-50610619D01*
X80199404Y-49610619D02*
X79580357Y-49610619D01*
X79580357Y-49610619D02*
X79913690Y-49991571D01*
X79913690Y-49991571D02*
X79770833Y-49991571D01*
X79770833Y-49991571D02*
X79675595Y-50039190D01*
X79675595Y-50039190D02*
X79627976Y-50086809D01*
X79627976Y-50086809D02*
X79580357Y-50182047D01*
X79580357Y-50182047D02*
X79580357Y-50420142D01*
X79580357Y-50420142D02*
X79627976Y-50515380D01*
X79627976Y-50515380D02*
X79675595Y-50563000D01*
X79675595Y-50563000D02*
X79770833Y-50610619D01*
X79770833Y-50610619D02*
X80056547Y-50610619D01*
X80056547Y-50610619D02*
X80151785Y-50563000D01*
X80151785Y-50563000D02*
X80199404Y-50515380D01*
X78723214Y-49943952D02*
X78723214Y-50610619D01*
X78961309Y-49563000D02*
X79199404Y-50277285D01*
X79199404Y-50277285D02*
X78580357Y-50277285D01*
X101249404Y-50610619D02*
X101249404Y-49610619D01*
X101249404Y-49610619D02*
X100916071Y-50324904D01*
X100916071Y-50324904D02*
X100582738Y-49610619D01*
X100582738Y-49610619D02*
X100582738Y-50610619D01*
X100201785Y-49610619D02*
X99535119Y-50610619D01*
X99535119Y-49610619D02*
X100201785Y-50610619D01*
X99249404Y-49610619D02*
X98630357Y-49610619D01*
X98630357Y-49610619D02*
X98963690Y-49991571D01*
X98963690Y-49991571D02*
X98820833Y-49991571D01*
X98820833Y-49991571D02*
X98725595Y-50039190D01*
X98725595Y-50039190D02*
X98677976Y-50086809D01*
X98677976Y-50086809D02*
X98630357Y-50182047D01*
X98630357Y-50182047D02*
X98630357Y-50420142D01*
X98630357Y-50420142D02*
X98677976Y-50515380D01*
X98677976Y-50515380D02*
X98725595Y-50563000D01*
X98725595Y-50563000D02*
X98820833Y-50610619D01*
X98820833Y-50610619D02*
X99106547Y-50610619D01*
X99106547Y-50610619D02*
X99201785Y-50563000D01*
X99201785Y-50563000D02*
X99249404Y-50515380D01*
X97725595Y-49610619D02*
X98201785Y-49610619D01*
X98201785Y-49610619D02*
X98249404Y-50086809D01*
X98249404Y-50086809D02*
X98201785Y-50039190D01*
X98201785Y-50039190D02*
X98106547Y-49991571D01*
X98106547Y-49991571D02*
X97868452Y-49991571D01*
X97868452Y-49991571D02*
X97773214Y-50039190D01*
X97773214Y-50039190D02*
X97725595Y-50086809D01*
X97725595Y-50086809D02*
X97677976Y-50182047D01*
X97677976Y-50182047D02*
X97677976Y-50420142D01*
X97677976Y-50420142D02*
X97725595Y-50515380D01*
X97725595Y-50515380D02*
X97773214Y-50563000D01*
X97773214Y-50563000D02*
X97868452Y-50610619D01*
X97868452Y-50610619D02*
X98106547Y-50610619D01*
X98106547Y-50610619D02*
X98201785Y-50563000D01*
X98201785Y-50563000D02*
X98249404Y-50515380D01*
X120299404Y-50610619D02*
X120299404Y-49610619D01*
X120299404Y-49610619D02*
X119966071Y-50324904D01*
X119966071Y-50324904D02*
X119632738Y-49610619D01*
X119632738Y-49610619D02*
X119632738Y-50610619D01*
X119251785Y-49610619D02*
X118585119Y-50610619D01*
X118585119Y-49610619D02*
X119251785Y-50610619D01*
X118299404Y-49610619D02*
X117680357Y-49610619D01*
X117680357Y-49610619D02*
X118013690Y-49991571D01*
X118013690Y-49991571D02*
X117870833Y-49991571D01*
X117870833Y-49991571D02*
X117775595Y-50039190D01*
X117775595Y-50039190D02*
X117727976Y-50086809D01*
X117727976Y-50086809D02*
X117680357Y-50182047D01*
X117680357Y-50182047D02*
X117680357Y-50420142D01*
X117680357Y-50420142D02*
X117727976Y-50515380D01*
X117727976Y-50515380D02*
X117775595Y-50563000D01*
X117775595Y-50563000D02*
X117870833Y-50610619D01*
X117870833Y-50610619D02*
X118156547Y-50610619D01*
X118156547Y-50610619D02*
X118251785Y-50563000D01*
X118251785Y-50563000D02*
X118299404Y-50515380D01*
X116823214Y-49610619D02*
X117013690Y-49610619D01*
X117013690Y-49610619D02*
X117108928Y-49658238D01*
X117108928Y-49658238D02*
X117156547Y-49705857D01*
X117156547Y-49705857D02*
X117251785Y-49848714D01*
X117251785Y-49848714D02*
X117299404Y-50039190D01*
X117299404Y-50039190D02*
X117299404Y-50420142D01*
X117299404Y-50420142D02*
X117251785Y-50515380D01*
X117251785Y-50515380D02*
X117204166Y-50563000D01*
X117204166Y-50563000D02*
X117108928Y-50610619D01*
X117108928Y-50610619D02*
X116918452Y-50610619D01*
X116918452Y-50610619D02*
X116823214Y-50563000D01*
X116823214Y-50563000D02*
X116775595Y-50515380D01*
X116775595Y-50515380D02*
X116727976Y-50420142D01*
X116727976Y-50420142D02*
X116727976Y-50182047D01*
X116727976Y-50182047D02*
X116775595Y-50086809D01*
X116775595Y-50086809D02*
X116823214Y-50039190D01*
X116823214Y-50039190D02*
X116918452Y-49991571D01*
X116918452Y-49991571D02*
X117108928Y-49991571D01*
X117108928Y-49991571D02*
X117204166Y-50039190D01*
X117204166Y-50039190D02*
X117251785Y-50086809D01*
X117251785Y-50086809D02*
X117299404Y-50182047D01*
X139349404Y-50610619D02*
X139349404Y-49610619D01*
X139349404Y-49610619D02*
X139016071Y-50324904D01*
X139016071Y-50324904D02*
X138682738Y-49610619D01*
X138682738Y-49610619D02*
X138682738Y-50610619D01*
X138301785Y-49610619D02*
X137635119Y-50610619D01*
X137635119Y-49610619D02*
X138301785Y-50610619D01*
X137349404Y-49610619D02*
X136730357Y-49610619D01*
X136730357Y-49610619D02*
X137063690Y-49991571D01*
X137063690Y-49991571D02*
X136920833Y-49991571D01*
X136920833Y-49991571D02*
X136825595Y-50039190D01*
X136825595Y-50039190D02*
X136777976Y-50086809D01*
X136777976Y-50086809D02*
X136730357Y-50182047D01*
X136730357Y-50182047D02*
X136730357Y-50420142D01*
X136730357Y-50420142D02*
X136777976Y-50515380D01*
X136777976Y-50515380D02*
X136825595Y-50563000D01*
X136825595Y-50563000D02*
X136920833Y-50610619D01*
X136920833Y-50610619D02*
X137206547Y-50610619D01*
X137206547Y-50610619D02*
X137301785Y-50563000D01*
X137301785Y-50563000D02*
X137349404Y-50515380D01*
X136397023Y-49610619D02*
X135730357Y-49610619D01*
X135730357Y-49610619D02*
X136158928Y-50610619D01*
X158399404Y-50610619D02*
X158399404Y-49610619D01*
X158399404Y-49610619D02*
X158066071Y-50324904D01*
X158066071Y-50324904D02*
X157732738Y-49610619D01*
X157732738Y-49610619D02*
X157732738Y-50610619D01*
X157351785Y-49610619D02*
X156685119Y-50610619D01*
X156685119Y-49610619D02*
X157351785Y-50610619D01*
X156399404Y-49610619D02*
X155780357Y-49610619D01*
X155780357Y-49610619D02*
X156113690Y-49991571D01*
X156113690Y-49991571D02*
X155970833Y-49991571D01*
X155970833Y-49991571D02*
X155875595Y-50039190D01*
X155875595Y-50039190D02*
X155827976Y-50086809D01*
X155827976Y-50086809D02*
X155780357Y-50182047D01*
X155780357Y-50182047D02*
X155780357Y-50420142D01*
X155780357Y-50420142D02*
X155827976Y-50515380D01*
X155827976Y-50515380D02*
X155875595Y-50563000D01*
X155875595Y-50563000D02*
X155970833Y-50610619D01*
X155970833Y-50610619D02*
X156256547Y-50610619D01*
X156256547Y-50610619D02*
X156351785Y-50563000D01*
X156351785Y-50563000D02*
X156399404Y-50515380D01*
X155208928Y-50039190D02*
X155304166Y-49991571D01*
X155304166Y-49991571D02*
X155351785Y-49943952D01*
X155351785Y-49943952D02*
X155399404Y-49848714D01*
X155399404Y-49848714D02*
X155399404Y-49801095D01*
X155399404Y-49801095D02*
X155351785Y-49705857D01*
X155351785Y-49705857D02*
X155304166Y-49658238D01*
X155304166Y-49658238D02*
X155208928Y-49610619D01*
X155208928Y-49610619D02*
X155018452Y-49610619D01*
X155018452Y-49610619D02*
X154923214Y-49658238D01*
X154923214Y-49658238D02*
X154875595Y-49705857D01*
X154875595Y-49705857D02*
X154827976Y-49801095D01*
X154827976Y-49801095D02*
X154827976Y-49848714D01*
X154827976Y-49848714D02*
X154875595Y-49943952D01*
X154875595Y-49943952D02*
X154923214Y-49991571D01*
X154923214Y-49991571D02*
X155018452Y-50039190D01*
X155018452Y-50039190D02*
X155208928Y-50039190D01*
X155208928Y-50039190D02*
X155304166Y-50086809D01*
X155304166Y-50086809D02*
X155351785Y-50134428D01*
X155351785Y-50134428D02*
X155399404Y-50229666D01*
X155399404Y-50229666D02*
X155399404Y-50420142D01*
X155399404Y-50420142D02*
X155351785Y-50515380D01*
X155351785Y-50515380D02*
X155304166Y-50563000D01*
X155304166Y-50563000D02*
X155208928Y-50610619D01*
X155208928Y-50610619D02*
X155018452Y-50610619D01*
X155018452Y-50610619D02*
X154923214Y-50563000D01*
X154923214Y-50563000D02*
X154875595Y-50515380D01*
X154875595Y-50515380D02*
X154827976Y-50420142D01*
X154827976Y-50420142D02*
X154827976Y-50229666D01*
X154827976Y-50229666D02*
X154875595Y-50134428D01*
X154875595Y-50134428D02*
X154923214Y-50086809D01*
X154923214Y-50086809D02*
X155018452Y-50039190D01*
X177449404Y-50610619D02*
X177449404Y-49610619D01*
X177449404Y-49610619D02*
X177116071Y-50324904D01*
X177116071Y-50324904D02*
X176782738Y-49610619D01*
X176782738Y-49610619D02*
X176782738Y-50610619D01*
X176401785Y-49610619D02*
X175735119Y-50610619D01*
X175735119Y-49610619D02*
X176401785Y-50610619D01*
X175449404Y-49610619D02*
X174830357Y-49610619D01*
X174830357Y-49610619D02*
X175163690Y-49991571D01*
X175163690Y-49991571D02*
X175020833Y-49991571D01*
X175020833Y-49991571D02*
X174925595Y-50039190D01*
X174925595Y-50039190D02*
X174877976Y-50086809D01*
X174877976Y-50086809D02*
X174830357Y-50182047D01*
X174830357Y-50182047D02*
X174830357Y-50420142D01*
X174830357Y-50420142D02*
X174877976Y-50515380D01*
X174877976Y-50515380D02*
X174925595Y-50563000D01*
X174925595Y-50563000D02*
X175020833Y-50610619D01*
X175020833Y-50610619D02*
X175306547Y-50610619D01*
X175306547Y-50610619D02*
X175401785Y-50563000D01*
X175401785Y-50563000D02*
X175449404Y-50515380D01*
X174354166Y-50610619D02*
X174163690Y-50610619D01*
X174163690Y-50610619D02*
X174068452Y-50563000D01*
X174068452Y-50563000D02*
X174020833Y-50515380D01*
X174020833Y-50515380D02*
X173925595Y-50372523D01*
X173925595Y-50372523D02*
X173877976Y-50182047D01*
X173877976Y-50182047D02*
X173877976Y-49801095D01*
X173877976Y-49801095D02*
X173925595Y-49705857D01*
X173925595Y-49705857D02*
X173973214Y-49658238D01*
X173973214Y-49658238D02*
X174068452Y-49610619D01*
X174068452Y-49610619D02*
X174258928Y-49610619D01*
X174258928Y-49610619D02*
X174354166Y-49658238D01*
X174354166Y-49658238D02*
X174401785Y-49705857D01*
X174401785Y-49705857D02*
X174449404Y-49801095D01*
X174449404Y-49801095D02*
X174449404Y-50039190D01*
X174449404Y-50039190D02*
X174401785Y-50134428D01*
X174401785Y-50134428D02*
X174354166Y-50182047D01*
X174354166Y-50182047D02*
X174258928Y-50229666D01*
X174258928Y-50229666D02*
X174068452Y-50229666D01*
X174068452Y-50229666D02*
X173973214Y-50182047D01*
X173973214Y-50182047D02*
X173925595Y-50134428D01*
X173925595Y-50134428D02*
X173877976Y-50039190D01*
X196499404Y-50610619D02*
X196499404Y-49610619D01*
X196499404Y-49610619D02*
X196166071Y-50324904D01*
X196166071Y-50324904D02*
X195832738Y-49610619D01*
X195832738Y-49610619D02*
X195832738Y-50610619D01*
X195451785Y-49610619D02*
X194785119Y-50610619D01*
X194785119Y-49610619D02*
X195451785Y-50610619D01*
X193975595Y-49943952D02*
X193975595Y-50610619D01*
X194213690Y-49563000D02*
X194451785Y-50277285D01*
X194451785Y-50277285D02*
X193832738Y-50277285D01*
X193261309Y-49610619D02*
X193166071Y-49610619D01*
X193166071Y-49610619D02*
X193070833Y-49658238D01*
X193070833Y-49658238D02*
X193023214Y-49705857D01*
X193023214Y-49705857D02*
X192975595Y-49801095D01*
X192975595Y-49801095D02*
X192927976Y-49991571D01*
X192927976Y-49991571D02*
X192927976Y-50229666D01*
X192927976Y-50229666D02*
X192975595Y-50420142D01*
X192975595Y-50420142D02*
X193023214Y-50515380D01*
X193023214Y-50515380D02*
X193070833Y-50563000D01*
X193070833Y-50563000D02*
X193166071Y-50610619D01*
X193166071Y-50610619D02*
X193261309Y-50610619D01*
X193261309Y-50610619D02*
X193356547Y-50563000D01*
X193356547Y-50563000D02*
X193404166Y-50515380D01*
X193404166Y-50515380D02*
X193451785Y-50420142D01*
X193451785Y-50420142D02*
X193499404Y-50229666D01*
X193499404Y-50229666D02*
X193499404Y-49991571D01*
X193499404Y-49991571D02*
X193451785Y-49801095D01*
X193451785Y-49801095D02*
X193404166Y-49705857D01*
X193404166Y-49705857D02*
X193356547Y-49658238D01*
X193356547Y-49658238D02*
X193261309Y-49610619D01*
X215549404Y-50610619D02*
X215549404Y-49610619D01*
X215549404Y-49610619D02*
X215216071Y-50324904D01*
X215216071Y-50324904D02*
X214882738Y-49610619D01*
X214882738Y-49610619D02*
X214882738Y-50610619D01*
X214501785Y-49610619D02*
X213835119Y-50610619D01*
X213835119Y-49610619D02*
X214501785Y-50610619D01*
X213025595Y-49943952D02*
X213025595Y-50610619D01*
X213263690Y-49563000D02*
X213501785Y-50277285D01*
X213501785Y-50277285D02*
X212882738Y-50277285D01*
X211977976Y-50610619D02*
X212549404Y-50610619D01*
X212263690Y-50610619D02*
X212263690Y-49610619D01*
X212263690Y-49610619D02*
X212358928Y-49753476D01*
X212358928Y-49753476D02*
X212454166Y-49848714D01*
X212454166Y-49848714D02*
X212549404Y-49896333D01*
X234599404Y-50610619D02*
X234599404Y-49610619D01*
X234599404Y-49610619D02*
X234266071Y-50324904D01*
X234266071Y-50324904D02*
X233932738Y-49610619D01*
X233932738Y-49610619D02*
X233932738Y-50610619D01*
X233551785Y-49610619D02*
X232885119Y-50610619D01*
X232885119Y-49610619D02*
X233551785Y-50610619D01*
X232075595Y-49943952D02*
X232075595Y-50610619D01*
X232313690Y-49563000D02*
X232551785Y-50277285D01*
X232551785Y-50277285D02*
X231932738Y-50277285D01*
X231599404Y-49705857D02*
X231551785Y-49658238D01*
X231551785Y-49658238D02*
X231456547Y-49610619D01*
X231456547Y-49610619D02*
X231218452Y-49610619D01*
X231218452Y-49610619D02*
X231123214Y-49658238D01*
X231123214Y-49658238D02*
X231075595Y-49705857D01*
X231075595Y-49705857D02*
X231027976Y-49801095D01*
X231027976Y-49801095D02*
X231027976Y-49896333D01*
X231027976Y-49896333D02*
X231075595Y-50039190D01*
X231075595Y-50039190D02*
X231647023Y-50610619D01*
X231647023Y-50610619D02*
X231027976Y-50610619D01*
X265555654Y-50610619D02*
X265555654Y-49610619D01*
X265555654Y-49610619D02*
X265222321Y-50324904D01*
X265222321Y-50324904D02*
X264888988Y-49610619D01*
X264888988Y-49610619D02*
X264888988Y-50610619D01*
X264508035Y-49610619D02*
X263841369Y-50610619D01*
X263841369Y-49610619D02*
X264508035Y-50610619D01*
X263031845Y-49943952D02*
X263031845Y-50610619D01*
X263269940Y-49563000D02*
X263508035Y-50277285D01*
X263508035Y-50277285D02*
X262888988Y-50277285D01*
X262603273Y-49610619D02*
X261984226Y-49610619D01*
X261984226Y-49610619D02*
X262317559Y-49991571D01*
X262317559Y-49991571D02*
X262174702Y-49991571D01*
X262174702Y-49991571D02*
X262079464Y-50039190D01*
X262079464Y-50039190D02*
X262031845Y-50086809D01*
X262031845Y-50086809D02*
X261984226Y-50182047D01*
X261984226Y-50182047D02*
X261984226Y-50420142D01*
X261984226Y-50420142D02*
X262031845Y-50515380D01*
X262031845Y-50515380D02*
X262079464Y-50563000D01*
X262079464Y-50563000D02*
X262174702Y-50610619D01*
X262174702Y-50610619D02*
X262460416Y-50610619D01*
X262460416Y-50610619D02*
X262555654Y-50563000D01*
X262555654Y-50563000D02*
X262603273Y-50515380D01*
X22668154Y-69660619D02*
X22668154Y-68660619D01*
X22668154Y-68660619D02*
X22334821Y-69374904D01*
X22334821Y-69374904D02*
X22001488Y-68660619D01*
X22001488Y-68660619D02*
X22001488Y-69660619D01*
X21620535Y-68660619D02*
X20953869Y-69660619D01*
X20953869Y-68660619D02*
X21620535Y-69660619D01*
X20144345Y-68993952D02*
X20144345Y-69660619D01*
X20382440Y-68613000D02*
X20620535Y-69327285D01*
X20620535Y-69327285D02*
X20001488Y-69327285D01*
X19144345Y-68660619D02*
X19620535Y-68660619D01*
X19620535Y-68660619D02*
X19668154Y-69136809D01*
X19668154Y-69136809D02*
X19620535Y-69089190D01*
X19620535Y-69089190D02*
X19525297Y-69041571D01*
X19525297Y-69041571D02*
X19287202Y-69041571D01*
X19287202Y-69041571D02*
X19191964Y-69089190D01*
X19191964Y-69089190D02*
X19144345Y-69136809D01*
X19144345Y-69136809D02*
X19096726Y-69232047D01*
X19096726Y-69232047D02*
X19096726Y-69470142D01*
X19096726Y-69470142D02*
X19144345Y-69565380D01*
X19144345Y-69565380D02*
X19191964Y-69613000D01*
X19191964Y-69613000D02*
X19287202Y-69660619D01*
X19287202Y-69660619D02*
X19525297Y-69660619D01*
X19525297Y-69660619D02*
X19620535Y-69613000D01*
X19620535Y-69613000D02*
X19668154Y-69565380D01*
X53624404Y-69660619D02*
X53624404Y-68660619D01*
X53624404Y-68660619D02*
X53291071Y-69374904D01*
X53291071Y-69374904D02*
X52957738Y-68660619D01*
X52957738Y-68660619D02*
X52957738Y-69660619D01*
X52576785Y-68660619D02*
X51910119Y-69660619D01*
X51910119Y-68660619D02*
X52576785Y-69660619D01*
X51100595Y-68993952D02*
X51100595Y-69660619D01*
X51338690Y-68613000D02*
X51576785Y-69327285D01*
X51576785Y-69327285D02*
X50957738Y-69327285D01*
X50148214Y-68660619D02*
X50338690Y-68660619D01*
X50338690Y-68660619D02*
X50433928Y-68708238D01*
X50433928Y-68708238D02*
X50481547Y-68755857D01*
X50481547Y-68755857D02*
X50576785Y-68898714D01*
X50576785Y-68898714D02*
X50624404Y-69089190D01*
X50624404Y-69089190D02*
X50624404Y-69470142D01*
X50624404Y-69470142D02*
X50576785Y-69565380D01*
X50576785Y-69565380D02*
X50529166Y-69613000D01*
X50529166Y-69613000D02*
X50433928Y-69660619D01*
X50433928Y-69660619D02*
X50243452Y-69660619D01*
X50243452Y-69660619D02*
X50148214Y-69613000D01*
X50148214Y-69613000D02*
X50100595Y-69565380D01*
X50100595Y-69565380D02*
X50052976Y-69470142D01*
X50052976Y-69470142D02*
X50052976Y-69232047D01*
X50052976Y-69232047D02*
X50100595Y-69136809D01*
X50100595Y-69136809D02*
X50148214Y-69089190D01*
X50148214Y-69089190D02*
X50243452Y-69041571D01*
X50243452Y-69041571D02*
X50433928Y-69041571D01*
X50433928Y-69041571D02*
X50529166Y-69089190D01*
X50529166Y-69089190D02*
X50576785Y-69136809D01*
X50576785Y-69136809D02*
X50624404Y-69232047D01*
X72674404Y-69660619D02*
X72674404Y-68660619D01*
X72674404Y-68660619D02*
X72341071Y-69374904D01*
X72341071Y-69374904D02*
X72007738Y-68660619D01*
X72007738Y-68660619D02*
X72007738Y-69660619D01*
X71626785Y-68660619D02*
X70960119Y-69660619D01*
X70960119Y-68660619D02*
X71626785Y-69660619D01*
X70150595Y-68993952D02*
X70150595Y-69660619D01*
X70388690Y-68613000D02*
X70626785Y-69327285D01*
X70626785Y-69327285D02*
X70007738Y-69327285D01*
X69722023Y-68660619D02*
X69055357Y-68660619D01*
X69055357Y-68660619D02*
X69483928Y-69660619D01*
X91724404Y-69660619D02*
X91724404Y-68660619D01*
X91724404Y-68660619D02*
X91391071Y-69374904D01*
X91391071Y-69374904D02*
X91057738Y-68660619D01*
X91057738Y-68660619D02*
X91057738Y-69660619D01*
X90676785Y-68660619D02*
X90010119Y-69660619D01*
X90010119Y-68660619D02*
X90676785Y-69660619D01*
X89200595Y-68993952D02*
X89200595Y-69660619D01*
X89438690Y-68613000D02*
X89676785Y-69327285D01*
X89676785Y-69327285D02*
X89057738Y-69327285D01*
X88533928Y-69089190D02*
X88629166Y-69041571D01*
X88629166Y-69041571D02*
X88676785Y-68993952D01*
X88676785Y-68993952D02*
X88724404Y-68898714D01*
X88724404Y-68898714D02*
X88724404Y-68851095D01*
X88724404Y-68851095D02*
X88676785Y-68755857D01*
X88676785Y-68755857D02*
X88629166Y-68708238D01*
X88629166Y-68708238D02*
X88533928Y-68660619D01*
X88533928Y-68660619D02*
X88343452Y-68660619D01*
X88343452Y-68660619D02*
X88248214Y-68708238D01*
X88248214Y-68708238D02*
X88200595Y-68755857D01*
X88200595Y-68755857D02*
X88152976Y-68851095D01*
X88152976Y-68851095D02*
X88152976Y-68898714D01*
X88152976Y-68898714D02*
X88200595Y-68993952D01*
X88200595Y-68993952D02*
X88248214Y-69041571D01*
X88248214Y-69041571D02*
X88343452Y-69089190D01*
X88343452Y-69089190D02*
X88533928Y-69089190D01*
X88533928Y-69089190D02*
X88629166Y-69136809D01*
X88629166Y-69136809D02*
X88676785Y-69184428D01*
X88676785Y-69184428D02*
X88724404Y-69279666D01*
X88724404Y-69279666D02*
X88724404Y-69470142D01*
X88724404Y-69470142D02*
X88676785Y-69565380D01*
X88676785Y-69565380D02*
X88629166Y-69613000D01*
X88629166Y-69613000D02*
X88533928Y-69660619D01*
X88533928Y-69660619D02*
X88343452Y-69660619D01*
X88343452Y-69660619D02*
X88248214Y-69613000D01*
X88248214Y-69613000D02*
X88200595Y-69565380D01*
X88200595Y-69565380D02*
X88152976Y-69470142D01*
X88152976Y-69470142D02*
X88152976Y-69279666D01*
X88152976Y-69279666D02*
X88200595Y-69184428D01*
X88200595Y-69184428D02*
X88248214Y-69136809D01*
X88248214Y-69136809D02*
X88343452Y-69089190D01*
X110774404Y-69660619D02*
X110774404Y-68660619D01*
X110774404Y-68660619D02*
X110441071Y-69374904D01*
X110441071Y-69374904D02*
X110107738Y-68660619D01*
X110107738Y-68660619D02*
X110107738Y-69660619D01*
X109726785Y-68660619D02*
X109060119Y-69660619D01*
X109060119Y-68660619D02*
X109726785Y-69660619D01*
X108250595Y-68993952D02*
X108250595Y-69660619D01*
X108488690Y-68613000D02*
X108726785Y-69327285D01*
X108726785Y-69327285D02*
X108107738Y-69327285D01*
X107679166Y-69660619D02*
X107488690Y-69660619D01*
X107488690Y-69660619D02*
X107393452Y-69613000D01*
X107393452Y-69613000D02*
X107345833Y-69565380D01*
X107345833Y-69565380D02*
X107250595Y-69422523D01*
X107250595Y-69422523D02*
X107202976Y-69232047D01*
X107202976Y-69232047D02*
X107202976Y-68851095D01*
X107202976Y-68851095D02*
X107250595Y-68755857D01*
X107250595Y-68755857D02*
X107298214Y-68708238D01*
X107298214Y-68708238D02*
X107393452Y-68660619D01*
X107393452Y-68660619D02*
X107583928Y-68660619D01*
X107583928Y-68660619D02*
X107679166Y-68708238D01*
X107679166Y-68708238D02*
X107726785Y-68755857D01*
X107726785Y-68755857D02*
X107774404Y-68851095D01*
X107774404Y-68851095D02*
X107774404Y-69089190D01*
X107774404Y-69089190D02*
X107726785Y-69184428D01*
X107726785Y-69184428D02*
X107679166Y-69232047D01*
X107679166Y-69232047D02*
X107583928Y-69279666D01*
X107583928Y-69279666D02*
X107393452Y-69279666D01*
X107393452Y-69279666D02*
X107298214Y-69232047D01*
X107298214Y-69232047D02*
X107250595Y-69184428D01*
X107250595Y-69184428D02*
X107202976Y-69089190D01*
X129824404Y-69660619D02*
X129824404Y-68660619D01*
X129824404Y-68660619D02*
X129491071Y-69374904D01*
X129491071Y-69374904D02*
X129157738Y-68660619D01*
X129157738Y-68660619D02*
X129157738Y-69660619D01*
X128776785Y-68660619D02*
X128110119Y-69660619D01*
X128110119Y-68660619D02*
X128776785Y-69660619D01*
X127252976Y-68660619D02*
X127729166Y-68660619D01*
X127729166Y-68660619D02*
X127776785Y-69136809D01*
X127776785Y-69136809D02*
X127729166Y-69089190D01*
X127729166Y-69089190D02*
X127633928Y-69041571D01*
X127633928Y-69041571D02*
X127395833Y-69041571D01*
X127395833Y-69041571D02*
X127300595Y-69089190D01*
X127300595Y-69089190D02*
X127252976Y-69136809D01*
X127252976Y-69136809D02*
X127205357Y-69232047D01*
X127205357Y-69232047D02*
X127205357Y-69470142D01*
X127205357Y-69470142D02*
X127252976Y-69565380D01*
X127252976Y-69565380D02*
X127300595Y-69613000D01*
X127300595Y-69613000D02*
X127395833Y-69660619D01*
X127395833Y-69660619D02*
X127633928Y-69660619D01*
X127633928Y-69660619D02*
X127729166Y-69613000D01*
X127729166Y-69613000D02*
X127776785Y-69565380D01*
X126586309Y-68660619D02*
X126491071Y-68660619D01*
X126491071Y-68660619D02*
X126395833Y-68708238D01*
X126395833Y-68708238D02*
X126348214Y-68755857D01*
X126348214Y-68755857D02*
X126300595Y-68851095D01*
X126300595Y-68851095D02*
X126252976Y-69041571D01*
X126252976Y-69041571D02*
X126252976Y-69279666D01*
X126252976Y-69279666D02*
X126300595Y-69470142D01*
X126300595Y-69470142D02*
X126348214Y-69565380D01*
X126348214Y-69565380D02*
X126395833Y-69613000D01*
X126395833Y-69613000D02*
X126491071Y-69660619D01*
X126491071Y-69660619D02*
X126586309Y-69660619D01*
X126586309Y-69660619D02*
X126681547Y-69613000D01*
X126681547Y-69613000D02*
X126729166Y-69565380D01*
X126729166Y-69565380D02*
X126776785Y-69470142D01*
X126776785Y-69470142D02*
X126824404Y-69279666D01*
X126824404Y-69279666D02*
X126824404Y-69041571D01*
X126824404Y-69041571D02*
X126776785Y-68851095D01*
X126776785Y-68851095D02*
X126729166Y-68755857D01*
X126729166Y-68755857D02*
X126681547Y-68708238D01*
X126681547Y-68708238D02*
X126586309Y-68660619D01*
X148874404Y-69660619D02*
X148874404Y-68660619D01*
X148874404Y-68660619D02*
X148541071Y-69374904D01*
X148541071Y-69374904D02*
X148207738Y-68660619D01*
X148207738Y-68660619D02*
X148207738Y-69660619D01*
X147826785Y-68660619D02*
X147160119Y-69660619D01*
X147160119Y-68660619D02*
X147826785Y-69660619D01*
X146302976Y-68660619D02*
X146779166Y-68660619D01*
X146779166Y-68660619D02*
X146826785Y-69136809D01*
X146826785Y-69136809D02*
X146779166Y-69089190D01*
X146779166Y-69089190D02*
X146683928Y-69041571D01*
X146683928Y-69041571D02*
X146445833Y-69041571D01*
X146445833Y-69041571D02*
X146350595Y-69089190D01*
X146350595Y-69089190D02*
X146302976Y-69136809D01*
X146302976Y-69136809D02*
X146255357Y-69232047D01*
X146255357Y-69232047D02*
X146255357Y-69470142D01*
X146255357Y-69470142D02*
X146302976Y-69565380D01*
X146302976Y-69565380D02*
X146350595Y-69613000D01*
X146350595Y-69613000D02*
X146445833Y-69660619D01*
X146445833Y-69660619D02*
X146683928Y-69660619D01*
X146683928Y-69660619D02*
X146779166Y-69613000D01*
X146779166Y-69613000D02*
X146826785Y-69565380D01*
X145302976Y-69660619D02*
X145874404Y-69660619D01*
X145588690Y-69660619D02*
X145588690Y-68660619D01*
X145588690Y-68660619D02*
X145683928Y-68803476D01*
X145683928Y-68803476D02*
X145779166Y-68898714D01*
X145779166Y-68898714D02*
X145874404Y-68946333D01*
X167924404Y-69660619D02*
X167924404Y-68660619D01*
X167924404Y-68660619D02*
X167591071Y-69374904D01*
X167591071Y-69374904D02*
X167257738Y-68660619D01*
X167257738Y-68660619D02*
X167257738Y-69660619D01*
X166876785Y-68660619D02*
X166210119Y-69660619D01*
X166210119Y-68660619D02*
X166876785Y-69660619D01*
X165352976Y-68660619D02*
X165829166Y-68660619D01*
X165829166Y-68660619D02*
X165876785Y-69136809D01*
X165876785Y-69136809D02*
X165829166Y-69089190D01*
X165829166Y-69089190D02*
X165733928Y-69041571D01*
X165733928Y-69041571D02*
X165495833Y-69041571D01*
X165495833Y-69041571D02*
X165400595Y-69089190D01*
X165400595Y-69089190D02*
X165352976Y-69136809D01*
X165352976Y-69136809D02*
X165305357Y-69232047D01*
X165305357Y-69232047D02*
X165305357Y-69470142D01*
X165305357Y-69470142D02*
X165352976Y-69565380D01*
X165352976Y-69565380D02*
X165400595Y-69613000D01*
X165400595Y-69613000D02*
X165495833Y-69660619D01*
X165495833Y-69660619D02*
X165733928Y-69660619D01*
X165733928Y-69660619D02*
X165829166Y-69613000D01*
X165829166Y-69613000D02*
X165876785Y-69565380D01*
X164924404Y-68755857D02*
X164876785Y-68708238D01*
X164876785Y-68708238D02*
X164781547Y-68660619D01*
X164781547Y-68660619D02*
X164543452Y-68660619D01*
X164543452Y-68660619D02*
X164448214Y-68708238D01*
X164448214Y-68708238D02*
X164400595Y-68755857D01*
X164400595Y-68755857D02*
X164352976Y-68851095D01*
X164352976Y-68851095D02*
X164352976Y-68946333D01*
X164352976Y-68946333D02*
X164400595Y-69089190D01*
X164400595Y-69089190D02*
X164972023Y-69660619D01*
X164972023Y-69660619D02*
X164352976Y-69660619D01*
X186974404Y-69660619D02*
X186974404Y-68660619D01*
X186974404Y-68660619D02*
X186641071Y-69374904D01*
X186641071Y-69374904D02*
X186307738Y-68660619D01*
X186307738Y-68660619D02*
X186307738Y-69660619D01*
X185926785Y-68660619D02*
X185260119Y-69660619D01*
X185260119Y-68660619D02*
X185926785Y-69660619D01*
X184402976Y-68660619D02*
X184879166Y-68660619D01*
X184879166Y-68660619D02*
X184926785Y-69136809D01*
X184926785Y-69136809D02*
X184879166Y-69089190D01*
X184879166Y-69089190D02*
X184783928Y-69041571D01*
X184783928Y-69041571D02*
X184545833Y-69041571D01*
X184545833Y-69041571D02*
X184450595Y-69089190D01*
X184450595Y-69089190D02*
X184402976Y-69136809D01*
X184402976Y-69136809D02*
X184355357Y-69232047D01*
X184355357Y-69232047D02*
X184355357Y-69470142D01*
X184355357Y-69470142D02*
X184402976Y-69565380D01*
X184402976Y-69565380D02*
X184450595Y-69613000D01*
X184450595Y-69613000D02*
X184545833Y-69660619D01*
X184545833Y-69660619D02*
X184783928Y-69660619D01*
X184783928Y-69660619D02*
X184879166Y-69613000D01*
X184879166Y-69613000D02*
X184926785Y-69565380D01*
X184022023Y-68660619D02*
X183402976Y-68660619D01*
X183402976Y-68660619D02*
X183736309Y-69041571D01*
X183736309Y-69041571D02*
X183593452Y-69041571D01*
X183593452Y-69041571D02*
X183498214Y-69089190D01*
X183498214Y-69089190D02*
X183450595Y-69136809D01*
X183450595Y-69136809D02*
X183402976Y-69232047D01*
X183402976Y-69232047D02*
X183402976Y-69470142D01*
X183402976Y-69470142D02*
X183450595Y-69565380D01*
X183450595Y-69565380D02*
X183498214Y-69613000D01*
X183498214Y-69613000D02*
X183593452Y-69660619D01*
X183593452Y-69660619D02*
X183879166Y-69660619D01*
X183879166Y-69660619D02*
X183974404Y-69613000D01*
X183974404Y-69613000D02*
X184022023Y-69565380D01*
X206024404Y-69660619D02*
X206024404Y-68660619D01*
X206024404Y-68660619D02*
X205691071Y-69374904D01*
X205691071Y-69374904D02*
X205357738Y-68660619D01*
X205357738Y-68660619D02*
X205357738Y-69660619D01*
X204976785Y-68660619D02*
X204310119Y-69660619D01*
X204310119Y-68660619D02*
X204976785Y-69660619D01*
X203452976Y-68660619D02*
X203929166Y-68660619D01*
X203929166Y-68660619D02*
X203976785Y-69136809D01*
X203976785Y-69136809D02*
X203929166Y-69089190D01*
X203929166Y-69089190D02*
X203833928Y-69041571D01*
X203833928Y-69041571D02*
X203595833Y-69041571D01*
X203595833Y-69041571D02*
X203500595Y-69089190D01*
X203500595Y-69089190D02*
X203452976Y-69136809D01*
X203452976Y-69136809D02*
X203405357Y-69232047D01*
X203405357Y-69232047D02*
X203405357Y-69470142D01*
X203405357Y-69470142D02*
X203452976Y-69565380D01*
X203452976Y-69565380D02*
X203500595Y-69613000D01*
X203500595Y-69613000D02*
X203595833Y-69660619D01*
X203595833Y-69660619D02*
X203833928Y-69660619D01*
X203833928Y-69660619D02*
X203929166Y-69613000D01*
X203929166Y-69613000D02*
X203976785Y-69565380D01*
X202548214Y-68993952D02*
X202548214Y-69660619D01*
X202786309Y-68613000D02*
X203024404Y-69327285D01*
X203024404Y-69327285D02*
X202405357Y-69327285D01*
X225074404Y-69660619D02*
X225074404Y-68660619D01*
X225074404Y-68660619D02*
X224741071Y-69374904D01*
X224741071Y-69374904D02*
X224407738Y-68660619D01*
X224407738Y-68660619D02*
X224407738Y-69660619D01*
X224026785Y-68660619D02*
X223360119Y-69660619D01*
X223360119Y-68660619D02*
X224026785Y-69660619D01*
X222502976Y-68660619D02*
X222979166Y-68660619D01*
X222979166Y-68660619D02*
X223026785Y-69136809D01*
X223026785Y-69136809D02*
X222979166Y-69089190D01*
X222979166Y-69089190D02*
X222883928Y-69041571D01*
X222883928Y-69041571D02*
X222645833Y-69041571D01*
X222645833Y-69041571D02*
X222550595Y-69089190D01*
X222550595Y-69089190D02*
X222502976Y-69136809D01*
X222502976Y-69136809D02*
X222455357Y-69232047D01*
X222455357Y-69232047D02*
X222455357Y-69470142D01*
X222455357Y-69470142D02*
X222502976Y-69565380D01*
X222502976Y-69565380D02*
X222550595Y-69613000D01*
X222550595Y-69613000D02*
X222645833Y-69660619D01*
X222645833Y-69660619D02*
X222883928Y-69660619D01*
X222883928Y-69660619D02*
X222979166Y-69613000D01*
X222979166Y-69613000D02*
X223026785Y-69565380D01*
X221550595Y-68660619D02*
X222026785Y-68660619D01*
X222026785Y-68660619D02*
X222074404Y-69136809D01*
X222074404Y-69136809D02*
X222026785Y-69089190D01*
X222026785Y-69089190D02*
X221931547Y-69041571D01*
X221931547Y-69041571D02*
X221693452Y-69041571D01*
X221693452Y-69041571D02*
X221598214Y-69089190D01*
X221598214Y-69089190D02*
X221550595Y-69136809D01*
X221550595Y-69136809D02*
X221502976Y-69232047D01*
X221502976Y-69232047D02*
X221502976Y-69470142D01*
X221502976Y-69470142D02*
X221550595Y-69565380D01*
X221550595Y-69565380D02*
X221598214Y-69613000D01*
X221598214Y-69613000D02*
X221693452Y-69660619D01*
X221693452Y-69660619D02*
X221931547Y-69660619D01*
X221931547Y-69660619D02*
X222026785Y-69613000D01*
X222026785Y-69613000D02*
X222074404Y-69565380D01*
X251268154Y-69660619D02*
X251268154Y-68660619D01*
X251268154Y-68660619D02*
X250934821Y-69374904D01*
X250934821Y-69374904D02*
X250601488Y-68660619D01*
X250601488Y-68660619D02*
X250601488Y-69660619D01*
X250220535Y-68660619D02*
X249553869Y-69660619D01*
X249553869Y-68660619D02*
X250220535Y-69660619D01*
X248696726Y-68660619D02*
X249172916Y-68660619D01*
X249172916Y-68660619D02*
X249220535Y-69136809D01*
X249220535Y-69136809D02*
X249172916Y-69089190D01*
X249172916Y-69089190D02*
X249077678Y-69041571D01*
X249077678Y-69041571D02*
X248839583Y-69041571D01*
X248839583Y-69041571D02*
X248744345Y-69089190D01*
X248744345Y-69089190D02*
X248696726Y-69136809D01*
X248696726Y-69136809D02*
X248649107Y-69232047D01*
X248649107Y-69232047D02*
X248649107Y-69470142D01*
X248649107Y-69470142D02*
X248696726Y-69565380D01*
X248696726Y-69565380D02*
X248744345Y-69613000D01*
X248744345Y-69613000D02*
X248839583Y-69660619D01*
X248839583Y-69660619D02*
X249077678Y-69660619D01*
X249077678Y-69660619D02*
X249172916Y-69613000D01*
X249172916Y-69613000D02*
X249220535Y-69565380D01*
X247791964Y-68660619D02*
X247982440Y-68660619D01*
X247982440Y-68660619D02*
X248077678Y-68708238D01*
X248077678Y-68708238D02*
X248125297Y-68755857D01*
X248125297Y-68755857D02*
X248220535Y-68898714D01*
X248220535Y-68898714D02*
X248268154Y-69089190D01*
X248268154Y-69089190D02*
X248268154Y-69470142D01*
X248268154Y-69470142D02*
X248220535Y-69565380D01*
X248220535Y-69565380D02*
X248172916Y-69613000D01*
X248172916Y-69613000D02*
X248077678Y-69660619D01*
X248077678Y-69660619D02*
X247887202Y-69660619D01*
X247887202Y-69660619D02*
X247791964Y-69613000D01*
X247791964Y-69613000D02*
X247744345Y-69565380D01*
X247744345Y-69565380D02*
X247696726Y-69470142D01*
X247696726Y-69470142D02*
X247696726Y-69232047D01*
X247696726Y-69232047D02*
X247744345Y-69136809D01*
X247744345Y-69136809D02*
X247791964Y-69089190D01*
X247791964Y-69089190D02*
X247887202Y-69041571D01*
X247887202Y-69041571D02*
X248077678Y-69041571D01*
X248077678Y-69041571D02*
X248172916Y-69089190D01*
X248172916Y-69089190D02*
X248220535Y-69136809D01*
X248220535Y-69136809D02*
X248268154Y-69232047D01*
X277461904Y-69660619D02*
X277461904Y-68660619D01*
X277461904Y-68660619D02*
X277128571Y-69374904D01*
X277128571Y-69374904D02*
X276795238Y-68660619D01*
X276795238Y-68660619D02*
X276795238Y-69660619D01*
X276414285Y-68660619D02*
X275747619Y-69660619D01*
X275747619Y-68660619D02*
X276414285Y-69660619D01*
X274890476Y-68660619D02*
X275366666Y-68660619D01*
X275366666Y-68660619D02*
X275414285Y-69136809D01*
X275414285Y-69136809D02*
X275366666Y-69089190D01*
X275366666Y-69089190D02*
X275271428Y-69041571D01*
X275271428Y-69041571D02*
X275033333Y-69041571D01*
X275033333Y-69041571D02*
X274938095Y-69089190D01*
X274938095Y-69089190D02*
X274890476Y-69136809D01*
X274890476Y-69136809D02*
X274842857Y-69232047D01*
X274842857Y-69232047D02*
X274842857Y-69470142D01*
X274842857Y-69470142D02*
X274890476Y-69565380D01*
X274890476Y-69565380D02*
X274938095Y-69613000D01*
X274938095Y-69613000D02*
X275033333Y-69660619D01*
X275033333Y-69660619D02*
X275271428Y-69660619D01*
X275271428Y-69660619D02*
X275366666Y-69613000D01*
X275366666Y-69613000D02*
X275414285Y-69565380D01*
X274509523Y-68660619D02*
X273842857Y-68660619D01*
X273842857Y-68660619D02*
X274271428Y-69660619D01*
X203643154Y-88710619D02*
X203643154Y-87710619D01*
X203643154Y-87710619D02*
X203309821Y-88424904D01*
X203309821Y-88424904D02*
X202976488Y-87710619D01*
X202976488Y-87710619D02*
X202976488Y-88710619D01*
X202595535Y-87710619D02*
X201928869Y-88710619D01*
X201928869Y-87710619D02*
X202595535Y-88710619D01*
X201119345Y-87710619D02*
X201309821Y-87710619D01*
X201309821Y-87710619D02*
X201405059Y-87758238D01*
X201405059Y-87758238D02*
X201452678Y-87805857D01*
X201452678Y-87805857D02*
X201547916Y-87948714D01*
X201547916Y-87948714D02*
X201595535Y-88139190D01*
X201595535Y-88139190D02*
X201595535Y-88520142D01*
X201595535Y-88520142D02*
X201547916Y-88615380D01*
X201547916Y-88615380D02*
X201500297Y-88663000D01*
X201500297Y-88663000D02*
X201405059Y-88710619D01*
X201405059Y-88710619D02*
X201214583Y-88710619D01*
X201214583Y-88710619D02*
X201119345Y-88663000D01*
X201119345Y-88663000D02*
X201071726Y-88615380D01*
X201071726Y-88615380D02*
X201024107Y-88520142D01*
X201024107Y-88520142D02*
X201024107Y-88282047D01*
X201024107Y-88282047D02*
X201071726Y-88186809D01*
X201071726Y-88186809D02*
X201119345Y-88139190D01*
X201119345Y-88139190D02*
X201214583Y-88091571D01*
X201214583Y-88091571D02*
X201405059Y-88091571D01*
X201405059Y-88091571D02*
X201500297Y-88139190D01*
X201500297Y-88139190D02*
X201547916Y-88186809D01*
X201547916Y-88186809D02*
X201595535Y-88282047D01*
X200690773Y-87710619D02*
X200071726Y-87710619D01*
X200071726Y-87710619D02*
X200405059Y-88091571D01*
X200405059Y-88091571D02*
X200262202Y-88091571D01*
X200262202Y-88091571D02*
X200166964Y-88139190D01*
X200166964Y-88139190D02*
X200119345Y-88186809D01*
X200119345Y-88186809D02*
X200071726Y-88282047D01*
X200071726Y-88282047D02*
X200071726Y-88520142D01*
X200071726Y-88520142D02*
X200119345Y-88615380D01*
X200119345Y-88615380D02*
X200166964Y-88663000D01*
X200166964Y-88663000D02*
X200262202Y-88710619D01*
X200262202Y-88710619D02*
X200547916Y-88710619D01*
X200547916Y-88710619D02*
X200643154Y-88663000D01*
X200643154Y-88663000D02*
X200690773Y-88615380D01*
X227455654Y-88710619D02*
X227455654Y-87710619D01*
X227455654Y-87710619D02*
X227122321Y-88424904D01*
X227122321Y-88424904D02*
X226788988Y-87710619D01*
X226788988Y-87710619D02*
X226788988Y-88710619D01*
X226408035Y-87710619D02*
X225741369Y-88710619D01*
X225741369Y-87710619D02*
X226408035Y-88710619D01*
X224931845Y-87710619D02*
X225122321Y-87710619D01*
X225122321Y-87710619D02*
X225217559Y-87758238D01*
X225217559Y-87758238D02*
X225265178Y-87805857D01*
X225265178Y-87805857D02*
X225360416Y-87948714D01*
X225360416Y-87948714D02*
X225408035Y-88139190D01*
X225408035Y-88139190D02*
X225408035Y-88520142D01*
X225408035Y-88520142D02*
X225360416Y-88615380D01*
X225360416Y-88615380D02*
X225312797Y-88663000D01*
X225312797Y-88663000D02*
X225217559Y-88710619D01*
X225217559Y-88710619D02*
X225027083Y-88710619D01*
X225027083Y-88710619D02*
X224931845Y-88663000D01*
X224931845Y-88663000D02*
X224884226Y-88615380D01*
X224884226Y-88615380D02*
X224836607Y-88520142D01*
X224836607Y-88520142D02*
X224836607Y-88282047D01*
X224836607Y-88282047D02*
X224884226Y-88186809D01*
X224884226Y-88186809D02*
X224931845Y-88139190D01*
X224931845Y-88139190D02*
X225027083Y-88091571D01*
X225027083Y-88091571D02*
X225217559Y-88091571D01*
X225217559Y-88091571D02*
X225312797Y-88139190D01*
X225312797Y-88139190D02*
X225360416Y-88186809D01*
X225360416Y-88186809D02*
X225408035Y-88282047D01*
X223979464Y-88043952D02*
X223979464Y-88710619D01*
X224217559Y-87663000D02*
X224455654Y-88377285D01*
X224455654Y-88377285D02*
X223836607Y-88377285D01*
X143635713Y-12510619D02*
X143635713Y-11510619D01*
X143635713Y-11510619D02*
X143302380Y-12224904D01*
X143302380Y-12224904D02*
X142969047Y-11510619D01*
X142969047Y-11510619D02*
X142969047Y-12510619D01*
X142588094Y-11510619D02*
X141921428Y-12510619D01*
X141921428Y-11510619D02*
X142588094Y-12510619D01*
X141397618Y-11939190D02*
X141492856Y-11891571D01*
X141492856Y-11891571D02*
X141540475Y-11843952D01*
X141540475Y-11843952D02*
X141588094Y-11748714D01*
X141588094Y-11748714D02*
X141588094Y-11701095D01*
X141588094Y-11701095D02*
X141540475Y-11605857D01*
X141540475Y-11605857D02*
X141492856Y-11558238D01*
X141492856Y-11558238D02*
X141397618Y-11510619D01*
X141397618Y-11510619D02*
X141207142Y-11510619D01*
X141207142Y-11510619D02*
X141111904Y-11558238D01*
X141111904Y-11558238D02*
X141064285Y-11605857D01*
X141064285Y-11605857D02*
X141016666Y-11701095D01*
X141016666Y-11701095D02*
X141016666Y-11748714D01*
X141016666Y-11748714D02*
X141064285Y-11843952D01*
X141064285Y-11843952D02*
X141111904Y-11891571D01*
X141111904Y-11891571D02*
X141207142Y-11939190D01*
X141207142Y-11939190D02*
X141397618Y-11939190D01*
X141397618Y-11939190D02*
X141492856Y-11986809D01*
X141492856Y-11986809D02*
X141540475Y-12034428D01*
X141540475Y-12034428D02*
X141588094Y-12129666D01*
X141588094Y-12129666D02*
X141588094Y-12320142D01*
X141588094Y-12320142D02*
X141540475Y-12415380D01*
X141540475Y-12415380D02*
X141492856Y-12463000D01*
X141492856Y-12463000D02*
X141397618Y-12510619D01*
X141397618Y-12510619D02*
X141207142Y-12510619D01*
X141207142Y-12510619D02*
X141111904Y-12463000D01*
X141111904Y-12463000D02*
X141064285Y-12415380D01*
X141064285Y-12415380D02*
X141016666Y-12320142D01*
X141016666Y-12320142D02*
X141016666Y-12129666D01*
X141016666Y-12129666D02*
X141064285Y-12034428D01*
X141064285Y-12034428D02*
X141111904Y-11986809D01*
X141111904Y-11986809D02*
X141207142Y-11939190D01*
X13143154Y-88710619D02*
X13143154Y-87710619D01*
X13143154Y-87710619D02*
X12809821Y-88424904D01*
X12809821Y-88424904D02*
X12476488Y-87710619D01*
X12476488Y-87710619D02*
X12476488Y-88710619D01*
X12095535Y-87710619D02*
X11428869Y-88710619D01*
X11428869Y-87710619D02*
X12095535Y-88710619D01*
X10571726Y-87710619D02*
X11047916Y-87710619D01*
X11047916Y-87710619D02*
X11095535Y-88186809D01*
X11095535Y-88186809D02*
X11047916Y-88139190D01*
X11047916Y-88139190D02*
X10952678Y-88091571D01*
X10952678Y-88091571D02*
X10714583Y-88091571D01*
X10714583Y-88091571D02*
X10619345Y-88139190D01*
X10619345Y-88139190D02*
X10571726Y-88186809D01*
X10571726Y-88186809D02*
X10524107Y-88282047D01*
X10524107Y-88282047D02*
X10524107Y-88520142D01*
X10524107Y-88520142D02*
X10571726Y-88615380D01*
X10571726Y-88615380D02*
X10619345Y-88663000D01*
X10619345Y-88663000D02*
X10714583Y-88710619D01*
X10714583Y-88710619D02*
X10952678Y-88710619D01*
X10952678Y-88710619D02*
X11047916Y-88663000D01*
X11047916Y-88663000D02*
X11095535Y-88615380D01*
X10047916Y-88710619D02*
X9857440Y-88710619D01*
X9857440Y-88710619D02*
X9762202Y-88663000D01*
X9762202Y-88663000D02*
X9714583Y-88615380D01*
X9714583Y-88615380D02*
X9619345Y-88472523D01*
X9619345Y-88472523D02*
X9571726Y-88282047D01*
X9571726Y-88282047D02*
X9571726Y-87901095D01*
X9571726Y-87901095D02*
X9619345Y-87805857D01*
X9619345Y-87805857D02*
X9666964Y-87758238D01*
X9666964Y-87758238D02*
X9762202Y-87710619D01*
X9762202Y-87710619D02*
X9952678Y-87710619D01*
X9952678Y-87710619D02*
X10047916Y-87758238D01*
X10047916Y-87758238D02*
X10095535Y-87805857D01*
X10095535Y-87805857D02*
X10143154Y-87901095D01*
X10143154Y-87901095D02*
X10143154Y-88139190D01*
X10143154Y-88139190D02*
X10095535Y-88234428D01*
X10095535Y-88234428D02*
X10047916Y-88282047D01*
X10047916Y-88282047D02*
X9952678Y-88329666D01*
X9952678Y-88329666D02*
X9762202Y-88329666D01*
X9762202Y-88329666D02*
X9666964Y-88282047D01*
X9666964Y-88282047D02*
X9619345Y-88234428D01*
X9619345Y-88234428D02*
X9571726Y-88139190D01*
X36955654Y-88710619D02*
X36955654Y-87710619D01*
X36955654Y-87710619D02*
X36622321Y-88424904D01*
X36622321Y-88424904D02*
X36288988Y-87710619D01*
X36288988Y-87710619D02*
X36288988Y-88710619D01*
X35908035Y-87710619D02*
X35241369Y-88710619D01*
X35241369Y-87710619D02*
X35908035Y-88710619D01*
X34431845Y-87710619D02*
X34622321Y-87710619D01*
X34622321Y-87710619D02*
X34717559Y-87758238D01*
X34717559Y-87758238D02*
X34765178Y-87805857D01*
X34765178Y-87805857D02*
X34860416Y-87948714D01*
X34860416Y-87948714D02*
X34908035Y-88139190D01*
X34908035Y-88139190D02*
X34908035Y-88520142D01*
X34908035Y-88520142D02*
X34860416Y-88615380D01*
X34860416Y-88615380D02*
X34812797Y-88663000D01*
X34812797Y-88663000D02*
X34717559Y-88710619D01*
X34717559Y-88710619D02*
X34527083Y-88710619D01*
X34527083Y-88710619D02*
X34431845Y-88663000D01*
X34431845Y-88663000D02*
X34384226Y-88615380D01*
X34384226Y-88615380D02*
X34336607Y-88520142D01*
X34336607Y-88520142D02*
X34336607Y-88282047D01*
X34336607Y-88282047D02*
X34384226Y-88186809D01*
X34384226Y-88186809D02*
X34431845Y-88139190D01*
X34431845Y-88139190D02*
X34527083Y-88091571D01*
X34527083Y-88091571D02*
X34717559Y-88091571D01*
X34717559Y-88091571D02*
X34812797Y-88139190D01*
X34812797Y-88139190D02*
X34860416Y-88186809D01*
X34860416Y-88186809D02*
X34908035Y-88282047D01*
X33717559Y-87710619D02*
X33622321Y-87710619D01*
X33622321Y-87710619D02*
X33527083Y-87758238D01*
X33527083Y-87758238D02*
X33479464Y-87805857D01*
X33479464Y-87805857D02*
X33431845Y-87901095D01*
X33431845Y-87901095D02*
X33384226Y-88091571D01*
X33384226Y-88091571D02*
X33384226Y-88329666D01*
X33384226Y-88329666D02*
X33431845Y-88520142D01*
X33431845Y-88520142D02*
X33479464Y-88615380D01*
X33479464Y-88615380D02*
X33527083Y-88663000D01*
X33527083Y-88663000D02*
X33622321Y-88710619D01*
X33622321Y-88710619D02*
X33717559Y-88710619D01*
X33717559Y-88710619D02*
X33812797Y-88663000D01*
X33812797Y-88663000D02*
X33860416Y-88615380D01*
X33860416Y-88615380D02*
X33908035Y-88520142D01*
X33908035Y-88520142D02*
X33955654Y-88329666D01*
X33955654Y-88329666D02*
X33955654Y-88091571D01*
X33955654Y-88091571D02*
X33908035Y-87901095D01*
X33908035Y-87901095D02*
X33860416Y-87805857D01*
X33860416Y-87805857D02*
X33812797Y-87758238D01*
X33812797Y-87758238D02*
X33717559Y-87710619D01*
X60768154Y-88710619D02*
X60768154Y-87710619D01*
X60768154Y-87710619D02*
X60434821Y-88424904D01*
X60434821Y-88424904D02*
X60101488Y-87710619D01*
X60101488Y-87710619D02*
X60101488Y-88710619D01*
X59720535Y-87710619D02*
X59053869Y-88710619D01*
X59053869Y-87710619D02*
X59720535Y-88710619D01*
X58244345Y-87710619D02*
X58434821Y-87710619D01*
X58434821Y-87710619D02*
X58530059Y-87758238D01*
X58530059Y-87758238D02*
X58577678Y-87805857D01*
X58577678Y-87805857D02*
X58672916Y-87948714D01*
X58672916Y-87948714D02*
X58720535Y-88139190D01*
X58720535Y-88139190D02*
X58720535Y-88520142D01*
X58720535Y-88520142D02*
X58672916Y-88615380D01*
X58672916Y-88615380D02*
X58625297Y-88663000D01*
X58625297Y-88663000D02*
X58530059Y-88710619D01*
X58530059Y-88710619D02*
X58339583Y-88710619D01*
X58339583Y-88710619D02*
X58244345Y-88663000D01*
X58244345Y-88663000D02*
X58196726Y-88615380D01*
X58196726Y-88615380D02*
X58149107Y-88520142D01*
X58149107Y-88520142D02*
X58149107Y-88282047D01*
X58149107Y-88282047D02*
X58196726Y-88186809D01*
X58196726Y-88186809D02*
X58244345Y-88139190D01*
X58244345Y-88139190D02*
X58339583Y-88091571D01*
X58339583Y-88091571D02*
X58530059Y-88091571D01*
X58530059Y-88091571D02*
X58625297Y-88139190D01*
X58625297Y-88139190D02*
X58672916Y-88186809D01*
X58672916Y-88186809D02*
X58720535Y-88282047D01*
X57196726Y-88710619D02*
X57768154Y-88710619D01*
X57482440Y-88710619D02*
X57482440Y-87710619D01*
X57482440Y-87710619D02*
X57577678Y-87853476D01*
X57577678Y-87853476D02*
X57672916Y-87948714D01*
X57672916Y-87948714D02*
X57768154Y-87996333D01*
X132205654Y-88710619D02*
X132205654Y-87710619D01*
X132205654Y-87710619D02*
X131872321Y-88424904D01*
X131872321Y-88424904D02*
X131538988Y-87710619D01*
X131538988Y-87710619D02*
X131538988Y-88710619D01*
X131158035Y-87710619D02*
X130491369Y-88710619D01*
X130491369Y-87710619D02*
X131158035Y-88710619D01*
X129681845Y-87710619D02*
X129872321Y-87710619D01*
X129872321Y-87710619D02*
X129967559Y-87758238D01*
X129967559Y-87758238D02*
X130015178Y-87805857D01*
X130015178Y-87805857D02*
X130110416Y-87948714D01*
X130110416Y-87948714D02*
X130158035Y-88139190D01*
X130158035Y-88139190D02*
X130158035Y-88520142D01*
X130158035Y-88520142D02*
X130110416Y-88615380D01*
X130110416Y-88615380D02*
X130062797Y-88663000D01*
X130062797Y-88663000D02*
X129967559Y-88710619D01*
X129967559Y-88710619D02*
X129777083Y-88710619D01*
X129777083Y-88710619D02*
X129681845Y-88663000D01*
X129681845Y-88663000D02*
X129634226Y-88615380D01*
X129634226Y-88615380D02*
X129586607Y-88520142D01*
X129586607Y-88520142D02*
X129586607Y-88282047D01*
X129586607Y-88282047D02*
X129634226Y-88186809D01*
X129634226Y-88186809D02*
X129681845Y-88139190D01*
X129681845Y-88139190D02*
X129777083Y-88091571D01*
X129777083Y-88091571D02*
X129967559Y-88091571D01*
X129967559Y-88091571D02*
X130062797Y-88139190D01*
X130062797Y-88139190D02*
X130110416Y-88186809D01*
X130110416Y-88186809D02*
X130158035Y-88282047D01*
X129205654Y-87805857D02*
X129158035Y-87758238D01*
X129158035Y-87758238D02*
X129062797Y-87710619D01*
X129062797Y-87710619D02*
X128824702Y-87710619D01*
X128824702Y-87710619D02*
X128729464Y-87758238D01*
X128729464Y-87758238D02*
X128681845Y-87805857D01*
X128681845Y-87805857D02*
X128634226Y-87901095D01*
X128634226Y-87901095D02*
X128634226Y-87996333D01*
X128634226Y-87996333D02*
X128681845Y-88139190D01*
X128681845Y-88139190D02*
X129253273Y-88710619D01*
X129253273Y-88710619D02*
X128634226Y-88710619D01*
X165421428Y-53251250D02*
X165314286Y-53286964D01*
X165314286Y-53286964D02*
X165135714Y-53286964D01*
X165135714Y-53286964D02*
X165064286Y-53251250D01*
X165064286Y-53251250D02*
X165028571Y-53215535D01*
X165028571Y-53215535D02*
X164992857Y-53144107D01*
X164992857Y-53144107D02*
X164992857Y-53072678D01*
X164992857Y-53072678D02*
X165028571Y-53001250D01*
X165028571Y-53001250D02*
X165064286Y-52965535D01*
X165064286Y-52965535D02*
X165135714Y-52929821D01*
X165135714Y-52929821D02*
X165278571Y-52894107D01*
X165278571Y-52894107D02*
X165350000Y-52858392D01*
X165350000Y-52858392D02*
X165385714Y-52822678D01*
X165385714Y-52822678D02*
X165421428Y-52751250D01*
X165421428Y-52751250D02*
X165421428Y-52679821D01*
X165421428Y-52679821D02*
X165385714Y-52608392D01*
X165385714Y-52608392D02*
X165350000Y-52572678D01*
X165350000Y-52572678D02*
X165278571Y-52536964D01*
X165278571Y-52536964D02*
X165100000Y-52536964D01*
X165100000Y-52536964D02*
X164992857Y-52572678D01*
X164242857Y-53215535D02*
X164278571Y-53251250D01*
X164278571Y-53251250D02*
X164385714Y-53286964D01*
X164385714Y-53286964D02*
X164457142Y-53286964D01*
X164457142Y-53286964D02*
X164564285Y-53251250D01*
X164564285Y-53251250D02*
X164635714Y-53179821D01*
X164635714Y-53179821D02*
X164671428Y-53108392D01*
X164671428Y-53108392D02*
X164707142Y-52965535D01*
X164707142Y-52965535D02*
X164707142Y-52858392D01*
X164707142Y-52858392D02*
X164671428Y-52715535D01*
X164671428Y-52715535D02*
X164635714Y-52644107D01*
X164635714Y-52644107D02*
X164564285Y-52572678D01*
X164564285Y-52572678D02*
X164457142Y-52536964D01*
X164457142Y-52536964D02*
X164385714Y-52536964D01*
X164385714Y-52536964D02*
X164278571Y-52572678D01*
X164278571Y-52572678D02*
X164242857Y-52608392D01*
X163921428Y-53286964D02*
X163921428Y-52536964D01*
X163492857Y-53286964D02*
X163814285Y-52858392D01*
X163492857Y-52536964D02*
X163921428Y-52965535D01*
X168168571Y-58046964D02*
X167918571Y-58796964D01*
X167918571Y-58796964D02*
X167668571Y-58046964D01*
X166990000Y-58725535D02*
X167025714Y-58761250D01*
X167025714Y-58761250D02*
X167132857Y-58796964D01*
X167132857Y-58796964D02*
X167204285Y-58796964D01*
X167204285Y-58796964D02*
X167311428Y-58761250D01*
X167311428Y-58761250D02*
X167382857Y-58689821D01*
X167382857Y-58689821D02*
X167418571Y-58618392D01*
X167418571Y-58618392D02*
X167454285Y-58475535D01*
X167454285Y-58475535D02*
X167454285Y-58368392D01*
X167454285Y-58368392D02*
X167418571Y-58225535D01*
X167418571Y-58225535D02*
X167382857Y-58154107D01*
X167382857Y-58154107D02*
X167311428Y-58082678D01*
X167311428Y-58082678D02*
X167204285Y-58046964D01*
X167204285Y-58046964D02*
X167132857Y-58046964D01*
X167132857Y-58046964D02*
X167025714Y-58082678D01*
X167025714Y-58082678D02*
X166990000Y-58118392D01*
X166240000Y-58725535D02*
X166275714Y-58761250D01*
X166275714Y-58761250D02*
X166382857Y-58796964D01*
X166382857Y-58796964D02*
X166454285Y-58796964D01*
X166454285Y-58796964D02*
X166561428Y-58761250D01*
X166561428Y-58761250D02*
X166632857Y-58689821D01*
X166632857Y-58689821D02*
X166668571Y-58618392D01*
X166668571Y-58618392D02*
X166704285Y-58475535D01*
X166704285Y-58475535D02*
X166704285Y-58368392D01*
X166704285Y-58368392D02*
X166668571Y-58225535D01*
X166668571Y-58225535D02*
X166632857Y-58154107D01*
X166632857Y-58154107D02*
X166561428Y-58082678D01*
X166561428Y-58082678D02*
X166454285Y-58046964D01*
X166454285Y-58046964D02*
X166382857Y-58046964D01*
X166382857Y-58046964D02*
X166275714Y-58082678D01*
X166275714Y-58082678D02*
X166240000Y-58118392D01*
X162328571Y-58092678D02*
X162400000Y-58056964D01*
X162400000Y-58056964D02*
X162507142Y-58056964D01*
X162507142Y-58056964D02*
X162614285Y-58092678D01*
X162614285Y-58092678D02*
X162685714Y-58164107D01*
X162685714Y-58164107D02*
X162721428Y-58235535D01*
X162721428Y-58235535D02*
X162757142Y-58378392D01*
X162757142Y-58378392D02*
X162757142Y-58485535D01*
X162757142Y-58485535D02*
X162721428Y-58628392D01*
X162721428Y-58628392D02*
X162685714Y-58699821D01*
X162685714Y-58699821D02*
X162614285Y-58771250D01*
X162614285Y-58771250D02*
X162507142Y-58806964D01*
X162507142Y-58806964D02*
X162435714Y-58806964D01*
X162435714Y-58806964D02*
X162328571Y-58771250D01*
X162328571Y-58771250D02*
X162292857Y-58735535D01*
X162292857Y-58735535D02*
X162292857Y-58485535D01*
X162292857Y-58485535D02*
X162435714Y-58485535D01*
X161971428Y-58806964D02*
X161971428Y-58056964D01*
X161971428Y-58056964D02*
X161542857Y-58806964D01*
X161542857Y-58806964D02*
X161542857Y-58056964D01*
X161185714Y-58806964D02*
X161185714Y-58056964D01*
X161185714Y-58056964D02*
X161007143Y-58056964D01*
X161007143Y-58056964D02*
X160900000Y-58092678D01*
X160900000Y-58092678D02*
X160828571Y-58164107D01*
X160828571Y-58164107D02*
X160792857Y-58235535D01*
X160792857Y-58235535D02*
X160757143Y-58378392D01*
X160757143Y-58378392D02*
X160757143Y-58485535D01*
X160757143Y-58485535D02*
X160792857Y-58628392D01*
X160792857Y-58628392D02*
X160828571Y-58699821D01*
X160828571Y-58699821D02*
X160900000Y-58771250D01*
X160900000Y-58771250D02*
X161007143Y-58806964D01*
X161007143Y-58806964D02*
X161185714Y-58806964D01*
X165711428Y-58786964D02*
X165711428Y-58036964D01*
X165711428Y-58036964D02*
X165461428Y-58572678D01*
X165461428Y-58572678D02*
X165211428Y-58036964D01*
X165211428Y-58036964D02*
X165211428Y-58786964D01*
X164711428Y-58036964D02*
X164568571Y-58036964D01*
X164568571Y-58036964D02*
X164497142Y-58072678D01*
X164497142Y-58072678D02*
X164425714Y-58144107D01*
X164425714Y-58144107D02*
X164389999Y-58286964D01*
X164389999Y-58286964D02*
X164389999Y-58536964D01*
X164389999Y-58536964D02*
X164425714Y-58679821D01*
X164425714Y-58679821D02*
X164497142Y-58751250D01*
X164497142Y-58751250D02*
X164568571Y-58786964D01*
X164568571Y-58786964D02*
X164711428Y-58786964D01*
X164711428Y-58786964D02*
X164782857Y-58751250D01*
X164782857Y-58751250D02*
X164854285Y-58679821D01*
X164854285Y-58679821D02*
X164889999Y-58536964D01*
X164889999Y-58536964D02*
X164889999Y-58286964D01*
X164889999Y-58286964D02*
X164854285Y-58144107D01*
X164854285Y-58144107D02*
X164782857Y-58072678D01*
X164782857Y-58072678D02*
X164711428Y-58036964D01*
X164104285Y-58751250D02*
X163997143Y-58786964D01*
X163997143Y-58786964D02*
X163818571Y-58786964D01*
X163818571Y-58786964D02*
X163747143Y-58751250D01*
X163747143Y-58751250D02*
X163711428Y-58715535D01*
X163711428Y-58715535D02*
X163675714Y-58644107D01*
X163675714Y-58644107D02*
X163675714Y-58572678D01*
X163675714Y-58572678D02*
X163711428Y-58501250D01*
X163711428Y-58501250D02*
X163747143Y-58465535D01*
X163747143Y-58465535D02*
X163818571Y-58429821D01*
X163818571Y-58429821D02*
X163961428Y-58394107D01*
X163961428Y-58394107D02*
X164032857Y-58358392D01*
X164032857Y-58358392D02*
X164068571Y-58322678D01*
X164068571Y-58322678D02*
X164104285Y-58251250D01*
X164104285Y-58251250D02*
X164104285Y-58179821D01*
X164104285Y-58179821D02*
X164068571Y-58108392D01*
X164068571Y-58108392D02*
X164032857Y-58072678D01*
X164032857Y-58072678D02*
X163961428Y-58036964D01*
X163961428Y-58036964D02*
X163782857Y-58036964D01*
X163782857Y-58036964D02*
X163675714Y-58072678D01*
X163354285Y-58786964D02*
X163354285Y-58036964D01*
X168395714Y-53286964D02*
X168395714Y-52536964D01*
X168395714Y-52536964D02*
X168145714Y-53072678D01*
X168145714Y-53072678D02*
X167895714Y-52536964D01*
X167895714Y-52536964D02*
X167895714Y-53286964D01*
X167538571Y-53286964D02*
X167538571Y-52536964D01*
X167217142Y-53251250D02*
X167110000Y-53286964D01*
X167110000Y-53286964D02*
X166931428Y-53286964D01*
X166931428Y-53286964D02*
X166860000Y-53251250D01*
X166860000Y-53251250D02*
X166824285Y-53215535D01*
X166824285Y-53215535D02*
X166788571Y-53144107D01*
X166788571Y-53144107D02*
X166788571Y-53072678D01*
X166788571Y-53072678D02*
X166824285Y-53001250D01*
X166824285Y-53001250D02*
X166860000Y-52965535D01*
X166860000Y-52965535D02*
X166931428Y-52929821D01*
X166931428Y-52929821D02*
X167074285Y-52894107D01*
X167074285Y-52894107D02*
X167145714Y-52858392D01*
X167145714Y-52858392D02*
X167181428Y-52822678D01*
X167181428Y-52822678D02*
X167217142Y-52751250D01*
X167217142Y-52751250D02*
X167217142Y-52679821D01*
X167217142Y-52679821D02*
X167181428Y-52608392D01*
X167181428Y-52608392D02*
X167145714Y-52572678D01*
X167145714Y-52572678D02*
X167074285Y-52536964D01*
X167074285Y-52536964D02*
X166895714Y-52536964D01*
X166895714Y-52536964D02*
X166788571Y-52572678D01*
X166324285Y-52536964D02*
X166181428Y-52536964D01*
X166181428Y-52536964D02*
X166109999Y-52572678D01*
X166109999Y-52572678D02*
X166038571Y-52644107D01*
X166038571Y-52644107D02*
X166002856Y-52786964D01*
X166002856Y-52786964D02*
X166002856Y-53036964D01*
X166002856Y-53036964D02*
X166038571Y-53179821D01*
X166038571Y-53179821D02*
X166109999Y-53251250D01*
X166109999Y-53251250D02*
X166181428Y-53286964D01*
X166181428Y-53286964D02*
X166324285Y-53286964D01*
X166324285Y-53286964D02*
X166395714Y-53251250D01*
X166395714Y-53251250D02*
X166467142Y-53179821D01*
X166467142Y-53179821D02*
X166502856Y-53036964D01*
X166502856Y-53036964D02*
X166502856Y-52786964D01*
X166502856Y-52786964D02*
X166467142Y-52644107D01*
X166467142Y-52644107D02*
X166395714Y-52572678D01*
X166395714Y-52572678D02*
X166324285Y-52536964D01*
X162208572Y-53286964D02*
X162458572Y-52929821D01*
X162637143Y-53286964D02*
X162637143Y-52536964D01*
X162637143Y-52536964D02*
X162351429Y-52536964D01*
X162351429Y-52536964D02*
X162280000Y-52572678D01*
X162280000Y-52572678D02*
X162244286Y-52608392D01*
X162244286Y-52608392D02*
X162208572Y-52679821D01*
X162208572Y-52679821D02*
X162208572Y-52786964D01*
X162208572Y-52786964D02*
X162244286Y-52858392D01*
X162244286Y-52858392D02*
X162280000Y-52894107D01*
X162280000Y-52894107D02*
X162351429Y-52929821D01*
X162351429Y-52929821D02*
X162637143Y-52929821D01*
X161922857Y-53251250D02*
X161815715Y-53286964D01*
X161815715Y-53286964D02*
X161637143Y-53286964D01*
X161637143Y-53286964D02*
X161565715Y-53251250D01*
X161565715Y-53251250D02*
X161530000Y-53215535D01*
X161530000Y-53215535D02*
X161494286Y-53144107D01*
X161494286Y-53144107D02*
X161494286Y-53072678D01*
X161494286Y-53072678D02*
X161530000Y-53001250D01*
X161530000Y-53001250D02*
X161565715Y-52965535D01*
X161565715Y-52965535D02*
X161637143Y-52929821D01*
X161637143Y-52929821D02*
X161780000Y-52894107D01*
X161780000Y-52894107D02*
X161851429Y-52858392D01*
X161851429Y-52858392D02*
X161887143Y-52822678D01*
X161887143Y-52822678D02*
X161922857Y-52751250D01*
X161922857Y-52751250D02*
X161922857Y-52679821D01*
X161922857Y-52679821D02*
X161887143Y-52608392D01*
X161887143Y-52608392D02*
X161851429Y-52572678D01*
X161851429Y-52572678D02*
X161780000Y-52536964D01*
X161780000Y-52536964D02*
X161601429Y-52536964D01*
X161601429Y-52536964D02*
X161494286Y-52572678D01*
X161280000Y-52536964D02*
X160851429Y-52536964D01*
X161065714Y-53286964D02*
X161065714Y-52536964D01*
X115536904Y-31560619D02*
X115536904Y-30560619D01*
X115536904Y-30560619D02*
X115203571Y-31274904D01*
X115203571Y-31274904D02*
X114870238Y-30560619D01*
X114870238Y-30560619D02*
X114870238Y-31560619D01*
X114489285Y-30560619D02*
X113822619Y-31560619D01*
X113822619Y-30560619D02*
X114489285Y-31560619D01*
X113489285Y-30655857D02*
X113441666Y-30608238D01*
X113441666Y-30608238D02*
X113346428Y-30560619D01*
X113346428Y-30560619D02*
X113108333Y-30560619D01*
X113108333Y-30560619D02*
X113013095Y-30608238D01*
X113013095Y-30608238D02*
X112965476Y-30655857D01*
X112965476Y-30655857D02*
X112917857Y-30751095D01*
X112917857Y-30751095D02*
X112917857Y-30846333D01*
X112917857Y-30846333D02*
X112965476Y-30989190D01*
X112965476Y-30989190D02*
X113536904Y-31560619D01*
X113536904Y-31560619D02*
X112917857Y-31560619D01*
X111965476Y-31560619D02*
X112536904Y-31560619D01*
X112251190Y-31560619D02*
X112251190Y-30560619D01*
X112251190Y-30560619D02*
X112346428Y-30703476D01*
X112346428Y-30703476D02*
X112441666Y-30798714D01*
X112441666Y-30798714D02*
X112536904Y-30846333D01*
X42482619Y-17170416D02*
X43196904Y-17170416D01*
X43196904Y-17170416D02*
X43339761Y-17122797D01*
X43339761Y-17122797D02*
X43435000Y-17027559D01*
X43435000Y-17027559D02*
X43482619Y-16884702D01*
X43482619Y-16884702D02*
X43482619Y-16789464D01*
X43482619Y-18170416D02*
X43482619Y-17598988D01*
X43482619Y-17884702D02*
X42482619Y-17884702D01*
X42482619Y-17884702D02*
X42625476Y-17789464D01*
X42625476Y-17789464D02*
X42720714Y-17694226D01*
X42720714Y-17694226D02*
X42768333Y-17598988D01*
X32506666Y-20866369D02*
X32839999Y-20390178D01*
X33078094Y-20866369D02*
X33078094Y-19866369D01*
X33078094Y-19866369D02*
X32697142Y-19866369D01*
X32697142Y-19866369D02*
X32601904Y-19913988D01*
X32601904Y-19913988D02*
X32554285Y-19961607D01*
X32554285Y-19961607D02*
X32506666Y-20056845D01*
X32506666Y-20056845D02*
X32506666Y-20199702D01*
X32506666Y-20199702D02*
X32554285Y-20294940D01*
X32554285Y-20294940D02*
X32601904Y-20342559D01*
X32601904Y-20342559D02*
X32697142Y-20390178D01*
X32697142Y-20390178D02*
X33078094Y-20390178D01*
X32125713Y-19961607D02*
X32078094Y-19913988D01*
X32078094Y-19913988D02*
X31982856Y-19866369D01*
X31982856Y-19866369D02*
X31744761Y-19866369D01*
X31744761Y-19866369D02*
X31649523Y-19913988D01*
X31649523Y-19913988D02*
X31601904Y-19961607D01*
X31601904Y-19961607D02*
X31554285Y-20056845D01*
X31554285Y-20056845D02*
X31554285Y-20152083D01*
X31554285Y-20152083D02*
X31601904Y-20294940D01*
X31601904Y-20294940D02*
X32173332Y-20866369D01*
X32173332Y-20866369D02*
X31554285Y-20866369D01*
X32556666Y-15132619D02*
X32889999Y-14656428D01*
X33128094Y-15132619D02*
X33128094Y-14132619D01*
X33128094Y-14132619D02*
X32747142Y-14132619D01*
X32747142Y-14132619D02*
X32651904Y-14180238D01*
X32651904Y-14180238D02*
X32604285Y-14227857D01*
X32604285Y-14227857D02*
X32556666Y-14323095D01*
X32556666Y-14323095D02*
X32556666Y-14465952D01*
X32556666Y-14465952D02*
X32604285Y-14561190D01*
X32604285Y-14561190D02*
X32651904Y-14608809D01*
X32651904Y-14608809D02*
X32747142Y-14656428D01*
X32747142Y-14656428D02*
X33128094Y-14656428D01*
X32223332Y-14132619D02*
X31604285Y-14132619D01*
X31604285Y-14132619D02*
X31937618Y-14513571D01*
X31937618Y-14513571D02*
X31794761Y-14513571D01*
X31794761Y-14513571D02*
X31699523Y-14561190D01*
X31699523Y-14561190D02*
X31651904Y-14608809D01*
X31651904Y-14608809D02*
X31604285Y-14704047D01*
X31604285Y-14704047D02*
X31604285Y-14942142D01*
X31604285Y-14942142D02*
X31651904Y-15037380D01*
X31651904Y-15037380D02*
X31699523Y-15085000D01*
X31699523Y-15085000D02*
X31794761Y-15132619D01*
X31794761Y-15132619D02*
X32080475Y-15132619D01*
X32080475Y-15132619D02*
X32175713Y-15085000D01*
X32175713Y-15085000D02*
X32223332Y-15037380D01*
X182147082Y-87780000D02*
X182004225Y-87827619D01*
X182004225Y-87827619D02*
X181766130Y-87827619D01*
X181766130Y-87827619D02*
X181670892Y-87780000D01*
X181670892Y-87780000D02*
X181623273Y-87732380D01*
X181623273Y-87732380D02*
X181575654Y-87637142D01*
X181575654Y-87637142D02*
X181575654Y-87541904D01*
X181575654Y-87541904D02*
X181623273Y-87446666D01*
X181623273Y-87446666D02*
X181670892Y-87399047D01*
X181670892Y-87399047D02*
X181766130Y-87351428D01*
X181766130Y-87351428D02*
X181956606Y-87303809D01*
X181956606Y-87303809D02*
X182051844Y-87256190D01*
X182051844Y-87256190D02*
X182099463Y-87208571D01*
X182099463Y-87208571D02*
X182147082Y-87113333D01*
X182147082Y-87113333D02*
X182147082Y-87018095D01*
X182147082Y-87018095D02*
X182099463Y-86922857D01*
X182099463Y-86922857D02*
X182051844Y-86875238D01*
X182051844Y-86875238D02*
X181956606Y-86827619D01*
X181956606Y-86827619D02*
X181718511Y-86827619D01*
X181718511Y-86827619D02*
X181575654Y-86875238D01*
X181242320Y-86827619D02*
X181004225Y-87827619D01*
X181004225Y-87827619D02*
X180813749Y-87113333D01*
X180813749Y-87113333D02*
X180623273Y-87827619D01*
X180623273Y-87827619D02*
X180385178Y-86827619D01*
X179480416Y-87827619D02*
X180051844Y-87827619D01*
X179766130Y-87827619D02*
X179766130Y-86827619D01*
X179766130Y-86827619D02*
X179861368Y-86970476D01*
X179861368Y-86970476D02*
X179956606Y-87065714D01*
X179956606Y-87065714D02*
X180051844Y-87113333D01*
X169472916Y-83328630D02*
X169520535Y-83376250D01*
X169520535Y-83376250D02*
X169663392Y-83423869D01*
X169663392Y-83423869D02*
X169758630Y-83423869D01*
X169758630Y-83423869D02*
X169901487Y-83376250D01*
X169901487Y-83376250D02*
X169996725Y-83281011D01*
X169996725Y-83281011D02*
X170044344Y-83185773D01*
X170044344Y-83185773D02*
X170091963Y-82995297D01*
X170091963Y-82995297D02*
X170091963Y-82852440D01*
X170091963Y-82852440D02*
X170044344Y-82661964D01*
X170044344Y-82661964D02*
X169996725Y-82566726D01*
X169996725Y-82566726D02*
X169901487Y-82471488D01*
X169901487Y-82471488D02*
X169758630Y-82423869D01*
X169758630Y-82423869D02*
X169663392Y-82423869D01*
X169663392Y-82423869D02*
X169520535Y-82471488D01*
X169520535Y-82471488D02*
X169472916Y-82519107D01*
X168568154Y-82423869D02*
X169044344Y-82423869D01*
X169044344Y-82423869D02*
X169091963Y-82900059D01*
X169091963Y-82900059D02*
X169044344Y-82852440D01*
X169044344Y-82852440D02*
X168949106Y-82804821D01*
X168949106Y-82804821D02*
X168711011Y-82804821D01*
X168711011Y-82804821D02*
X168615773Y-82852440D01*
X168615773Y-82852440D02*
X168568154Y-82900059D01*
X168568154Y-82900059D02*
X168520535Y-82995297D01*
X168520535Y-82995297D02*
X168520535Y-83233392D01*
X168520535Y-83233392D02*
X168568154Y-83328630D01*
X168568154Y-83328630D02*
X168615773Y-83376250D01*
X168615773Y-83376250D02*
X168711011Y-83423869D01*
X168711011Y-83423869D02*
X168949106Y-83423869D01*
X168949106Y-83423869D02*
X169044344Y-83376250D01*
X169044344Y-83376250D02*
X169091963Y-83328630D01*
X160166666Y-88167380D02*
X160214285Y-88215000D01*
X160214285Y-88215000D02*
X160357142Y-88262619D01*
X160357142Y-88262619D02*
X160452380Y-88262619D01*
X160452380Y-88262619D02*
X160595237Y-88215000D01*
X160595237Y-88215000D02*
X160690475Y-88119761D01*
X160690475Y-88119761D02*
X160738094Y-88024523D01*
X160738094Y-88024523D02*
X160785713Y-87834047D01*
X160785713Y-87834047D02*
X160785713Y-87691190D01*
X160785713Y-87691190D02*
X160738094Y-87500714D01*
X160738094Y-87500714D02*
X160690475Y-87405476D01*
X160690475Y-87405476D02*
X160595237Y-87310238D01*
X160595237Y-87310238D02*
X160452380Y-87262619D01*
X160452380Y-87262619D02*
X160357142Y-87262619D01*
X160357142Y-87262619D02*
X160214285Y-87310238D01*
X160214285Y-87310238D02*
X160166666Y-87357857D01*
X159833332Y-87262619D02*
X159214285Y-87262619D01*
X159214285Y-87262619D02*
X159547618Y-87643571D01*
X159547618Y-87643571D02*
X159404761Y-87643571D01*
X159404761Y-87643571D02*
X159309523Y-87691190D01*
X159309523Y-87691190D02*
X159261904Y-87738809D01*
X159261904Y-87738809D02*
X159214285Y-87834047D01*
X159214285Y-87834047D02*
X159214285Y-88072142D01*
X159214285Y-88072142D02*
X159261904Y-88167380D01*
X159261904Y-88167380D02*
X159309523Y-88215000D01*
X159309523Y-88215000D02*
X159404761Y-88262619D01*
X159404761Y-88262619D02*
X159690475Y-88262619D01*
X159690475Y-88262619D02*
X159785713Y-88215000D01*
X159785713Y-88215000D02*
X159833332Y-88167380D01*
X169677678Y-85287559D02*
X170153869Y-85287559D01*
X169153869Y-84954226D02*
X169677678Y-85287559D01*
X169677678Y-85287559D02*
X169153869Y-85620892D01*
X170153869Y-86478035D02*
X170153869Y-85906607D01*
X170153869Y-86192321D02*
X169153869Y-86192321D01*
X169153869Y-86192321D02*
X169296726Y-86097083D01*
X169296726Y-86097083D02*
X169391964Y-86001845D01*
X169391964Y-86001845D02*
X169439583Y-85906607D01*
X163086130Y-79119583D02*
X163133750Y-79071964D01*
X163133750Y-79071964D02*
X163181369Y-78929107D01*
X163181369Y-78929107D02*
X163181369Y-78833869D01*
X163181369Y-78833869D02*
X163133750Y-78691012D01*
X163133750Y-78691012D02*
X163038511Y-78595774D01*
X163038511Y-78595774D02*
X162943273Y-78548155D01*
X162943273Y-78548155D02*
X162752797Y-78500536D01*
X162752797Y-78500536D02*
X162609940Y-78500536D01*
X162609940Y-78500536D02*
X162419464Y-78548155D01*
X162419464Y-78548155D02*
X162324226Y-78595774D01*
X162324226Y-78595774D02*
X162228988Y-78691012D01*
X162228988Y-78691012D02*
X162181369Y-78833869D01*
X162181369Y-78833869D02*
X162181369Y-78929107D01*
X162181369Y-78929107D02*
X162228988Y-79071964D01*
X162228988Y-79071964D02*
X162276607Y-79119583D01*
X163181369Y-80071964D02*
X163181369Y-79500536D01*
X163181369Y-79786250D02*
X162181369Y-79786250D01*
X162181369Y-79786250D02*
X162324226Y-79691012D01*
X162324226Y-79691012D02*
X162419464Y-79595774D01*
X162419464Y-79595774D02*
X162467083Y-79500536D01*
X175753869Y-79807083D02*
X175277678Y-79473750D01*
X175753869Y-79235655D02*
X174753869Y-79235655D01*
X174753869Y-79235655D02*
X174753869Y-79616607D01*
X174753869Y-79616607D02*
X174801488Y-79711845D01*
X174801488Y-79711845D02*
X174849107Y-79759464D01*
X174849107Y-79759464D02*
X174944345Y-79807083D01*
X174944345Y-79807083D02*
X175087202Y-79807083D01*
X175087202Y-79807083D02*
X175182440Y-79759464D01*
X175182440Y-79759464D02*
X175230059Y-79711845D01*
X175230059Y-79711845D02*
X175277678Y-79616607D01*
X175277678Y-79616607D02*
X175277678Y-79235655D01*
X175753869Y-80759464D02*
X175753869Y-80188036D01*
X175753869Y-80473750D02*
X174753869Y-80473750D01*
X174753869Y-80473750D02*
X174896726Y-80378512D01*
X174896726Y-80378512D02*
X174991964Y-80283274D01*
X174991964Y-80283274D02*
X175039583Y-80188036D01*
X152327380Y-75453333D02*
X152375000Y-75405714D01*
X152375000Y-75405714D02*
X152422619Y-75262857D01*
X152422619Y-75262857D02*
X152422619Y-75167619D01*
X152422619Y-75167619D02*
X152375000Y-75024762D01*
X152375000Y-75024762D02*
X152279761Y-74929524D01*
X152279761Y-74929524D02*
X152184523Y-74881905D01*
X152184523Y-74881905D02*
X151994047Y-74834286D01*
X151994047Y-74834286D02*
X151851190Y-74834286D01*
X151851190Y-74834286D02*
X151660714Y-74881905D01*
X151660714Y-74881905D02*
X151565476Y-74929524D01*
X151565476Y-74929524D02*
X151470238Y-75024762D01*
X151470238Y-75024762D02*
X151422619Y-75167619D01*
X151422619Y-75167619D02*
X151422619Y-75262857D01*
X151422619Y-75262857D02*
X151470238Y-75405714D01*
X151470238Y-75405714D02*
X151517857Y-75453333D01*
X151422619Y-75786667D02*
X151422619Y-76453333D01*
X151422619Y-76453333D02*
X152422619Y-76024762D01*
X169472916Y-88928630D02*
X169520535Y-88976250D01*
X169520535Y-88976250D02*
X169663392Y-89023869D01*
X169663392Y-89023869D02*
X169758630Y-89023869D01*
X169758630Y-89023869D02*
X169901487Y-88976250D01*
X169901487Y-88976250D02*
X169996725Y-88881011D01*
X169996725Y-88881011D02*
X170044344Y-88785773D01*
X170044344Y-88785773D02*
X170091963Y-88595297D01*
X170091963Y-88595297D02*
X170091963Y-88452440D01*
X170091963Y-88452440D02*
X170044344Y-88261964D01*
X170044344Y-88261964D02*
X169996725Y-88166726D01*
X169996725Y-88166726D02*
X169901487Y-88071488D01*
X169901487Y-88071488D02*
X169758630Y-88023869D01*
X169758630Y-88023869D02*
X169663392Y-88023869D01*
X169663392Y-88023869D02*
X169520535Y-88071488D01*
X169520535Y-88071488D02*
X169472916Y-88119107D01*
X168615773Y-88023869D02*
X168806249Y-88023869D01*
X168806249Y-88023869D02*
X168901487Y-88071488D01*
X168901487Y-88071488D02*
X168949106Y-88119107D01*
X168949106Y-88119107D02*
X169044344Y-88261964D01*
X169044344Y-88261964D02*
X169091963Y-88452440D01*
X169091963Y-88452440D02*
X169091963Y-88833392D01*
X169091963Y-88833392D02*
X169044344Y-88928630D01*
X169044344Y-88928630D02*
X168996725Y-88976250D01*
X168996725Y-88976250D02*
X168901487Y-89023869D01*
X168901487Y-89023869D02*
X168711011Y-89023869D01*
X168711011Y-89023869D02*
X168615773Y-88976250D01*
X168615773Y-88976250D02*
X168568154Y-88928630D01*
X168568154Y-88928630D02*
X168520535Y-88833392D01*
X168520535Y-88833392D02*
X168520535Y-88595297D01*
X168520535Y-88595297D02*
X168568154Y-88500059D01*
X168568154Y-88500059D02*
X168615773Y-88452440D01*
X168615773Y-88452440D02*
X168711011Y-88404821D01*
X168711011Y-88404821D02*
X168901487Y-88404821D01*
X168901487Y-88404821D02*
X168996725Y-88452440D01*
X168996725Y-88452440D02*
X169044344Y-88500059D01*
X169044344Y-88500059D02*
X169091963Y-88595297D01*
X142910416Y-88706130D02*
X142958035Y-88753750D01*
X142958035Y-88753750D02*
X143100892Y-88801369D01*
X143100892Y-88801369D02*
X143196130Y-88801369D01*
X143196130Y-88801369D02*
X143338987Y-88753750D01*
X143338987Y-88753750D02*
X143434225Y-88658511D01*
X143434225Y-88658511D02*
X143481844Y-88563273D01*
X143481844Y-88563273D02*
X143529463Y-88372797D01*
X143529463Y-88372797D02*
X143529463Y-88229940D01*
X143529463Y-88229940D02*
X143481844Y-88039464D01*
X143481844Y-88039464D02*
X143434225Y-87944226D01*
X143434225Y-87944226D02*
X143338987Y-87848988D01*
X143338987Y-87848988D02*
X143196130Y-87801369D01*
X143196130Y-87801369D02*
X143100892Y-87801369D01*
X143100892Y-87801369D02*
X142958035Y-87848988D01*
X142958035Y-87848988D02*
X142910416Y-87896607D01*
X142529463Y-87896607D02*
X142481844Y-87848988D01*
X142481844Y-87848988D02*
X142386606Y-87801369D01*
X142386606Y-87801369D02*
X142148511Y-87801369D01*
X142148511Y-87801369D02*
X142053273Y-87848988D01*
X142053273Y-87848988D02*
X142005654Y-87896607D01*
X142005654Y-87896607D02*
X141958035Y-87991845D01*
X141958035Y-87991845D02*
X141958035Y-88087083D01*
X141958035Y-88087083D02*
X142005654Y-88229940D01*
X142005654Y-88229940D02*
X142577082Y-88801369D01*
X142577082Y-88801369D02*
X141958035Y-88801369D01*
X40586369Y-16741845D02*
X41395892Y-16741845D01*
X41395892Y-16741845D02*
X41491130Y-16789464D01*
X41491130Y-16789464D02*
X41538750Y-16837083D01*
X41538750Y-16837083D02*
X41586369Y-16932321D01*
X41586369Y-16932321D02*
X41586369Y-17122797D01*
X41586369Y-17122797D02*
X41538750Y-17218035D01*
X41538750Y-17218035D02*
X41491130Y-17265654D01*
X41491130Y-17265654D02*
X41395892Y-17313273D01*
X41395892Y-17313273D02*
X40586369Y-17313273D01*
X41586369Y-18313273D02*
X41586369Y-17741845D01*
X41586369Y-18027559D02*
X40586369Y-18027559D01*
X40586369Y-18027559D02*
X40729226Y-17932321D01*
X40729226Y-17932321D02*
X40824464Y-17837083D01*
X40824464Y-17837083D02*
X40872083Y-17741845D01*
X148716369Y-85048095D02*
X149525892Y-85048095D01*
X149525892Y-85048095D02*
X149621130Y-85095714D01*
X149621130Y-85095714D02*
X149668750Y-85143333D01*
X149668750Y-85143333D02*
X149716369Y-85238571D01*
X149716369Y-85238571D02*
X149716369Y-85429047D01*
X149716369Y-85429047D02*
X149668750Y-85524285D01*
X149668750Y-85524285D02*
X149621130Y-85571904D01*
X149621130Y-85571904D02*
X149525892Y-85619523D01*
X149525892Y-85619523D02*
X148716369Y-85619523D01*
X148811607Y-86048095D02*
X148763988Y-86095714D01*
X148763988Y-86095714D02*
X148716369Y-86190952D01*
X148716369Y-86190952D02*
X148716369Y-86429047D01*
X148716369Y-86429047D02*
X148763988Y-86524285D01*
X148763988Y-86524285D02*
X148811607Y-86571904D01*
X148811607Y-86571904D02*
X148906845Y-86619523D01*
X148906845Y-86619523D02*
X149002083Y-86619523D01*
X149002083Y-86619523D02*
X149144940Y-86571904D01*
X149144940Y-86571904D02*
X149716369Y-86000476D01*
X149716369Y-86000476D02*
X149716369Y-86619523D01*
X25023333Y-16848809D02*
X25356666Y-16848809D01*
X25356666Y-17372619D02*
X25356666Y-16372619D01*
X25356666Y-16372619D02*
X24880476Y-16372619D01*
X23975714Y-17372619D02*
X24547142Y-17372619D01*
X24261428Y-17372619D02*
X24261428Y-16372619D01*
X24261428Y-16372619D02*
X24356666Y-16515476D01*
X24356666Y-16515476D02*
X24451904Y-16610714D01*
X24451904Y-16610714D02*
X24547142Y-16658333D01*
X142910416Y-91192619D02*
X143243749Y-90716428D01*
X143481844Y-91192619D02*
X143481844Y-90192619D01*
X143481844Y-90192619D02*
X143100892Y-90192619D01*
X143100892Y-90192619D02*
X143005654Y-90240238D01*
X143005654Y-90240238D02*
X142958035Y-90287857D01*
X142958035Y-90287857D02*
X142910416Y-90383095D01*
X142910416Y-90383095D02*
X142910416Y-90525952D01*
X142910416Y-90525952D02*
X142958035Y-90621190D01*
X142958035Y-90621190D02*
X143005654Y-90668809D01*
X143005654Y-90668809D02*
X143100892Y-90716428D01*
X143100892Y-90716428D02*
X143481844Y-90716428D01*
X142053273Y-90525952D02*
X142053273Y-91192619D01*
X142291368Y-90145000D02*
X142529463Y-90859285D01*
X142529463Y-90859285D02*
X141910416Y-90859285D01*
X144567380Y-76153333D02*
X144615000Y-76105714D01*
X144615000Y-76105714D02*
X144662619Y-75962857D01*
X144662619Y-75962857D02*
X144662619Y-75867619D01*
X144662619Y-75867619D02*
X144615000Y-75724762D01*
X144615000Y-75724762D02*
X144519761Y-75629524D01*
X144519761Y-75629524D02*
X144424523Y-75581905D01*
X144424523Y-75581905D02*
X144234047Y-75534286D01*
X144234047Y-75534286D02*
X144091190Y-75534286D01*
X144091190Y-75534286D02*
X143900714Y-75581905D01*
X143900714Y-75581905D02*
X143805476Y-75629524D01*
X143805476Y-75629524D02*
X143710238Y-75724762D01*
X143710238Y-75724762D02*
X143662619Y-75867619D01*
X143662619Y-75867619D02*
X143662619Y-75962857D01*
X143662619Y-75962857D02*
X143710238Y-76105714D01*
X143710238Y-76105714D02*
X143757857Y-76153333D01*
X143995952Y-77010476D02*
X144662619Y-77010476D01*
X143615000Y-76772381D02*
X144329285Y-76534286D01*
X144329285Y-76534286D02*
X144329285Y-77153333D01*
X244668869Y-86891964D02*
X243668869Y-86891964D01*
X243668869Y-86891964D02*
X243668869Y-87130059D01*
X243668869Y-87130059D02*
X243716488Y-87272916D01*
X243716488Y-87272916D02*
X243811726Y-87368154D01*
X243811726Y-87368154D02*
X243906964Y-87415773D01*
X243906964Y-87415773D02*
X244097440Y-87463392D01*
X244097440Y-87463392D02*
X244240297Y-87463392D01*
X244240297Y-87463392D02*
X244430773Y-87415773D01*
X244430773Y-87415773D02*
X244526011Y-87368154D01*
X244526011Y-87368154D02*
X244621250Y-87272916D01*
X244621250Y-87272916D02*
X244668869Y-87130059D01*
X244668869Y-87130059D02*
X244668869Y-86891964D01*
X243668869Y-88320535D02*
X243668869Y-88130059D01*
X243668869Y-88130059D02*
X243716488Y-88034821D01*
X243716488Y-88034821D02*
X243764107Y-87987202D01*
X243764107Y-87987202D02*
X243906964Y-87891964D01*
X243906964Y-87891964D02*
X244097440Y-87844345D01*
X244097440Y-87844345D02*
X244478392Y-87844345D01*
X244478392Y-87844345D02*
X244573630Y-87891964D01*
X244573630Y-87891964D02*
X244621250Y-87939583D01*
X244621250Y-87939583D02*
X244668869Y-88034821D01*
X244668869Y-88034821D02*
X244668869Y-88225297D01*
X244668869Y-88225297D02*
X244621250Y-88320535D01*
X244621250Y-88320535D02*
X244573630Y-88368154D01*
X244573630Y-88368154D02*
X244478392Y-88415773D01*
X244478392Y-88415773D02*
X244240297Y-88415773D01*
X244240297Y-88415773D02*
X244145059Y-88368154D01*
X244145059Y-88368154D02*
X244097440Y-88320535D01*
X244097440Y-88320535D02*
X244049821Y-88225297D01*
X244049821Y-88225297D02*
X244049821Y-88034821D01*
X244049821Y-88034821D02*
X244097440Y-87939583D01*
X244097440Y-87939583D02*
X244145059Y-87891964D01*
X244145059Y-87891964D02*
X244240297Y-87844345D01*
X243668869Y-89320535D02*
X243668869Y-88844345D01*
X243668869Y-88844345D02*
X244145059Y-88796726D01*
X244145059Y-88796726D02*
X244097440Y-88844345D01*
X244097440Y-88844345D02*
X244049821Y-88939583D01*
X244049821Y-88939583D02*
X244049821Y-89177678D01*
X244049821Y-89177678D02*
X244097440Y-89272916D01*
X244097440Y-89272916D02*
X244145059Y-89320535D01*
X244145059Y-89320535D02*
X244240297Y-89368154D01*
X244240297Y-89368154D02*
X244478392Y-89368154D01*
X244478392Y-89368154D02*
X244573630Y-89320535D01*
X244573630Y-89320535D02*
X244621250Y-89272916D01*
X244621250Y-89272916D02*
X244668869Y-89177678D01*
X244668869Y-89177678D02*
X244668869Y-88939583D01*
X244668869Y-88939583D02*
X244621250Y-88844345D01*
X244621250Y-88844345D02*
X244573630Y-88796726D01*
X118370595Y-14762619D02*
X118370595Y-13762619D01*
X118370595Y-13762619D02*
X118132500Y-13762619D01*
X118132500Y-13762619D02*
X117989643Y-13810238D01*
X117989643Y-13810238D02*
X117894405Y-13905476D01*
X117894405Y-13905476D02*
X117846786Y-14000714D01*
X117846786Y-14000714D02*
X117799167Y-14191190D01*
X117799167Y-14191190D02*
X117799167Y-14334047D01*
X117799167Y-14334047D02*
X117846786Y-14524523D01*
X117846786Y-14524523D02*
X117894405Y-14619761D01*
X117894405Y-14619761D02*
X117989643Y-14715000D01*
X117989643Y-14715000D02*
X118132500Y-14762619D01*
X118132500Y-14762619D02*
X118370595Y-14762619D01*
X117465833Y-13762619D02*
X116799167Y-13762619D01*
X116799167Y-13762619D02*
X117227738Y-14762619D01*
X115894405Y-14762619D02*
X116465833Y-14762619D01*
X116180119Y-14762619D02*
X116180119Y-13762619D01*
X116180119Y-13762619D02*
X116275357Y-13905476D01*
X116275357Y-13905476D02*
X116370595Y-14000714D01*
X116370595Y-14000714D02*
X116465833Y-14048333D01*
X121020595Y-16662619D02*
X121592023Y-16662619D01*
X121306309Y-16662619D02*
X121306309Y-15662619D01*
X121306309Y-15662619D02*
X121401547Y-15805476D01*
X121401547Y-15805476D02*
X121496785Y-15900714D01*
X121496785Y-15900714D02*
X121592023Y-15948333D01*
X167400595Y-78912619D02*
X167400595Y-77912619D01*
X167400595Y-77912619D02*
X167162500Y-77912619D01*
X167162500Y-77912619D02*
X167019643Y-77960238D01*
X167019643Y-77960238D02*
X166924405Y-78055476D01*
X166924405Y-78055476D02*
X166876786Y-78150714D01*
X166876786Y-78150714D02*
X166829167Y-78341190D01*
X166829167Y-78341190D02*
X166829167Y-78484047D01*
X166829167Y-78484047D02*
X166876786Y-78674523D01*
X166876786Y-78674523D02*
X166924405Y-78769761D01*
X166924405Y-78769761D02*
X167019643Y-78865000D01*
X167019643Y-78865000D02*
X167162500Y-78912619D01*
X167162500Y-78912619D02*
X167400595Y-78912619D01*
X165972024Y-78245952D02*
X165972024Y-78912619D01*
X166210119Y-77865000D02*
X166448214Y-78579285D01*
X166448214Y-78579285D02*
X165829167Y-78579285D01*
X165019643Y-78245952D02*
X165019643Y-78912619D01*
X165257738Y-77865000D02*
X165495833Y-78579285D01*
X165495833Y-78579285D02*
X164876786Y-78579285D01*
X161750595Y-77012619D02*
X162322023Y-77012619D01*
X162036309Y-77012619D02*
X162036309Y-76012619D01*
X162036309Y-76012619D02*
X162131547Y-76155476D01*
X162131547Y-76155476D02*
X162226785Y-76250714D01*
X162226785Y-76250714D02*
X162322023Y-76298333D01*
X118370595Y-78912619D02*
X118370595Y-77912619D01*
X118370595Y-77912619D02*
X118132500Y-77912619D01*
X118132500Y-77912619D02*
X117989643Y-77960238D01*
X117989643Y-77960238D02*
X117894405Y-78055476D01*
X117894405Y-78055476D02*
X117846786Y-78150714D01*
X117846786Y-78150714D02*
X117799167Y-78341190D01*
X117799167Y-78341190D02*
X117799167Y-78484047D01*
X117799167Y-78484047D02*
X117846786Y-78674523D01*
X117846786Y-78674523D02*
X117894405Y-78769761D01*
X117894405Y-78769761D02*
X117989643Y-78865000D01*
X117989643Y-78865000D02*
X118132500Y-78912619D01*
X118132500Y-78912619D02*
X118370595Y-78912619D01*
X116894405Y-77912619D02*
X117370595Y-77912619D01*
X117370595Y-77912619D02*
X117418214Y-78388809D01*
X117418214Y-78388809D02*
X117370595Y-78341190D01*
X117370595Y-78341190D02*
X117275357Y-78293571D01*
X117275357Y-78293571D02*
X117037262Y-78293571D01*
X117037262Y-78293571D02*
X116942024Y-78341190D01*
X116942024Y-78341190D02*
X116894405Y-78388809D01*
X116894405Y-78388809D02*
X116846786Y-78484047D01*
X116846786Y-78484047D02*
X116846786Y-78722142D01*
X116846786Y-78722142D02*
X116894405Y-78817380D01*
X116894405Y-78817380D02*
X116942024Y-78865000D01*
X116942024Y-78865000D02*
X117037262Y-78912619D01*
X117037262Y-78912619D02*
X117275357Y-78912619D01*
X117275357Y-78912619D02*
X117370595Y-78865000D01*
X117370595Y-78865000D02*
X117418214Y-78817380D01*
X116275357Y-78341190D02*
X116370595Y-78293571D01*
X116370595Y-78293571D02*
X116418214Y-78245952D01*
X116418214Y-78245952D02*
X116465833Y-78150714D01*
X116465833Y-78150714D02*
X116465833Y-78103095D01*
X116465833Y-78103095D02*
X116418214Y-78007857D01*
X116418214Y-78007857D02*
X116370595Y-77960238D01*
X116370595Y-77960238D02*
X116275357Y-77912619D01*
X116275357Y-77912619D02*
X116084881Y-77912619D01*
X116084881Y-77912619D02*
X115989643Y-77960238D01*
X115989643Y-77960238D02*
X115942024Y-78007857D01*
X115942024Y-78007857D02*
X115894405Y-78103095D01*
X115894405Y-78103095D02*
X115894405Y-78150714D01*
X115894405Y-78150714D02*
X115942024Y-78245952D01*
X115942024Y-78245952D02*
X115989643Y-78293571D01*
X115989643Y-78293571D02*
X116084881Y-78341190D01*
X116084881Y-78341190D02*
X116275357Y-78341190D01*
X116275357Y-78341190D02*
X116370595Y-78388809D01*
X116370595Y-78388809D02*
X116418214Y-78436428D01*
X116418214Y-78436428D02*
X116465833Y-78531666D01*
X116465833Y-78531666D02*
X116465833Y-78722142D01*
X116465833Y-78722142D02*
X116418214Y-78817380D01*
X116418214Y-78817380D02*
X116370595Y-78865000D01*
X116370595Y-78865000D02*
X116275357Y-78912619D01*
X116275357Y-78912619D02*
X116084881Y-78912619D01*
X116084881Y-78912619D02*
X115989643Y-78865000D01*
X115989643Y-78865000D02*
X115942024Y-78817380D01*
X115942024Y-78817380D02*
X115894405Y-78722142D01*
X115894405Y-78722142D02*
X115894405Y-78531666D01*
X115894405Y-78531666D02*
X115942024Y-78436428D01*
X115942024Y-78436428D02*
X115989643Y-78388809D01*
X115989643Y-78388809D02*
X116084881Y-78341190D01*
X112720595Y-77012619D02*
X113292023Y-77012619D01*
X113006309Y-77012619D02*
X113006309Y-76012619D01*
X113006309Y-76012619D02*
X113101547Y-76155476D01*
X113101547Y-76155476D02*
X113196785Y-76250714D01*
X113196785Y-76250714D02*
X113292023Y-76298333D01*
X167400595Y-14762619D02*
X167400595Y-13762619D01*
X167400595Y-13762619D02*
X167162500Y-13762619D01*
X167162500Y-13762619D02*
X167019643Y-13810238D01*
X167019643Y-13810238D02*
X166924405Y-13905476D01*
X166924405Y-13905476D02*
X166876786Y-14000714D01*
X166876786Y-14000714D02*
X166829167Y-14191190D01*
X166829167Y-14191190D02*
X166829167Y-14334047D01*
X166829167Y-14334047D02*
X166876786Y-14524523D01*
X166876786Y-14524523D02*
X166924405Y-14619761D01*
X166924405Y-14619761D02*
X167019643Y-14715000D01*
X167019643Y-14715000D02*
X167162500Y-14762619D01*
X167162500Y-14762619D02*
X167400595Y-14762619D01*
X166495833Y-13762619D02*
X165829167Y-13762619D01*
X165829167Y-13762619D02*
X166257738Y-14762619D01*
X165495833Y-13857857D02*
X165448214Y-13810238D01*
X165448214Y-13810238D02*
X165352976Y-13762619D01*
X165352976Y-13762619D02*
X165114881Y-13762619D01*
X165114881Y-13762619D02*
X165019643Y-13810238D01*
X165019643Y-13810238D02*
X164972024Y-13857857D01*
X164972024Y-13857857D02*
X164924405Y-13953095D01*
X164924405Y-13953095D02*
X164924405Y-14048333D01*
X164924405Y-14048333D02*
X164972024Y-14191190D01*
X164972024Y-14191190D02*
X165543452Y-14762619D01*
X165543452Y-14762619D02*
X164924405Y-14762619D01*
X170050595Y-16662619D02*
X170622023Y-16662619D01*
X170336309Y-16662619D02*
X170336309Y-15662619D01*
X170336309Y-15662619D02*
X170431547Y-15805476D01*
X170431547Y-15805476D02*
X170526785Y-15900714D01*
X170526785Y-15900714D02*
X170622023Y-15948333D01*
X266460595Y-78912619D02*
X266460595Y-77912619D01*
X266460595Y-77912619D02*
X266222500Y-77912619D01*
X266222500Y-77912619D02*
X266079643Y-77960238D01*
X266079643Y-77960238D02*
X265984405Y-78055476D01*
X265984405Y-78055476D02*
X265936786Y-78150714D01*
X265936786Y-78150714D02*
X265889167Y-78341190D01*
X265889167Y-78341190D02*
X265889167Y-78484047D01*
X265889167Y-78484047D02*
X265936786Y-78674523D01*
X265936786Y-78674523D02*
X265984405Y-78769761D01*
X265984405Y-78769761D02*
X266079643Y-78865000D01*
X266079643Y-78865000D02*
X266222500Y-78912619D01*
X266222500Y-78912619D02*
X266460595Y-78912619D01*
X264936786Y-78912619D02*
X265508214Y-78912619D01*
X265222500Y-78912619D02*
X265222500Y-77912619D01*
X265222500Y-77912619D02*
X265317738Y-78055476D01*
X265317738Y-78055476D02*
X265412976Y-78150714D01*
X265412976Y-78150714D02*
X265508214Y-78198333D01*
X264032024Y-77912619D02*
X264508214Y-77912619D01*
X264508214Y-77912619D02*
X264555833Y-78388809D01*
X264555833Y-78388809D02*
X264508214Y-78341190D01*
X264508214Y-78341190D02*
X264412976Y-78293571D01*
X264412976Y-78293571D02*
X264174881Y-78293571D01*
X264174881Y-78293571D02*
X264079643Y-78341190D01*
X264079643Y-78341190D02*
X264032024Y-78388809D01*
X264032024Y-78388809D02*
X263984405Y-78484047D01*
X263984405Y-78484047D02*
X263984405Y-78722142D01*
X263984405Y-78722142D02*
X264032024Y-78817380D01*
X264032024Y-78817380D02*
X264079643Y-78865000D01*
X264079643Y-78865000D02*
X264174881Y-78912619D01*
X264174881Y-78912619D02*
X264412976Y-78912619D01*
X264412976Y-78912619D02*
X264508214Y-78865000D01*
X264508214Y-78865000D02*
X264555833Y-78817380D01*
X260810595Y-77012619D02*
X261382023Y-77012619D01*
X261096309Y-77012619D02*
X261096309Y-76012619D01*
X261096309Y-76012619D02*
X261191547Y-76155476D01*
X261191547Y-76155476D02*
X261286785Y-76250714D01*
X261286785Y-76250714D02*
X261382023Y-76298333D01*
X18810595Y-78912619D02*
X18810595Y-77912619D01*
X18810595Y-77912619D02*
X18572500Y-77912619D01*
X18572500Y-77912619D02*
X18429643Y-77960238D01*
X18429643Y-77960238D02*
X18334405Y-78055476D01*
X18334405Y-78055476D02*
X18286786Y-78150714D01*
X18286786Y-78150714D02*
X18239167Y-78341190D01*
X18239167Y-78341190D02*
X18239167Y-78484047D01*
X18239167Y-78484047D02*
X18286786Y-78674523D01*
X18286786Y-78674523D02*
X18334405Y-78769761D01*
X18334405Y-78769761D02*
X18429643Y-78865000D01*
X18429643Y-78865000D02*
X18572500Y-78912619D01*
X18572500Y-78912619D02*
X18810595Y-78912619D01*
X17382024Y-77912619D02*
X17572500Y-77912619D01*
X17572500Y-77912619D02*
X17667738Y-77960238D01*
X17667738Y-77960238D02*
X17715357Y-78007857D01*
X17715357Y-78007857D02*
X17810595Y-78150714D01*
X17810595Y-78150714D02*
X17858214Y-78341190D01*
X17858214Y-78341190D02*
X17858214Y-78722142D01*
X17858214Y-78722142D02*
X17810595Y-78817380D01*
X17810595Y-78817380D02*
X17762976Y-78865000D01*
X17762976Y-78865000D02*
X17667738Y-78912619D01*
X17667738Y-78912619D02*
X17477262Y-78912619D01*
X17477262Y-78912619D02*
X17382024Y-78865000D01*
X17382024Y-78865000D02*
X17334405Y-78817380D01*
X17334405Y-78817380D02*
X17286786Y-78722142D01*
X17286786Y-78722142D02*
X17286786Y-78484047D01*
X17286786Y-78484047D02*
X17334405Y-78388809D01*
X17334405Y-78388809D02*
X17382024Y-78341190D01*
X17382024Y-78341190D02*
X17477262Y-78293571D01*
X17477262Y-78293571D02*
X17667738Y-78293571D01*
X17667738Y-78293571D02*
X17762976Y-78341190D01*
X17762976Y-78341190D02*
X17810595Y-78388809D01*
X17810595Y-78388809D02*
X17858214Y-78484047D01*
X16715357Y-78341190D02*
X16810595Y-78293571D01*
X16810595Y-78293571D02*
X16858214Y-78245952D01*
X16858214Y-78245952D02*
X16905833Y-78150714D01*
X16905833Y-78150714D02*
X16905833Y-78103095D01*
X16905833Y-78103095D02*
X16858214Y-78007857D01*
X16858214Y-78007857D02*
X16810595Y-77960238D01*
X16810595Y-77960238D02*
X16715357Y-77912619D01*
X16715357Y-77912619D02*
X16524881Y-77912619D01*
X16524881Y-77912619D02*
X16429643Y-77960238D01*
X16429643Y-77960238D02*
X16382024Y-78007857D01*
X16382024Y-78007857D02*
X16334405Y-78103095D01*
X16334405Y-78103095D02*
X16334405Y-78150714D01*
X16334405Y-78150714D02*
X16382024Y-78245952D01*
X16382024Y-78245952D02*
X16429643Y-78293571D01*
X16429643Y-78293571D02*
X16524881Y-78341190D01*
X16524881Y-78341190D02*
X16715357Y-78341190D01*
X16715357Y-78341190D02*
X16810595Y-78388809D01*
X16810595Y-78388809D02*
X16858214Y-78436428D01*
X16858214Y-78436428D02*
X16905833Y-78531666D01*
X16905833Y-78531666D02*
X16905833Y-78722142D01*
X16905833Y-78722142D02*
X16858214Y-78817380D01*
X16858214Y-78817380D02*
X16810595Y-78865000D01*
X16810595Y-78865000D02*
X16715357Y-78912619D01*
X16715357Y-78912619D02*
X16524881Y-78912619D01*
X16524881Y-78912619D02*
X16429643Y-78865000D01*
X16429643Y-78865000D02*
X16382024Y-78817380D01*
X16382024Y-78817380D02*
X16334405Y-78722142D01*
X16334405Y-78722142D02*
X16334405Y-78531666D01*
X16334405Y-78531666D02*
X16382024Y-78436428D01*
X16382024Y-78436428D02*
X16429643Y-78388809D01*
X16429643Y-78388809D02*
X16524881Y-78341190D01*
X13160595Y-77012619D02*
X13732023Y-77012619D01*
X13446309Y-77012619D02*
X13446309Y-76012619D01*
X13446309Y-76012619D02*
X13541547Y-76155476D01*
X13541547Y-76155476D02*
X13636785Y-76250714D01*
X13636785Y-76250714D02*
X13732023Y-76298333D01*
X216930595Y-78912619D02*
X216930595Y-77912619D01*
X216930595Y-77912619D02*
X216692500Y-77912619D01*
X216692500Y-77912619D02*
X216549643Y-77960238D01*
X216549643Y-77960238D02*
X216454405Y-78055476D01*
X216454405Y-78055476D02*
X216406786Y-78150714D01*
X216406786Y-78150714D02*
X216359167Y-78341190D01*
X216359167Y-78341190D02*
X216359167Y-78484047D01*
X216359167Y-78484047D02*
X216406786Y-78674523D01*
X216406786Y-78674523D02*
X216454405Y-78769761D01*
X216454405Y-78769761D02*
X216549643Y-78865000D01*
X216549643Y-78865000D02*
X216692500Y-78912619D01*
X216692500Y-78912619D02*
X216930595Y-78912619D01*
X216025833Y-77912619D02*
X215406786Y-77912619D01*
X215406786Y-77912619D02*
X215740119Y-78293571D01*
X215740119Y-78293571D02*
X215597262Y-78293571D01*
X215597262Y-78293571D02*
X215502024Y-78341190D01*
X215502024Y-78341190D02*
X215454405Y-78388809D01*
X215454405Y-78388809D02*
X215406786Y-78484047D01*
X215406786Y-78484047D02*
X215406786Y-78722142D01*
X215406786Y-78722142D02*
X215454405Y-78817380D01*
X215454405Y-78817380D02*
X215502024Y-78865000D01*
X215502024Y-78865000D02*
X215597262Y-78912619D01*
X215597262Y-78912619D02*
X215882976Y-78912619D01*
X215882976Y-78912619D02*
X215978214Y-78865000D01*
X215978214Y-78865000D02*
X216025833Y-78817380D01*
X214787738Y-77912619D02*
X214692500Y-77912619D01*
X214692500Y-77912619D02*
X214597262Y-77960238D01*
X214597262Y-77960238D02*
X214549643Y-78007857D01*
X214549643Y-78007857D02*
X214502024Y-78103095D01*
X214502024Y-78103095D02*
X214454405Y-78293571D01*
X214454405Y-78293571D02*
X214454405Y-78531666D01*
X214454405Y-78531666D02*
X214502024Y-78722142D01*
X214502024Y-78722142D02*
X214549643Y-78817380D01*
X214549643Y-78817380D02*
X214597262Y-78865000D01*
X214597262Y-78865000D02*
X214692500Y-78912619D01*
X214692500Y-78912619D02*
X214787738Y-78912619D01*
X214787738Y-78912619D02*
X214882976Y-78865000D01*
X214882976Y-78865000D02*
X214930595Y-78817380D01*
X214930595Y-78817380D02*
X214978214Y-78722142D01*
X214978214Y-78722142D02*
X215025833Y-78531666D01*
X215025833Y-78531666D02*
X215025833Y-78293571D01*
X215025833Y-78293571D02*
X214978214Y-78103095D01*
X214978214Y-78103095D02*
X214930595Y-78007857D01*
X214930595Y-78007857D02*
X214882976Y-77960238D01*
X214882976Y-77960238D02*
X214787738Y-77912619D01*
X211280595Y-77012619D02*
X211852023Y-77012619D01*
X211566309Y-77012619D02*
X211566309Y-76012619D01*
X211566309Y-76012619D02*
X211661547Y-76155476D01*
X211661547Y-76155476D02*
X211756785Y-76250714D01*
X211756785Y-76250714D02*
X211852023Y-76298333D01*
X266460595Y-14762619D02*
X266460595Y-13762619D01*
X266460595Y-13762619D02*
X266222500Y-13762619D01*
X266222500Y-13762619D02*
X266079643Y-13810238D01*
X266079643Y-13810238D02*
X265984405Y-13905476D01*
X265984405Y-13905476D02*
X265936786Y-14000714D01*
X265936786Y-14000714D02*
X265889167Y-14191190D01*
X265889167Y-14191190D02*
X265889167Y-14334047D01*
X265889167Y-14334047D02*
X265936786Y-14524523D01*
X265936786Y-14524523D02*
X265984405Y-14619761D01*
X265984405Y-14619761D02*
X266079643Y-14715000D01*
X266079643Y-14715000D02*
X266222500Y-14762619D01*
X266222500Y-14762619D02*
X266460595Y-14762619D01*
X265555833Y-13762619D02*
X264889167Y-13762619D01*
X264889167Y-13762619D02*
X265317738Y-14762619D01*
X264079643Y-14095952D02*
X264079643Y-14762619D01*
X264317738Y-13715000D02*
X264555833Y-14429285D01*
X264555833Y-14429285D02*
X263936786Y-14429285D01*
X269110595Y-16662619D02*
X269682023Y-16662619D01*
X269396309Y-16662619D02*
X269396309Y-15662619D01*
X269396309Y-15662619D02*
X269491547Y-15805476D01*
X269491547Y-15805476D02*
X269586785Y-15900714D01*
X269586785Y-15900714D02*
X269682023Y-15948333D01*
X68340595Y-78912619D02*
X68340595Y-77912619D01*
X68340595Y-77912619D02*
X68102500Y-77912619D01*
X68102500Y-77912619D02*
X67959643Y-77960238D01*
X67959643Y-77960238D02*
X67864405Y-78055476D01*
X67864405Y-78055476D02*
X67816786Y-78150714D01*
X67816786Y-78150714D02*
X67769167Y-78341190D01*
X67769167Y-78341190D02*
X67769167Y-78484047D01*
X67769167Y-78484047D02*
X67816786Y-78674523D01*
X67816786Y-78674523D02*
X67864405Y-78769761D01*
X67864405Y-78769761D02*
X67959643Y-78865000D01*
X67959643Y-78865000D02*
X68102500Y-78912619D01*
X68102500Y-78912619D02*
X68340595Y-78912619D01*
X66912024Y-77912619D02*
X67102500Y-77912619D01*
X67102500Y-77912619D02*
X67197738Y-77960238D01*
X67197738Y-77960238D02*
X67245357Y-78007857D01*
X67245357Y-78007857D02*
X67340595Y-78150714D01*
X67340595Y-78150714D02*
X67388214Y-78341190D01*
X67388214Y-78341190D02*
X67388214Y-78722142D01*
X67388214Y-78722142D02*
X67340595Y-78817380D01*
X67340595Y-78817380D02*
X67292976Y-78865000D01*
X67292976Y-78865000D02*
X67197738Y-78912619D01*
X67197738Y-78912619D02*
X67007262Y-78912619D01*
X67007262Y-78912619D02*
X66912024Y-78865000D01*
X66912024Y-78865000D02*
X66864405Y-78817380D01*
X66864405Y-78817380D02*
X66816786Y-78722142D01*
X66816786Y-78722142D02*
X66816786Y-78484047D01*
X66816786Y-78484047D02*
X66864405Y-78388809D01*
X66864405Y-78388809D02*
X66912024Y-78341190D01*
X66912024Y-78341190D02*
X67007262Y-78293571D01*
X67007262Y-78293571D02*
X67197738Y-78293571D01*
X67197738Y-78293571D02*
X67292976Y-78341190D01*
X67292976Y-78341190D02*
X67340595Y-78388809D01*
X67340595Y-78388809D02*
X67388214Y-78484047D01*
X66483452Y-77912619D02*
X65816786Y-77912619D01*
X65816786Y-77912619D02*
X66245357Y-78912619D01*
X62690595Y-77012619D02*
X63262023Y-77012619D01*
X62976309Y-77012619D02*
X62976309Y-76012619D01*
X62976309Y-76012619D02*
X63071547Y-76155476D01*
X63071547Y-76155476D02*
X63166785Y-76250714D01*
X63166785Y-76250714D02*
X63262023Y-76298333D01*
X18810595Y-14762619D02*
X18810595Y-13762619D01*
X18810595Y-13762619D02*
X18572500Y-13762619D01*
X18572500Y-13762619D02*
X18429643Y-13810238D01*
X18429643Y-13810238D02*
X18334405Y-13905476D01*
X18334405Y-13905476D02*
X18286786Y-14000714D01*
X18286786Y-14000714D02*
X18239167Y-14191190D01*
X18239167Y-14191190D02*
X18239167Y-14334047D01*
X18239167Y-14334047D02*
X18286786Y-14524523D01*
X18286786Y-14524523D02*
X18334405Y-14619761D01*
X18334405Y-14619761D02*
X18429643Y-14715000D01*
X18429643Y-14715000D02*
X18572500Y-14762619D01*
X18572500Y-14762619D02*
X18810595Y-14762619D01*
X17382024Y-13762619D02*
X17572500Y-13762619D01*
X17572500Y-13762619D02*
X17667738Y-13810238D01*
X17667738Y-13810238D02*
X17715357Y-13857857D01*
X17715357Y-13857857D02*
X17810595Y-14000714D01*
X17810595Y-14000714D02*
X17858214Y-14191190D01*
X17858214Y-14191190D02*
X17858214Y-14572142D01*
X17858214Y-14572142D02*
X17810595Y-14667380D01*
X17810595Y-14667380D02*
X17762976Y-14715000D01*
X17762976Y-14715000D02*
X17667738Y-14762619D01*
X17667738Y-14762619D02*
X17477262Y-14762619D01*
X17477262Y-14762619D02*
X17382024Y-14715000D01*
X17382024Y-14715000D02*
X17334405Y-14667380D01*
X17334405Y-14667380D02*
X17286786Y-14572142D01*
X17286786Y-14572142D02*
X17286786Y-14334047D01*
X17286786Y-14334047D02*
X17334405Y-14238809D01*
X17334405Y-14238809D02*
X17382024Y-14191190D01*
X17382024Y-14191190D02*
X17477262Y-14143571D01*
X17477262Y-14143571D02*
X17667738Y-14143571D01*
X17667738Y-14143571D02*
X17762976Y-14191190D01*
X17762976Y-14191190D02*
X17810595Y-14238809D01*
X17810595Y-14238809D02*
X17858214Y-14334047D01*
X16810595Y-14762619D02*
X16620119Y-14762619D01*
X16620119Y-14762619D02*
X16524881Y-14715000D01*
X16524881Y-14715000D02*
X16477262Y-14667380D01*
X16477262Y-14667380D02*
X16382024Y-14524523D01*
X16382024Y-14524523D02*
X16334405Y-14334047D01*
X16334405Y-14334047D02*
X16334405Y-13953095D01*
X16334405Y-13953095D02*
X16382024Y-13857857D01*
X16382024Y-13857857D02*
X16429643Y-13810238D01*
X16429643Y-13810238D02*
X16524881Y-13762619D01*
X16524881Y-13762619D02*
X16715357Y-13762619D01*
X16715357Y-13762619D02*
X16810595Y-13810238D01*
X16810595Y-13810238D02*
X16858214Y-13857857D01*
X16858214Y-13857857D02*
X16905833Y-13953095D01*
X16905833Y-13953095D02*
X16905833Y-14191190D01*
X16905833Y-14191190D02*
X16858214Y-14286428D01*
X16858214Y-14286428D02*
X16810595Y-14334047D01*
X16810595Y-14334047D02*
X16715357Y-14381666D01*
X16715357Y-14381666D02*
X16524881Y-14381666D01*
X16524881Y-14381666D02*
X16429643Y-14334047D01*
X16429643Y-14334047D02*
X16382024Y-14286428D01*
X16382024Y-14286428D02*
X16334405Y-14191190D01*
X21460595Y-16662619D02*
X22032023Y-16662619D01*
X21746309Y-16662619D02*
X21746309Y-15662619D01*
X21746309Y-15662619D02*
X21841547Y-15805476D01*
X21841547Y-15805476D02*
X21936785Y-15900714D01*
X21936785Y-15900714D02*
X22032023Y-15948333D01*
X68340595Y-14762619D02*
X68340595Y-13762619D01*
X68340595Y-13762619D02*
X68102500Y-13762619D01*
X68102500Y-13762619D02*
X67959643Y-13810238D01*
X67959643Y-13810238D02*
X67864405Y-13905476D01*
X67864405Y-13905476D02*
X67816786Y-14000714D01*
X67816786Y-14000714D02*
X67769167Y-14191190D01*
X67769167Y-14191190D02*
X67769167Y-14334047D01*
X67769167Y-14334047D02*
X67816786Y-14524523D01*
X67816786Y-14524523D02*
X67864405Y-14619761D01*
X67864405Y-14619761D02*
X67959643Y-14715000D01*
X67959643Y-14715000D02*
X68102500Y-14762619D01*
X68102500Y-14762619D02*
X68340595Y-14762619D01*
X67435833Y-13762619D02*
X66769167Y-13762619D01*
X66769167Y-13762619D02*
X67197738Y-14762619D01*
X66197738Y-13762619D02*
X66102500Y-13762619D01*
X66102500Y-13762619D02*
X66007262Y-13810238D01*
X66007262Y-13810238D02*
X65959643Y-13857857D01*
X65959643Y-13857857D02*
X65912024Y-13953095D01*
X65912024Y-13953095D02*
X65864405Y-14143571D01*
X65864405Y-14143571D02*
X65864405Y-14381666D01*
X65864405Y-14381666D02*
X65912024Y-14572142D01*
X65912024Y-14572142D02*
X65959643Y-14667380D01*
X65959643Y-14667380D02*
X66007262Y-14715000D01*
X66007262Y-14715000D02*
X66102500Y-14762619D01*
X66102500Y-14762619D02*
X66197738Y-14762619D01*
X66197738Y-14762619D02*
X66292976Y-14715000D01*
X66292976Y-14715000D02*
X66340595Y-14667380D01*
X66340595Y-14667380D02*
X66388214Y-14572142D01*
X66388214Y-14572142D02*
X66435833Y-14381666D01*
X66435833Y-14381666D02*
X66435833Y-14143571D01*
X66435833Y-14143571D02*
X66388214Y-13953095D01*
X66388214Y-13953095D02*
X66340595Y-13857857D01*
X66340595Y-13857857D02*
X66292976Y-13810238D01*
X66292976Y-13810238D02*
X66197738Y-13762619D01*
X70990595Y-16662619D02*
X71562023Y-16662619D01*
X71276309Y-16662619D02*
X71276309Y-15662619D01*
X71276309Y-15662619D02*
X71371547Y-15805476D01*
X71371547Y-15805476D02*
X71466785Y-15900714D01*
X71466785Y-15900714D02*
X71562023Y-15948333D01*
X216930595Y-14762619D02*
X216930595Y-13762619D01*
X216930595Y-13762619D02*
X216692500Y-13762619D01*
X216692500Y-13762619D02*
X216549643Y-13810238D01*
X216549643Y-13810238D02*
X216454405Y-13905476D01*
X216454405Y-13905476D02*
X216406786Y-14000714D01*
X216406786Y-14000714D02*
X216359167Y-14191190D01*
X216359167Y-14191190D02*
X216359167Y-14334047D01*
X216359167Y-14334047D02*
X216406786Y-14524523D01*
X216406786Y-14524523D02*
X216454405Y-14619761D01*
X216454405Y-14619761D02*
X216549643Y-14715000D01*
X216549643Y-14715000D02*
X216692500Y-14762619D01*
X216692500Y-14762619D02*
X216930595Y-14762619D01*
X216025833Y-13762619D02*
X215359167Y-13762619D01*
X215359167Y-13762619D02*
X215787738Y-14762619D01*
X215073452Y-13762619D02*
X214454405Y-13762619D01*
X214454405Y-13762619D02*
X214787738Y-14143571D01*
X214787738Y-14143571D02*
X214644881Y-14143571D01*
X214644881Y-14143571D02*
X214549643Y-14191190D01*
X214549643Y-14191190D02*
X214502024Y-14238809D01*
X214502024Y-14238809D02*
X214454405Y-14334047D01*
X214454405Y-14334047D02*
X214454405Y-14572142D01*
X214454405Y-14572142D02*
X214502024Y-14667380D01*
X214502024Y-14667380D02*
X214549643Y-14715000D01*
X214549643Y-14715000D02*
X214644881Y-14762619D01*
X214644881Y-14762619D02*
X214930595Y-14762619D01*
X214930595Y-14762619D02*
X215025833Y-14715000D01*
X215025833Y-14715000D02*
X215073452Y-14667380D01*
X219580595Y-16662619D02*
X220152023Y-16662619D01*
X219866309Y-16662619D02*
X219866309Y-15662619D01*
X219866309Y-15662619D02*
X219961547Y-15805476D01*
X219961547Y-15805476D02*
X220056785Y-15900714D01*
X220056785Y-15900714D02*
X220152023Y-15948333D01*
D11*
X47715000Y-14393750D02*
X45215000Y-14393750D01*
X45215000Y-14393750D02*
X45215000Y-15443750D01*
X45215000Y-15443750D02*
X44225000Y-15443750D01*
X49685000Y-15563750D02*
X49685000Y-19443750D01*
X47715000Y-20613750D02*
X45215000Y-20613750D01*
X45215000Y-20613750D02*
X45215000Y-19563750D01*
X32081422Y-18043750D02*
X32598578Y-18043750D01*
X32081422Y-19463750D02*
X32598578Y-19463750D01*
X32081422Y-15543750D02*
X32598578Y-15543750D01*
X32081422Y-16963750D02*
X32598578Y-16963750D01*
X178063750Y-84615000D02*
X178063750Y-82615000D01*
X179113750Y-81315000D02*
X179563750Y-80865000D01*
X179113750Y-85915000D02*
X179563750Y-86365000D01*
X179563750Y-80865000D02*
X182063750Y-80865000D01*
X179563750Y-86365000D02*
X182063750Y-86365000D01*
X182513750Y-81315000D02*
X182063750Y-80865000D01*
X182513750Y-85915000D02*
X182063750Y-86365000D01*
X183563750Y-84615000D02*
X183563750Y-82615000D01*
X166788578Y-83710000D02*
X166271422Y-83710000D01*
X166788578Y-82290000D02*
X166271422Y-82290000D01*
X160258578Y-90160000D02*
X159741422Y-90160000D01*
X160258578Y-88740000D02*
X159741422Y-88740000D01*
X168530000Y-87450000D02*
X164530000Y-87450000D01*
X168530000Y-84150000D02*
X168530000Y-87450000D01*
X163440000Y-81791422D02*
X163440000Y-82308578D01*
X162020000Y-81791422D02*
X162020000Y-82308578D01*
X175990000Y-82391422D02*
X175990000Y-82908578D01*
X174570000Y-82391422D02*
X174570000Y-82908578D01*
X681250Y-14156250D02*
X681250Y-10256250D01*
X2681250Y-14156250D02*
X681250Y-14156250D01*
X2681250Y-14156250D02*
X2681250Y-10256250D01*
X19750000Y-14156250D02*
X19750000Y-10256250D01*
X21750000Y-14156250D02*
X19750000Y-14156250D01*
X21750000Y-14156250D02*
X21750000Y-10256250D01*
X38800000Y-14156250D02*
X38800000Y-10256250D01*
X40800000Y-14156250D02*
X38800000Y-14156250D01*
X40800000Y-14156250D02*
X40800000Y-10256250D01*
X57850000Y-14156250D02*
X57850000Y-10256250D01*
X59850000Y-14156250D02*
X57850000Y-14156250D01*
X59850000Y-14156250D02*
X59850000Y-10256250D01*
X76900000Y-14156250D02*
X76900000Y-10256250D01*
X78900000Y-14156250D02*
X76900000Y-14156250D01*
X78900000Y-14156250D02*
X78900000Y-10256250D01*
X95950000Y-14156250D02*
X95950000Y-10256250D01*
X97950000Y-14156250D02*
X95950000Y-14156250D01*
X97950000Y-14156250D02*
X97950000Y-10256250D01*
X115000000Y-14156250D02*
X115000000Y-10256250D01*
X117000000Y-14156250D02*
X115000000Y-14156250D01*
X117000000Y-14156250D02*
X117000000Y-10256250D01*
X134050000Y-14156250D02*
X134050000Y-10256250D01*
X136050000Y-14156250D02*
X134050000Y-14156250D01*
X136050000Y-14156250D02*
X136050000Y-10256250D01*
X153100000Y-14156250D02*
X153100000Y-10256250D01*
X155100000Y-14156250D02*
X153100000Y-14156250D01*
X155100000Y-14156250D02*
X155100000Y-10256250D01*
X172150000Y-14156250D02*
X172150000Y-10256250D01*
X174150000Y-14156250D02*
X172150000Y-14156250D01*
X174150000Y-14156250D02*
X174150000Y-10256250D01*
X191200000Y-14156250D02*
X191200000Y-10256250D01*
X193200000Y-14156250D02*
X191200000Y-14156250D01*
X193200000Y-14156250D02*
X193200000Y-10256250D01*
X210250000Y-14156250D02*
X210250000Y-10256250D01*
X212250000Y-14156250D02*
X210250000Y-14156250D01*
X212250000Y-14156250D02*
X212250000Y-10256250D01*
X257875000Y-14156250D02*
X257875000Y-10256250D01*
X259875000Y-14156250D02*
X257875000Y-14156250D01*
X259875000Y-14156250D02*
X259875000Y-10256250D01*
X5462500Y-33206250D02*
X5462500Y-29306250D01*
X7462500Y-33206250D02*
X5462500Y-33206250D01*
X7462500Y-33206250D02*
X7462500Y-29306250D01*
X29275000Y-33206250D02*
X29275000Y-29306250D01*
X31275000Y-33206250D02*
X29275000Y-33206250D01*
X31275000Y-33206250D02*
X31275000Y-29306250D01*
X48325000Y-33206250D02*
X48325000Y-29306250D01*
X50325000Y-33206250D02*
X48325000Y-33206250D01*
X50325000Y-33206250D02*
X50325000Y-29306250D01*
X67375000Y-33206250D02*
X67375000Y-29306250D01*
X69375000Y-33206250D02*
X67375000Y-33206250D01*
X69375000Y-33206250D02*
X69375000Y-29306250D01*
X86425000Y-33206250D02*
X86425000Y-29306250D01*
X88425000Y-33206250D02*
X86425000Y-33206250D01*
X88425000Y-33206250D02*
X88425000Y-29306250D01*
X105475000Y-33206250D02*
X105475000Y-29306250D01*
X107475000Y-33206250D02*
X105475000Y-33206250D01*
X107475000Y-33206250D02*
X107475000Y-29306250D01*
X124525000Y-33206250D02*
X124525000Y-29306250D01*
X126525000Y-33206250D02*
X124525000Y-33206250D01*
X126525000Y-33206250D02*
X126525000Y-29306250D01*
X143575000Y-33206250D02*
X143575000Y-29306250D01*
X145575000Y-33206250D02*
X143575000Y-33206250D01*
X145575000Y-33206250D02*
X145575000Y-29306250D01*
X162625000Y-33206250D02*
X162625000Y-29306250D01*
X164625000Y-33206250D02*
X162625000Y-33206250D01*
X164625000Y-33206250D02*
X164625000Y-29306250D01*
X181675000Y-33206250D02*
X181675000Y-29306250D01*
X183675000Y-33206250D02*
X181675000Y-33206250D01*
X183675000Y-33206250D02*
X183675000Y-29306250D01*
X200725000Y-33206250D02*
X200725000Y-29306250D01*
X202725000Y-33206250D02*
X200725000Y-33206250D01*
X202725000Y-33206250D02*
X202725000Y-29306250D01*
X219775000Y-33206250D02*
X219775000Y-29306250D01*
X221775000Y-33206250D02*
X219775000Y-33206250D01*
X221775000Y-33206250D02*
X221775000Y-29306250D01*
X238825000Y-33206250D02*
X238825000Y-29306250D01*
X240825000Y-33206250D02*
X238825000Y-33206250D01*
X240825000Y-33206250D02*
X240825000Y-29306250D01*
X262637500Y-33206250D02*
X262637500Y-29306250D01*
X264637500Y-33206250D02*
X262637500Y-33206250D01*
X264637500Y-33206250D02*
X264637500Y-29306250D01*
X7843750Y-52256250D02*
X7843750Y-48356250D01*
X9843750Y-52256250D02*
X7843750Y-52256250D01*
X9843750Y-52256250D02*
X9843750Y-48356250D01*
X34037500Y-52256250D02*
X34037500Y-48356250D01*
X36037500Y-52256250D02*
X34037500Y-52256250D01*
X36037500Y-52256250D02*
X36037500Y-48356250D01*
X53087500Y-52256250D02*
X53087500Y-48356250D01*
X55087500Y-52256250D02*
X53087500Y-52256250D01*
X55087500Y-52256250D02*
X55087500Y-48356250D01*
X72137500Y-52256250D02*
X72137500Y-48356250D01*
X74137500Y-52256250D02*
X72137500Y-52256250D01*
X74137500Y-52256250D02*
X74137500Y-48356250D01*
X110237500Y-52256250D02*
X110237500Y-48356250D01*
X112237500Y-52256250D02*
X110237500Y-52256250D01*
X112237500Y-52256250D02*
X112237500Y-48356250D01*
X129287500Y-52256250D02*
X129287500Y-48356250D01*
X131287500Y-52256250D02*
X129287500Y-52256250D01*
X131287500Y-52256250D02*
X131287500Y-48356250D01*
X148337500Y-52256250D02*
X148337500Y-48356250D01*
X150337500Y-52256250D02*
X148337500Y-52256250D01*
X150337500Y-52256250D02*
X150337500Y-48356250D01*
X167387500Y-52256250D02*
X167387500Y-48356250D01*
X169387500Y-52256250D02*
X167387500Y-52256250D01*
X169387500Y-52256250D02*
X169387500Y-48356250D01*
X186437500Y-52256250D02*
X186437500Y-48356250D01*
X188437500Y-52256250D02*
X186437500Y-52256250D01*
X188437500Y-52256250D02*
X188437500Y-48356250D01*
X205487500Y-52256250D02*
X205487500Y-48356250D01*
X207487500Y-52256250D02*
X205487500Y-52256250D01*
X207487500Y-52256250D02*
X207487500Y-48356250D01*
X224537500Y-52256250D02*
X224537500Y-48356250D01*
X226537500Y-52256250D02*
X224537500Y-52256250D01*
X226537500Y-52256250D02*
X226537500Y-48356250D01*
X255493750Y-52256250D02*
X255493750Y-48356250D01*
X257493750Y-52256250D02*
X255493750Y-52256250D01*
X257493750Y-52256250D02*
X257493750Y-48356250D01*
X12606250Y-71306250D02*
X12606250Y-67406250D01*
X14606250Y-71306250D02*
X12606250Y-71306250D01*
X14606250Y-71306250D02*
X14606250Y-67406250D01*
X43562500Y-71306250D02*
X43562500Y-67406250D01*
X45562500Y-71306250D02*
X43562500Y-71306250D01*
X45562500Y-71306250D02*
X45562500Y-67406250D01*
X62612500Y-71306250D02*
X62612500Y-67406250D01*
X64612500Y-71306250D02*
X62612500Y-71306250D01*
X64612500Y-71306250D02*
X64612500Y-67406250D01*
X81662500Y-71306250D02*
X81662500Y-67406250D01*
X83662500Y-71306250D02*
X81662500Y-71306250D01*
X83662500Y-71306250D02*
X83662500Y-67406250D01*
X100712500Y-71306250D02*
X100712500Y-67406250D01*
X102712500Y-71306250D02*
X100712500Y-71306250D01*
X102712500Y-71306250D02*
X102712500Y-67406250D01*
X119762500Y-71306250D02*
X119762500Y-67406250D01*
X121762500Y-71306250D02*
X119762500Y-71306250D01*
X121762500Y-71306250D02*
X121762500Y-67406250D01*
X138812500Y-71306250D02*
X138812500Y-67406250D01*
X140812500Y-71306250D02*
X138812500Y-71306250D01*
X140812500Y-71306250D02*
X140812500Y-67406250D01*
X157862500Y-71306250D02*
X157862500Y-67406250D01*
X159862500Y-71306250D02*
X157862500Y-71306250D01*
X159862500Y-71306250D02*
X159862500Y-67406250D01*
X176900000Y-71306250D02*
X176900000Y-67406250D01*
X178900000Y-71306250D02*
X176900000Y-71306250D01*
X178900000Y-71306250D02*
X178900000Y-67406250D01*
X195962500Y-71306250D02*
X195962500Y-67406250D01*
X197962500Y-71306250D02*
X195962500Y-71306250D01*
X197962500Y-71306250D02*
X197962500Y-67406250D01*
X215012500Y-71306250D02*
X215012500Y-67406250D01*
X217012500Y-71306250D02*
X215012500Y-71306250D01*
X217012500Y-71306250D02*
X217012500Y-67406250D01*
X241206250Y-71306250D02*
X241206250Y-67406250D01*
X243206250Y-71306250D02*
X241206250Y-71306250D01*
X243206250Y-71306250D02*
X243206250Y-67406250D01*
X267400000Y-71306250D02*
X267400000Y-67406250D01*
X269400000Y-71306250D02*
X267400000Y-71306250D01*
X269400000Y-71306250D02*
X269400000Y-67406250D01*
X3081250Y-90356250D02*
X3081250Y-86456250D01*
X5081250Y-90356250D02*
X3081250Y-90356250D01*
X5081250Y-90356250D02*
X5081250Y-86456250D01*
X26893750Y-90356250D02*
X26893750Y-86456250D01*
X28893750Y-90356250D02*
X26893750Y-90356250D01*
X28893750Y-90356250D02*
X28893750Y-86456250D01*
X50681250Y-90356250D02*
X50681250Y-86456250D01*
X52681250Y-90356250D02*
X50681250Y-90356250D01*
X52681250Y-90356250D02*
X52681250Y-86456250D01*
X122143750Y-90356250D02*
X122143750Y-86456250D01*
X124143750Y-90356250D02*
X122143750Y-90356250D01*
X124143750Y-90356250D02*
X124143750Y-86456250D01*
X217312500Y-90356250D02*
X217312500Y-86456250D01*
X219312500Y-90356250D02*
X217312500Y-90356250D01*
X219312500Y-90356250D02*
X219312500Y-86456250D01*
X229300000Y-14156250D02*
X229300000Y-10256250D01*
X231300000Y-14156250D02*
X229300000Y-14156250D01*
X231300000Y-14156250D02*
X231300000Y-10256250D01*
X154320000Y-75361422D02*
X154320000Y-75878578D01*
X152900000Y-75361422D02*
X152900000Y-75878578D01*
X166788578Y-89310000D02*
X166271422Y-89310000D01*
X166788578Y-87890000D02*
X166271422Y-87890000D01*
X91187500Y-52256250D02*
X91187500Y-48356250D01*
X93187500Y-52256250D02*
X91187500Y-52256250D01*
X93187500Y-52256250D02*
X93187500Y-48356250D01*
X193500000Y-90356250D02*
X193500000Y-86456250D01*
X195500000Y-90356250D02*
X193500000Y-90356250D01*
X195500000Y-90356250D02*
X195500000Y-86456250D01*
X142485172Y-85978750D02*
X143002328Y-85978750D01*
X142485172Y-87398750D02*
X143002328Y-87398750D01*
X36613750Y-18403750D02*
X36613750Y-16603750D01*
X39833750Y-16603750D02*
X39833750Y-19053750D01*
X157683750Y-82200000D02*
X156958750Y-82200000D01*
X157683750Y-82925000D02*
X157683750Y-82200000D01*
X150463750Y-82925000D02*
X150463750Y-82200000D01*
X157683750Y-88695000D02*
X157683750Y-89420000D01*
X150463750Y-88695000D02*
X150463750Y-89420000D01*
X157683750Y-89420000D02*
X156958750Y-89420000D01*
X150463750Y-89420000D02*
X151188750Y-89420000D01*
X24087936Y-14180000D02*
X25292064Y-14180000D01*
X24087936Y-16000000D02*
X25292064Y-16000000D01*
X142485172Y-88370000D02*
X143002328Y-88370000D01*
X142485172Y-89790000D02*
X143002328Y-89790000D01*
X146560000Y-76061422D02*
X146560000Y-76578578D01*
X145140000Y-76061422D02*
X145140000Y-76578578D01*
X265018750Y-90356250D02*
X265018750Y-86456250D01*
X267018750Y-90356250D02*
X265018750Y-90356250D01*
X267018750Y-90356250D02*
X267018750Y-86456250D01*
X241206250Y-90356250D02*
X241206250Y-86456250D01*
X243206250Y-90356250D02*
X241206250Y-90356250D01*
X243206250Y-90356250D02*
X243206250Y-86456250D01*
X120806310Y-20550000D02*
X113506310Y-20550000D01*
X120806310Y-15050000D02*
X113506310Y-15050000D01*
X113506310Y-20550000D02*
X113506310Y-19400000D01*
X162536310Y-72200000D02*
X169836310Y-72200000D01*
X162536310Y-77700000D02*
X169836310Y-77700000D01*
X169836310Y-72200000D02*
X169836310Y-73350000D01*
X113506310Y-72200000D02*
X120806310Y-72200000D01*
X113506310Y-77700000D02*
X120806310Y-77700000D01*
X120806310Y-72200000D02*
X120806310Y-73350000D01*
X169836310Y-20550000D02*
X162536310Y-20550000D01*
X169836310Y-15050000D02*
X162536310Y-15050000D01*
X162536310Y-20550000D02*
X162536310Y-19400000D01*
X261596310Y-72200000D02*
X268896310Y-72200000D01*
X261596310Y-77700000D02*
X268896310Y-77700000D01*
X268896310Y-72200000D02*
X268896310Y-73350000D01*
X13946310Y-72200000D02*
X21246310Y-72200000D01*
X13946310Y-77700000D02*
X21246310Y-77700000D01*
X21246310Y-72200000D02*
X21246310Y-73350000D01*
X212066310Y-72200000D02*
X219366310Y-72200000D01*
X212066310Y-77700000D02*
X219366310Y-77700000D01*
X219366310Y-72200000D02*
X219366310Y-73350000D01*
X268896310Y-20550000D02*
X261596310Y-20550000D01*
X268896310Y-15050000D02*
X261596310Y-15050000D01*
X261596310Y-20550000D02*
X261596310Y-19400000D01*
X63476310Y-72200000D02*
X70776310Y-72200000D01*
X63476310Y-77700000D02*
X70776310Y-77700000D01*
X70776310Y-72200000D02*
X70776310Y-73350000D01*
X21246310Y-20550000D02*
X13946310Y-20550000D01*
X21246310Y-15050000D02*
X13946310Y-15050000D01*
X13946310Y-20550000D02*
X13946310Y-19400000D01*
X70776310Y-20550000D02*
X63476310Y-20550000D01*
X70776310Y-15050000D02*
X63476310Y-15050000D01*
X63476310Y-20550000D02*
X63476310Y-19400000D01*
X219366310Y-20550000D02*
X212066310Y-20550000D01*
X219366310Y-15050000D02*
X212066310Y-15050000D01*
X212066310Y-20550000D02*
X212066310Y-19400000D01*
%LPC*%
D12*
X3920000Y-9000000D03*
D13*
X5190000Y-6460000D03*
D14*
X9000000Y-9000000D03*
D13*
X11540000Y-3920000D03*
D12*
X14080000Y-9000000D03*
D15*
X1915000Y-6460000D03*
X14842000Y-3920000D03*
D12*
X22970000Y-9000000D03*
D13*
X24240000Y-6460000D03*
D14*
X28050000Y-9000000D03*
D13*
X30590000Y-3920000D03*
D12*
X33130000Y-9000000D03*
D15*
X20965000Y-6460000D03*
X33892000Y-3920000D03*
D12*
X42020000Y-9000000D03*
D13*
X43290000Y-6460000D03*
D14*
X47100000Y-9000000D03*
D13*
X49640000Y-3920000D03*
D12*
X52180000Y-9000000D03*
D15*
X40015000Y-6460000D03*
X52942000Y-3920000D03*
D12*
X61070000Y-9000000D03*
D13*
X62340000Y-6460000D03*
D14*
X66150000Y-9000000D03*
D13*
X68690000Y-3920000D03*
D12*
X71230000Y-9000000D03*
D15*
X59065000Y-6460000D03*
X71992000Y-3920000D03*
D12*
X80120000Y-9000000D03*
D13*
X81390000Y-6460000D03*
D14*
X85200000Y-9000000D03*
D13*
X87740000Y-3920000D03*
D12*
X90280000Y-9000000D03*
D15*
X78115000Y-6460000D03*
X91042000Y-3920000D03*
D12*
X99170000Y-9000000D03*
D13*
X100440000Y-6460000D03*
D14*
X104250000Y-9000000D03*
D13*
X106790000Y-3920000D03*
D12*
X109330000Y-9000000D03*
D15*
X97165000Y-6460000D03*
X110092000Y-3920000D03*
D12*
X118220000Y-9000000D03*
D13*
X119490000Y-6460000D03*
D14*
X123300000Y-9000000D03*
D13*
X125840000Y-3920000D03*
D12*
X128380000Y-9000000D03*
D15*
X116215000Y-6460000D03*
X129142000Y-3920000D03*
D12*
X156320000Y-9000000D03*
D13*
X157590000Y-6460000D03*
D14*
X161400000Y-9000000D03*
D13*
X163940000Y-3920000D03*
D12*
X166480000Y-9000000D03*
D15*
X154315000Y-6460000D03*
X167242000Y-3920000D03*
D12*
X175370000Y-9000000D03*
D13*
X176640000Y-6460000D03*
D14*
X180450000Y-9000000D03*
D13*
X182990000Y-3920000D03*
D12*
X185530000Y-9000000D03*
D15*
X173365000Y-6460000D03*
X186292000Y-3920000D03*
D12*
X194420000Y-9000000D03*
D13*
X195690000Y-6460000D03*
D14*
X199500000Y-9000000D03*
D13*
X202040000Y-3920000D03*
D12*
X204580000Y-9000000D03*
D15*
X192415000Y-6460000D03*
X205342000Y-3920000D03*
D12*
X213470000Y-9000000D03*
D13*
X214740000Y-6460000D03*
D14*
X218550000Y-9000000D03*
D13*
X221090000Y-3920000D03*
D12*
X223630000Y-9000000D03*
D15*
X211465000Y-6460000D03*
X224392000Y-3920000D03*
D12*
X232520000Y-9000000D03*
D13*
X233790000Y-6460000D03*
D14*
X237600000Y-9000000D03*
D13*
X240140000Y-3920000D03*
D12*
X242680000Y-9000000D03*
D15*
X230515000Y-6460000D03*
X243442000Y-3920000D03*
D16*
X254237000Y-2015000D03*
D14*
X254237000Y-17255000D03*
D12*
X261095000Y-9000000D03*
D13*
X262365000Y-6460000D03*
D14*
X266175000Y-9000000D03*
D13*
X268715000Y-3920000D03*
D12*
X271255000Y-9000000D03*
D16*
X278113000Y-2015000D03*
D14*
X278113000Y-17255000D03*
D15*
X259090000Y-6460000D03*
X272017000Y-3920000D03*
D12*
X8682500Y-28050000D03*
D13*
X9952500Y-25510000D03*
D14*
X13762500Y-28050000D03*
D13*
X16302500Y-22970000D03*
D12*
X18842500Y-28050000D03*
D15*
X6677500Y-25510000D03*
X19604500Y-22970000D03*
D12*
X32495000Y-28050000D03*
D13*
X33765000Y-25510000D03*
D14*
X37575000Y-28050000D03*
D13*
X40115000Y-22970000D03*
D12*
X42655000Y-28050000D03*
D15*
X30490000Y-25510000D03*
X43417000Y-22970000D03*
D12*
X51545000Y-28050000D03*
D13*
X52815000Y-25510000D03*
D14*
X56625000Y-28050000D03*
D13*
X59165000Y-22970000D03*
D12*
X61705000Y-28050000D03*
D15*
X49540000Y-25510000D03*
X62467000Y-22970000D03*
D12*
X70595000Y-28050000D03*
D13*
X71865000Y-25510000D03*
D14*
X75675000Y-28050000D03*
D13*
X78215000Y-22970000D03*
D12*
X80755000Y-28050000D03*
D15*
X68590000Y-25510000D03*
X81517000Y-22970000D03*
D12*
X89645000Y-28050000D03*
D13*
X90915000Y-25510000D03*
D14*
X94725000Y-28050000D03*
D13*
X97265000Y-22970000D03*
D12*
X99805000Y-28050000D03*
D15*
X87640000Y-25510000D03*
X100567000Y-22970000D03*
D12*
X127745000Y-28050000D03*
D13*
X129015000Y-25510000D03*
D14*
X132825000Y-28050000D03*
D13*
X135365000Y-22970000D03*
D12*
X137905000Y-28050000D03*
D15*
X125740000Y-25510000D03*
X138667000Y-22970000D03*
D12*
X146795000Y-28050000D03*
D13*
X148065000Y-25510000D03*
D14*
X151875000Y-28050000D03*
D13*
X154415000Y-22970000D03*
D12*
X156955000Y-28050000D03*
D15*
X144790000Y-25510000D03*
X157717000Y-22970000D03*
D12*
X165845000Y-28050000D03*
D13*
X167115000Y-25510000D03*
D14*
X170925000Y-28050000D03*
D13*
X173465000Y-22970000D03*
D12*
X176005000Y-28050000D03*
D15*
X163840000Y-25510000D03*
X176767000Y-22970000D03*
D12*
X184895000Y-28050000D03*
D13*
X186165000Y-25510000D03*
D14*
X189975000Y-28050000D03*
D13*
X192515000Y-22970000D03*
D12*
X195055000Y-28050000D03*
D15*
X182890000Y-25510000D03*
X195817000Y-22970000D03*
D12*
X203945000Y-28050000D03*
D13*
X205215000Y-25510000D03*
D14*
X209025000Y-28050000D03*
D13*
X211565000Y-22970000D03*
D12*
X214105000Y-28050000D03*
D15*
X201940000Y-25510000D03*
X214867000Y-22970000D03*
D12*
X222995000Y-28050000D03*
D13*
X224265000Y-25510000D03*
D14*
X228075000Y-28050000D03*
D13*
X230615000Y-22970000D03*
D12*
X233155000Y-28050000D03*
D15*
X220990000Y-25510000D03*
X233917000Y-22970000D03*
D12*
X242045000Y-28050000D03*
D13*
X243315000Y-25510000D03*
D14*
X247125000Y-28050000D03*
D13*
X249665000Y-22970000D03*
D12*
X252205000Y-28050000D03*
D15*
X240040000Y-25510000D03*
X252967000Y-22970000D03*
D12*
X265857500Y-28050000D03*
D13*
X267127500Y-25510000D03*
D14*
X270937500Y-28050000D03*
D13*
X273477500Y-22970000D03*
D12*
X276017500Y-28050000D03*
D15*
X263852500Y-25510000D03*
X276779500Y-22970000D03*
D12*
X11063750Y-47100000D03*
D13*
X12333750Y-44560000D03*
D14*
X16143750Y-47100000D03*
D13*
X18683750Y-42020000D03*
D12*
X21223750Y-47100000D03*
D15*
X9058750Y-44560000D03*
X21985750Y-42020000D03*
D12*
X37257500Y-47100000D03*
D13*
X38527500Y-44560000D03*
D14*
X42337500Y-47100000D03*
D13*
X44877500Y-42020000D03*
D12*
X47417500Y-47100000D03*
D15*
X35252500Y-44560000D03*
X48179500Y-42020000D03*
D12*
X56307500Y-47100000D03*
D13*
X57577500Y-44560000D03*
D14*
X61387500Y-47100000D03*
D13*
X63927500Y-42020000D03*
D12*
X66467500Y-47100000D03*
D15*
X54302500Y-44560000D03*
X67229500Y-42020000D03*
D12*
X75357500Y-47100000D03*
D13*
X76627500Y-44560000D03*
D14*
X80437500Y-47100000D03*
D13*
X82977500Y-42020000D03*
D12*
X85517500Y-47100000D03*
D15*
X73352500Y-44560000D03*
X86279500Y-42020000D03*
D12*
X94407500Y-47100000D03*
D13*
X95677500Y-44560000D03*
D14*
X99487500Y-47100000D03*
D13*
X102027500Y-42020000D03*
D12*
X104567500Y-47100000D03*
D15*
X92402500Y-44560000D03*
X105329500Y-42020000D03*
D12*
X113457500Y-47100000D03*
D13*
X114727500Y-44560000D03*
D14*
X118537500Y-47100000D03*
D13*
X121077500Y-42020000D03*
D12*
X123617500Y-47100000D03*
D15*
X111452500Y-44560000D03*
X124379500Y-42020000D03*
D12*
X132507500Y-47100000D03*
D13*
X133777500Y-44560000D03*
D14*
X137587500Y-47100000D03*
D13*
X140127500Y-42020000D03*
D12*
X142667500Y-47100000D03*
D15*
X130502500Y-44560000D03*
X143429500Y-42020000D03*
D12*
X151557500Y-47100000D03*
D13*
X152827500Y-44560000D03*
D14*
X156637500Y-47100000D03*
D13*
X159177500Y-42020000D03*
D12*
X161717500Y-47100000D03*
D15*
X149552500Y-44560000D03*
X162479500Y-42020000D03*
D12*
X170607500Y-47100000D03*
D13*
X171877500Y-44560000D03*
D14*
X175687500Y-47100000D03*
D13*
X178227500Y-42020000D03*
D12*
X180767500Y-47100000D03*
D15*
X168602500Y-44560000D03*
X181529500Y-42020000D03*
D12*
X189657500Y-47100000D03*
D13*
X190927500Y-44560000D03*
D14*
X194737500Y-47100000D03*
D13*
X197277500Y-42020000D03*
D12*
X199817500Y-47100000D03*
D15*
X187652500Y-44560000D03*
X200579500Y-42020000D03*
D12*
X208707500Y-47100000D03*
D13*
X209977500Y-44560000D03*
D14*
X213787500Y-47100000D03*
D13*
X216327500Y-42020000D03*
D12*
X218867500Y-47100000D03*
D15*
X206702500Y-44560000D03*
X219629500Y-42020000D03*
D12*
X227757500Y-47100000D03*
D13*
X229027500Y-44560000D03*
D14*
X232837500Y-47100000D03*
D13*
X235377500Y-42020000D03*
D12*
X237917500Y-47100000D03*
D15*
X225752500Y-44560000D03*
X238679500Y-42020000D03*
D16*
X251855750Y-40115000D03*
D14*
X251855750Y-55355000D03*
D12*
X258713750Y-47100000D03*
D13*
X259983750Y-44560000D03*
D14*
X263793750Y-47100000D03*
D13*
X266333750Y-42020000D03*
D12*
X268873750Y-47100000D03*
D16*
X275731750Y-40115000D03*
D14*
X275731750Y-55355000D03*
D15*
X256708750Y-44560000D03*
X269635750Y-42020000D03*
D16*
X8968250Y-59165000D03*
D14*
X8968250Y-74405000D03*
D12*
X15826250Y-66150000D03*
D13*
X17096250Y-63610000D03*
D14*
X20906250Y-66150000D03*
D13*
X23446250Y-61070000D03*
D12*
X25986250Y-66150000D03*
D16*
X32844250Y-59165000D03*
D14*
X32844250Y-74405000D03*
D15*
X13821250Y-63610000D03*
X26748250Y-61070000D03*
D12*
X46782500Y-66150000D03*
D13*
X48052500Y-63610000D03*
D14*
X51862500Y-66150000D03*
D13*
X54402500Y-61070000D03*
D12*
X56942500Y-66150000D03*
D15*
X44777500Y-63610000D03*
X57704500Y-61070000D03*
D12*
X65832500Y-66150000D03*
D13*
X67102500Y-63610000D03*
D14*
X70912500Y-66150000D03*
D13*
X73452500Y-61070000D03*
D12*
X75992500Y-66150000D03*
D15*
X63827500Y-63610000D03*
X76754500Y-61070000D03*
D12*
X84882500Y-66150000D03*
D13*
X86152500Y-63610000D03*
D14*
X89962500Y-66150000D03*
D13*
X92502500Y-61070000D03*
D12*
X95042500Y-66150000D03*
D15*
X82877500Y-63610000D03*
X95804500Y-61070000D03*
D12*
X103932500Y-66150000D03*
D13*
X105202500Y-63610000D03*
D14*
X109012500Y-66150000D03*
D13*
X111552500Y-61070000D03*
D12*
X114092500Y-66150000D03*
D15*
X101927500Y-63610000D03*
X114854500Y-61070000D03*
D12*
X122982500Y-66150000D03*
D13*
X124252500Y-63610000D03*
D14*
X128062500Y-66150000D03*
D13*
X130602500Y-61070000D03*
D12*
X133142500Y-66150000D03*
D15*
X120977500Y-63610000D03*
X133904500Y-61070000D03*
D12*
X142032500Y-66150000D03*
D13*
X143302500Y-63610000D03*
D14*
X147112500Y-66150000D03*
D13*
X149652500Y-61070000D03*
D12*
X152192500Y-66150000D03*
D15*
X140027500Y-63610000D03*
X152954500Y-61070000D03*
D12*
X161082500Y-66150000D03*
D13*
X162352500Y-63610000D03*
D14*
X166162500Y-66150000D03*
D13*
X168702500Y-61070000D03*
D12*
X171242500Y-66150000D03*
D15*
X159077500Y-63610000D03*
X172004500Y-61070000D03*
D12*
X180132500Y-66150000D03*
D13*
X181402500Y-63610000D03*
D14*
X185212500Y-66150000D03*
D13*
X187752500Y-61070000D03*
D12*
X190292500Y-66150000D03*
D15*
X178127500Y-63610000D03*
X191054500Y-61070000D03*
D12*
X199182500Y-66150000D03*
D13*
X200452500Y-63610000D03*
D14*
X204262500Y-66150000D03*
D13*
X206802500Y-61070000D03*
D12*
X209342500Y-66150000D03*
D15*
X197177500Y-63610000D03*
X210104500Y-61070000D03*
D12*
X218232500Y-66150000D03*
D13*
X219502500Y-63610000D03*
D14*
X223312500Y-66150000D03*
D13*
X225852500Y-61070000D03*
D12*
X228392500Y-66150000D03*
D15*
X216227500Y-63610000D03*
X229154500Y-61070000D03*
D12*
X244426250Y-66150000D03*
D13*
X245696250Y-63610000D03*
D14*
X249506250Y-66150000D03*
D13*
X252046250Y-61070000D03*
D12*
X254586250Y-66150000D03*
D15*
X242421250Y-63610000D03*
X255348250Y-61070000D03*
D12*
X270620000Y-66150000D03*
D13*
X271890000Y-63610000D03*
D14*
X275700000Y-66150000D03*
D13*
X278240000Y-61070000D03*
D12*
X280780000Y-66150000D03*
D15*
X268615000Y-63610000D03*
X281542000Y-61070000D03*
D12*
X196801250Y-85200000D03*
D13*
X198071250Y-82660000D03*
D14*
X201881250Y-85200000D03*
D13*
X204421250Y-80120000D03*
D12*
X206961250Y-85200000D03*
D15*
X194796250Y-82660000D03*
X207723250Y-80120000D03*
D12*
X244426250Y-85200000D03*
D13*
X245696250Y-82660000D03*
D14*
X249506250Y-85200000D03*
D13*
X252046250Y-80120000D03*
D12*
X254586250Y-85200000D03*
D15*
X242421250Y-82660000D03*
X255348250Y-80120000D03*
D12*
X220613750Y-85200000D03*
D13*
X221883750Y-82660000D03*
D14*
X225693750Y-85200000D03*
D13*
X228233750Y-80120000D03*
D12*
X230773750Y-85200000D03*
D15*
X218608750Y-82660000D03*
X231535750Y-80120000D03*
D12*
X137270000Y-9000000D03*
D13*
X138540000Y-6460000D03*
D14*
X142350000Y-9000000D03*
D13*
X144890000Y-3920000D03*
D12*
X147430000Y-9000000D03*
D15*
X135265000Y-6460000D03*
X148192000Y-3920000D03*
D12*
X6301250Y-85200000D03*
D13*
X7571250Y-82660000D03*
D14*
X11381250Y-85200000D03*
D13*
X13921250Y-80120000D03*
D12*
X16461250Y-85200000D03*
D15*
X4296250Y-82660000D03*
X17223250Y-80120000D03*
D12*
X30113750Y-85200000D03*
D13*
X31383750Y-82660000D03*
D14*
X35193750Y-85200000D03*
D13*
X37733750Y-80120000D03*
D12*
X40273750Y-85200000D03*
D15*
X28108750Y-82660000D03*
X41035750Y-80120000D03*
D12*
X53926250Y-85200000D03*
D13*
X55196250Y-82660000D03*
D14*
X59006250Y-85200000D03*
D13*
X61546250Y-80120000D03*
D12*
X64086250Y-85200000D03*
D15*
X51921250Y-82660000D03*
X64848250Y-80120000D03*
D14*
X80443850Y-76945000D03*
D16*
X80443850Y-92185000D03*
D12*
X125363750Y-85200000D03*
D13*
X126633750Y-82660000D03*
D14*
X130443750Y-85200000D03*
D13*
X132983750Y-80120000D03*
D12*
X135523750Y-85200000D03*
D14*
X180443650Y-76945000D03*
D16*
X180443650Y-92185000D03*
D15*
X123358750Y-82660000D03*
X136285750Y-80120000D03*
D12*
X268288750Y-85200000D03*
D13*
X269558750Y-82660000D03*
D14*
X273368750Y-85200000D03*
D13*
X275908750Y-80120000D03*
D12*
X278448750Y-85200000D03*
D15*
X266283750Y-82660000D03*
X279210750Y-80120000D03*
D17*
X167000000Y-54400000D03*
X167000000Y-56940000D03*
X164460000Y-54400000D03*
X164460000Y-56940000D03*
X161920000Y-54400000D03*
D18*
X161920000Y-56940000D03*
D12*
X108695000Y-28050000D03*
D13*
X109965000Y-25510000D03*
D14*
X113775000Y-28050000D03*
D13*
X116315000Y-22970000D03*
D12*
X118855000Y-28050000D03*
D15*
X106690000Y-25510000D03*
X119617000Y-22970000D03*
D19*
X45000000Y-16003750D03*
X45000000Y-17003750D03*
X45000000Y-18003750D03*
X45000000Y-19003750D03*
D20*
X48875000Y-14703750D03*
X48875000Y-20303750D03*
D21*
X31402500Y-18753750D03*
X33277500Y-18753750D03*
X31402500Y-16253750D03*
X33277500Y-16253750D03*
D22*
X177663750Y-85515000D03*
X183963750Y-85515000D03*
X177663750Y-81715000D03*
X183963750Y-81715000D03*
D23*
X167467500Y-83000000D03*
X165592500Y-83000000D03*
X160937500Y-89450000D03*
X159062500Y-89450000D03*
D24*
X167630000Y-86650000D03*
X165430000Y-86650000D03*
X165430000Y-84950000D03*
X167630000Y-84950000D03*
D25*
X162730000Y-81112500D03*
X162730000Y-82987500D03*
X175280000Y-81712500D03*
X175280000Y-83587500D03*
D26*
X1681250Y-13556250D03*
X1681250Y-10256250D03*
X20750000Y-13556250D03*
X20750000Y-10256250D03*
X39800000Y-13556250D03*
X39800000Y-10256250D03*
X58850000Y-13556250D03*
X58850000Y-10256250D03*
X77900000Y-13556250D03*
X77900000Y-10256250D03*
X96950000Y-13556250D03*
X96950000Y-10256250D03*
X116000000Y-13556250D03*
X116000000Y-10256250D03*
X135050000Y-13556250D03*
X135050000Y-10256250D03*
X154100000Y-13556250D03*
X154100000Y-10256250D03*
X173150000Y-13556250D03*
X173150000Y-10256250D03*
X192200000Y-13556250D03*
X192200000Y-10256250D03*
X211250000Y-13556250D03*
X211250000Y-10256250D03*
X258875000Y-13556250D03*
X258875000Y-10256250D03*
X6462500Y-32606250D03*
X6462500Y-29306250D03*
X30275000Y-32606250D03*
X30275000Y-29306250D03*
X49325000Y-32606250D03*
X49325000Y-29306250D03*
X68375000Y-32606250D03*
X68375000Y-29306250D03*
X87425000Y-32606250D03*
X87425000Y-29306250D03*
X106475000Y-32606250D03*
X106475000Y-29306250D03*
X125525000Y-32606250D03*
X125525000Y-29306250D03*
X144575000Y-32606250D03*
X144575000Y-29306250D03*
X163625000Y-32606250D03*
X163625000Y-29306250D03*
X182675000Y-32606250D03*
X182675000Y-29306250D03*
X201725000Y-32606250D03*
X201725000Y-29306250D03*
X220775000Y-32606250D03*
X220775000Y-29306250D03*
X239825000Y-32606250D03*
X239825000Y-29306250D03*
X263637500Y-32606250D03*
X263637500Y-29306250D03*
X8843750Y-51656250D03*
X8843750Y-48356250D03*
X35037500Y-51656250D03*
X35037500Y-48356250D03*
X54087500Y-51656250D03*
X54087500Y-48356250D03*
X73137500Y-51656250D03*
X73137500Y-48356250D03*
X111237500Y-51656250D03*
X111237500Y-48356250D03*
X130287500Y-51656250D03*
X130287500Y-48356250D03*
X149337500Y-51656250D03*
X149337500Y-48356250D03*
X168387500Y-51656250D03*
X168387500Y-48356250D03*
X187437500Y-51656250D03*
X187437500Y-48356250D03*
X206487500Y-51656250D03*
X206487500Y-48356250D03*
X225537500Y-51656250D03*
X225537500Y-48356250D03*
X256493750Y-51656250D03*
X256493750Y-48356250D03*
X13606250Y-70706250D03*
X13606250Y-67406250D03*
X44562500Y-70706250D03*
X44562500Y-67406250D03*
X63612500Y-70706250D03*
X63612500Y-67406250D03*
X82662500Y-70706250D03*
X82662500Y-67406250D03*
X101712500Y-70706250D03*
X101712500Y-67406250D03*
X120762500Y-70706250D03*
X120762500Y-67406250D03*
X139812500Y-70706250D03*
X139812500Y-67406250D03*
X158862500Y-70706250D03*
X158862500Y-67406250D03*
X177900000Y-70706250D03*
X177900000Y-67406250D03*
X196962500Y-70706250D03*
X196962500Y-67406250D03*
X216012500Y-70706250D03*
X216012500Y-67406250D03*
X242206250Y-70706250D03*
X242206250Y-67406250D03*
X268400000Y-70706250D03*
X268400000Y-67406250D03*
X4081250Y-89756250D03*
X4081250Y-86456250D03*
X27893750Y-89756250D03*
X27893750Y-86456250D03*
X51681250Y-89756250D03*
X51681250Y-86456250D03*
X123143750Y-89756250D03*
X123143750Y-86456250D03*
X218312500Y-89756250D03*
X218312500Y-86456250D03*
X230300000Y-13556250D03*
X230300000Y-10256250D03*
D25*
X153610000Y-74682500D03*
X153610000Y-76557500D03*
D23*
X167467500Y-88600000D03*
X165592500Y-88600000D03*
D26*
X92187500Y-51656250D03*
X92187500Y-48356250D03*
X194500000Y-89756250D03*
X194500000Y-86456250D03*
D21*
X141806250Y-86688750D03*
X143681250Y-86688750D03*
D27*
X39173750Y-18603750D03*
X38223750Y-18603750D03*
X37273750Y-18603750D03*
X37273750Y-16403750D03*
X38223750Y-16403750D03*
X39173750Y-16403750D03*
D28*
X151573750Y-82472500D03*
X152073750Y-82472500D03*
X152573750Y-82472500D03*
X153073750Y-82472500D03*
X153573750Y-82472500D03*
X154073750Y-82472500D03*
X154573750Y-82472500D03*
X155073750Y-82472500D03*
X155573750Y-82472500D03*
X156073750Y-82472500D03*
X156573750Y-82472500D03*
D29*
X157411250Y-83310000D03*
X157411250Y-83810000D03*
X157411250Y-84310000D03*
X157411250Y-84810000D03*
X157411250Y-85310000D03*
X157411250Y-85810000D03*
X157411250Y-86310000D03*
X157411250Y-86810000D03*
X157411250Y-87310000D03*
X157411250Y-87810000D03*
X157411250Y-88310000D03*
D28*
X156573750Y-89147500D03*
X156073750Y-89147500D03*
X155573750Y-89147500D03*
X155073750Y-89147500D03*
X154573750Y-89147500D03*
X154073750Y-89147500D03*
X153573750Y-89147500D03*
X153073750Y-89147500D03*
X152573750Y-89147500D03*
X152073750Y-89147500D03*
X151573750Y-89147500D03*
D29*
X150736250Y-88310000D03*
X150736250Y-87810000D03*
X150736250Y-87310000D03*
X150736250Y-86810000D03*
X150736250Y-86310000D03*
X150736250Y-85810000D03*
X150736250Y-85310000D03*
X150736250Y-84810000D03*
X150736250Y-84310000D03*
X150736250Y-83810000D03*
X150736250Y-83310000D03*
D30*
X154073750Y-85810000D03*
D31*
X23290000Y-15090000D03*
X26090000Y-15090000D03*
D21*
X141806250Y-89080000D03*
X143681250Y-89080000D03*
D25*
X145850000Y-75382500D03*
X145850000Y-77257500D03*
D26*
X266018750Y-89756250D03*
X266018750Y-86456250D03*
X242206250Y-89756250D03*
X242206250Y-86456250D03*
D32*
X119606310Y-16150000D03*
X119606310Y-19450000D03*
X114706310Y-19450000D03*
X114706310Y-16150000D03*
D33*
X163736310Y-76600000D03*
X163736310Y-73300000D03*
X168636310Y-73300000D03*
X168636310Y-76600000D03*
X114706310Y-76600000D03*
X114706310Y-73300000D03*
X119606310Y-73300000D03*
X119606310Y-76600000D03*
D32*
X168636310Y-16150000D03*
X168636310Y-19450000D03*
X163736310Y-19450000D03*
X163736310Y-16150000D03*
D33*
X262796310Y-76600000D03*
X262796310Y-73300000D03*
X267696310Y-73300000D03*
X267696310Y-76600000D03*
X15146310Y-76600000D03*
X15146310Y-73300000D03*
X20046310Y-73300000D03*
X20046310Y-76600000D03*
X213266310Y-76600000D03*
X213266310Y-73300000D03*
X218166310Y-73300000D03*
X218166310Y-76600000D03*
D32*
X267696310Y-16150000D03*
X267696310Y-19450000D03*
X262796310Y-19450000D03*
X262796310Y-16150000D03*
D33*
X64676310Y-76600000D03*
X64676310Y-73300000D03*
X69576310Y-73300000D03*
X69576310Y-76600000D03*
D32*
X20046310Y-16150000D03*
X20046310Y-19450000D03*
X15146310Y-19450000D03*
X15146310Y-16150000D03*
X69576310Y-16150000D03*
X69576310Y-19450000D03*
X64676310Y-19450000D03*
X64676310Y-16150000D03*
X218166310Y-16150000D03*
X218166310Y-19450000D03*
X213266310Y-19450000D03*
X213266310Y-16150000D03*
M02*
