M48
; DRILL file {KiCad 7.0.1} date Wed May 31 09:22:38 2023
; FORMAT={-:-/ absolute / inch / decimal}
; #@! TF.CreationDate,2023-05-31T09:22:38+05:30
; #@! TF.GenerationSoftware,Kicad,Pcbnew,7.0.1
; #@! TF.FileFunction,Plated,1,2,PTH
FMAT,2
INCH
; #@! TA.AperFunction,Plated,PTH,ViaDrill
T1C0.0157
; #@! TA.AperFunction,Plated,PTH,ComponentDrill
T2C0.0394
%
G90
G05
T1
X0.5963Y-3.0157
X0.6587Y-0.4736
X0.6587Y-0.576
X0.6693Y-0.7638
X0.7858Y-1.2839
X0.8819Y-0.8583
X0.9055Y-3.0472
X0.9177Y-0.7008
X0.9839Y-2.0339
X1.0236Y-3.0157
X1.0421Y-1.2839
X1.0594Y-2.7835
X1.1102Y-2.6929
X1.1181Y-0.5039
X1.1339Y-0.7784
X1.2394Y-2.0343
X1.2413Y-2.5855
X1.4087Y-0.4736
X1.4673Y-0.815
X1.5087Y-2.7831
X1.6149Y-2.7087
X1.6165Y-2.961
X1.7848Y-1.2248
X1.7848Y-1.3272
X1.7866Y-2.0921
X1.787Y-1.972
X2.1587Y-0.4736
X2.2173Y-0.815
X2.3649Y-2.7087
X2.3665Y-2.961
X2.4567Y-0.6378
X2.4724Y-2.8901
X2.5348Y-1.2248
X2.5348Y-1.3272
X2.5366Y-2.0921
X2.537Y-1.972
X2.6457Y-2.8185
X2.6457Y-2.8819
X2.7402Y-0.5035
X2.7402Y-0.5669
X2.8346Y-3.0157
X2.9087Y-0.4736
X2.9087Y-0.576
X3.1149Y-2.7087
X3.1417Y-0.7717
X3.1417Y-0.811
X3.2764Y-2.9594
X3.2848Y-1.2248
X3.2848Y-1.3272
X3.2866Y-2.0921
X3.287Y-1.972
X3.6587Y-0.4736
X3.6587Y-0.576
X3.8649Y-2.7087
X3.8665Y-2.961
X4.0348Y-1.2248
X4.0348Y-1.3272
X4.0366Y-2.0921
X4.037Y-1.972
X4.4087Y-0.4736
X4.4087Y-0.576
X4.4409Y-2.8898
X4.516Y-0.6358
X4.516Y-0.7657
X4.6149Y-2.7087
X4.6165Y-2.961
X4.7087Y-0.5035
X4.7087Y-0.5594
X4.7848Y-1.2248
X4.7848Y-1.3272
X4.7866Y-2.0921
X4.787Y-1.972
X5.1587Y-0.4736
X5.1587Y-0.576
X5.3071Y-3.0236
X5.3649Y-2.7087
X5.3665Y-2.961
X5.5348Y-1.2248
X5.5348Y-1.3272
X5.5366Y-2.0921
X5.537Y-1.972
X5.6195Y-3.3616
X5.7047Y-3.0909
X5.7244Y-2.8819
X5.7795Y-3.0906
X5.8435Y-3.1579
X5.8484Y-3.0421
X5.8533Y-2.866
X5.9087Y-0.4736
X5.9087Y-0.576
X5.9419Y-3.088
X6.0846Y-2.7087
X6.0846Y-2.8969
X6.0996Y-3.0876
X6.1024Y-2.5039
X6.1496Y-2.811
X6.1861Y-2.811
X6.2126Y-2.8898
X6.2848Y-1.2248
X6.2848Y-1.3272
X6.2866Y-2.0921
X6.287Y-1.972
X6.3004Y-3.4024
X6.3004Y-3.465
X6.3287Y-3.3657
X6.3287Y-3.4374
X6.3702Y-3.0594
X6.3811Y-3.0992
X6.4311Y-3.1492
X6.4311Y-3.4094
X6.4463Y-0.7657
X6.5534Y-3.1965
X6.5591Y-3.063
X6.6142Y-0.5035
X6.6142Y-0.5827
X6.6587Y-0.4736
X6.6587Y-0.5827
X6.6693Y-2.811
X6.7134Y-2.7087
X6.7134Y-2.8661
X6.7559Y-0.7087
X6.7638Y-2.2677
X6.8055Y-2.3095
X6.8169Y-0.5969
X6.8372Y-3.1572
X6.8736Y-2.9523
X6.874Y-2.748
X7.0039Y-2.8583
X7.0158Y-1.2231
X7.0158Y-1.3272
X7.0366Y-2.0921
X7.037Y-1.972
X7.1917Y-1.3476
X7.3701Y-2.9764
X7.3799Y-2.1138
X7.4087Y-0.4736
X7.4087Y-0.576
X7.6063Y-0.7008
X7.6149Y-2.7087
X7.6153Y-2.8583
X7.7848Y-1.2248
X7.7848Y-1.3272
X7.7866Y-2.0921
X7.787Y-1.972
X8.1587Y-0.4736
X8.1587Y-0.576
X8.3228Y-0.6457
X8.3465Y-2.8425
X8.3649Y-2.7087
X8.3937Y-3.063
X8.3963Y-0.7657
X8.5348Y-1.2248
X8.5348Y-1.3272
X8.5366Y-2.0921
X8.537Y-1.972
X8.5892Y-2.8858
X8.5906Y-0.5035
X8.5906Y-0.5669
X8.6693Y-3.0157
X8.9098Y-0.4748
X8.9098Y-0.5772
X9.1149Y-2.7087
X9.1153Y-2.8583
X9.1207Y-3.4278
X9.2848Y-1.2248
X9.2848Y-1.3272
X9.2866Y-2.0921
X9.287Y-1.972
X9.3937Y-3.063
X9.6587Y-0.4748
X9.6587Y-0.5772
X9.9921Y-3.063
X9.9961Y-1.9575
X10.0348Y-1.2248
X10.0348Y-1.3272
X10.0524Y-2.1098
X10.2835Y-2.8744
X10.3335Y-2.7087
X10.3463Y-0.7657
X10.3465Y-2.9449
X10.3465Y-3.063
X10.4646Y-2.8898
X10.4646Y-3.0157
X10.7837Y-0.4748
X10.7837Y-0.5772
X10.9335Y-1.9571
X10.9723Y-1.2248
X10.9723Y-1.3272
X11.0843Y-2.7058
X11.0843Y-2.8744
X11.0854Y-2.1075
T2
X6.3748Y-2.1417
X6.3748Y-2.2417
X6.4748Y-2.1417
X6.4748Y-2.2417
X6.5748Y-2.1417
X6.5748Y-2.2417
T0
M30
