G04 #@! TF.GenerationSoftware,KiCad,Pcbnew,7.0.1*
G04 #@! TF.CreationDate,2023-05-31T09:22:42+05:30*
G04 #@! TF.ProjectId,glowie60,676c6f77-6965-4363-902e-6b696361645f,rev?*
G04 #@! TF.SameCoordinates,Original*
G04 #@! TF.FileFunction,Paste,Bot*
G04 #@! TF.FilePolarity,Positive*
%FSLAX46Y46*%
G04 Gerber Fmt 4.6, Leading zero omitted, Abs format (unit mm)*
G04 Created by KiCad (PCBNEW 7.0.1) date 2023-05-31 09:22:42*
%MOMM*%
%LPD*%
G01*
G04 APERTURE LIST*
G04 Aperture macros list*
%AMRoundRect*
0 Rectangle with rounded corners*
0 $1 Rounding radius*
0 $2 $3 $4 $5 $6 $7 $8 $9 X,Y pos of 4 corners*
0 Add a 4 corners polygon primitive as box body*
4,1,4,$2,$3,$4,$5,$6,$7,$8,$9,$2,$3,0*
0 Add four circle primitives for the rounded corners*
1,1,$1+$1,$2,$3*
1,1,$1+$1,$4,$5*
1,1,$1+$1,$6,$7*
1,1,$1+$1,$8,$9*
0 Add four rect primitives between the rounded corners*
20,1,$1+$1,$2,$3,$4,$5,0*
20,1,$1+$1,$4,$5,$6,$7,0*
20,1,$1+$1,$6,$7,$8,$9,0*
20,1,$1+$1,$8,$9,$2,$3,0*%
G04 Aperture macros list end*
%ADD10R,2.550000X2.500000*%
%ADD11RoundRect,0.150000X-0.625000X0.150000X-0.625000X-0.150000X0.625000X-0.150000X0.625000X0.150000X0*%
%ADD12RoundRect,0.249999X-0.650001X0.350001X-0.650001X-0.350001X0.650001X-0.350001X0.650001X0.350001X0*%
%ADD13RoundRect,0.243750X-0.243750X-0.456250X0.243750X-0.456250X0.243750X0.456250X-0.243750X0.456250X0*%
%ADD14R,1.700000X1.000000*%
%ADD15RoundRect,0.243750X0.243750X0.456250X-0.243750X0.456250X-0.243750X-0.456250X0.243750X-0.456250X0*%
%ADD16R,1.400000X1.200000*%
%ADD17RoundRect,0.243750X-0.456250X0.243750X-0.456250X-0.243750X0.456250X-0.243750X0.456250X0.243750X0*%
%ADD18R,1.200000X0.900000*%
%ADD19R,0.650000X1.060000*%
%ADD20RoundRect,0.250000X-0.275000X0.275000X-0.275000X-0.275000X0.275000X-0.275000X0.275000X0.275000X0*%
%ADD21RoundRect,0.062500X-0.062500X0.475000X-0.062500X-0.475000X0.062500X-0.475000X0.062500X0.475000X0*%
%ADD22RoundRect,0.062500X-0.475000X0.062500X-0.475000X-0.062500X0.475000X-0.062500X0.475000X0.062500X0*%
%ADD23RoundRect,0.250000X-0.375000X-0.625000X0.375000X-0.625000X0.375000X0.625000X-0.375000X0.625000X0*%
%ADD24R,1.500000X0.900000*%
G04 APERTURE END LIST*
D10*
X1915000Y-6460000D03*
X14842000Y-3920000D03*
X20965000Y-6460000D03*
X33892000Y-3920000D03*
X40015000Y-6460000D03*
X52942000Y-3920000D03*
X59065000Y-6460000D03*
X71992000Y-3920000D03*
X78115000Y-6460000D03*
X91042000Y-3920000D03*
X97165000Y-6460000D03*
X110092000Y-3920000D03*
X116215000Y-6460000D03*
X129142000Y-3920000D03*
X154315000Y-6460000D03*
X167242000Y-3920000D03*
X173365000Y-6460000D03*
X186292000Y-3920000D03*
X192415000Y-6460000D03*
X205342000Y-3920000D03*
X211465000Y-6460000D03*
X224392000Y-3920000D03*
X230515000Y-6460000D03*
X243442000Y-3920000D03*
X259090000Y-6460000D03*
X272017000Y-3920000D03*
X6677500Y-25510000D03*
X19604500Y-22970000D03*
X30490000Y-25510000D03*
X43417000Y-22970000D03*
X49540000Y-25510000D03*
X62467000Y-22970000D03*
X68590000Y-25510000D03*
X81517000Y-22970000D03*
X87640000Y-25510000D03*
X100567000Y-22970000D03*
X125740000Y-25510000D03*
X138667000Y-22970000D03*
X144790000Y-25510000D03*
X157717000Y-22970000D03*
X163840000Y-25510000D03*
X176767000Y-22970000D03*
X182890000Y-25510000D03*
X195817000Y-22970000D03*
X201940000Y-25510000D03*
X214867000Y-22970000D03*
X220990000Y-25510000D03*
X233917000Y-22970000D03*
X240040000Y-25510000D03*
X252967000Y-22970000D03*
X263852500Y-25510000D03*
X276779500Y-22970000D03*
X9058750Y-44560000D03*
X21985750Y-42020000D03*
X35252500Y-44560000D03*
X48179500Y-42020000D03*
X54302500Y-44560000D03*
X67229500Y-42020000D03*
X73352500Y-44560000D03*
X86279500Y-42020000D03*
X92402500Y-44560000D03*
X105329500Y-42020000D03*
X111452500Y-44560000D03*
X124379500Y-42020000D03*
X130502500Y-44560000D03*
X143429500Y-42020000D03*
X149552500Y-44560000D03*
X162479500Y-42020000D03*
X168602500Y-44560000D03*
X181529500Y-42020000D03*
X187652500Y-44560000D03*
X200579500Y-42020000D03*
X206702500Y-44560000D03*
X219629500Y-42020000D03*
X225752500Y-44560000D03*
X238679500Y-42020000D03*
X256708750Y-44560000D03*
X269635750Y-42020000D03*
X13821250Y-63610000D03*
X26748250Y-61070000D03*
X44777500Y-63610000D03*
X57704500Y-61070000D03*
X63827500Y-63610000D03*
X76754500Y-61070000D03*
X82877500Y-63610000D03*
X95804500Y-61070000D03*
X101927500Y-63610000D03*
X114854500Y-61070000D03*
X120977500Y-63610000D03*
X133904500Y-61070000D03*
X140027500Y-63610000D03*
X152954500Y-61070000D03*
X159077500Y-63610000D03*
X172004500Y-61070000D03*
X178127500Y-63610000D03*
X191054500Y-61070000D03*
X197177500Y-63610000D03*
X210104500Y-61070000D03*
X216227500Y-63610000D03*
X229154500Y-61070000D03*
X242421250Y-63610000D03*
X255348250Y-61070000D03*
X268615000Y-63610000D03*
X281542000Y-61070000D03*
X194796250Y-82660000D03*
X207723250Y-80120000D03*
X242421250Y-82660000D03*
X255348250Y-80120000D03*
X218608750Y-82660000D03*
X231535750Y-80120000D03*
X135265000Y-6460000D03*
X148192000Y-3920000D03*
X4296250Y-82660000D03*
X17223250Y-80120000D03*
X28108750Y-82660000D03*
X41035750Y-80120000D03*
X51921250Y-82660000D03*
X64848250Y-80120000D03*
X123358750Y-82660000D03*
X136285750Y-80120000D03*
X266283750Y-82660000D03*
X279210750Y-80120000D03*
X106690000Y-25510000D03*
X119617000Y-22970000D03*
D11*
X45000000Y-16003750D03*
X45000000Y-17003750D03*
X45000000Y-18003750D03*
X45000000Y-19003750D03*
D12*
X48875000Y-14703750D03*
X48875000Y-20303750D03*
D13*
X31402500Y-18753750D03*
X33277500Y-18753750D03*
X31402500Y-16253750D03*
X33277500Y-16253750D03*
D14*
X177663750Y-85515000D03*
X183963750Y-85515000D03*
X177663750Y-81715000D03*
X183963750Y-81715000D03*
D15*
X167467500Y-83000000D03*
X165592500Y-83000000D03*
X160937500Y-89450000D03*
X159062500Y-89450000D03*
D16*
X167630000Y-86650000D03*
X165430000Y-86650000D03*
X165430000Y-84950000D03*
X167630000Y-84950000D03*
D17*
X162730000Y-81112500D03*
X162730000Y-82987500D03*
X175280000Y-81712500D03*
X175280000Y-83587500D03*
D18*
X1681250Y-13556250D03*
X1681250Y-10256250D03*
X20750000Y-13556250D03*
X20750000Y-10256250D03*
X39800000Y-13556250D03*
X39800000Y-10256250D03*
X58850000Y-13556250D03*
X58850000Y-10256250D03*
X77900000Y-13556250D03*
X77900000Y-10256250D03*
X96950000Y-13556250D03*
X96950000Y-10256250D03*
X116000000Y-13556250D03*
X116000000Y-10256250D03*
X135050000Y-13556250D03*
X135050000Y-10256250D03*
X154100000Y-13556250D03*
X154100000Y-10256250D03*
X173150000Y-13556250D03*
X173150000Y-10256250D03*
X192200000Y-13556250D03*
X192200000Y-10256250D03*
X211250000Y-13556250D03*
X211250000Y-10256250D03*
X258875000Y-13556250D03*
X258875000Y-10256250D03*
X6462500Y-32606250D03*
X6462500Y-29306250D03*
X30275000Y-32606250D03*
X30275000Y-29306250D03*
X49325000Y-32606250D03*
X49325000Y-29306250D03*
X68375000Y-32606250D03*
X68375000Y-29306250D03*
X87425000Y-32606250D03*
X87425000Y-29306250D03*
X106475000Y-32606250D03*
X106475000Y-29306250D03*
X125525000Y-32606250D03*
X125525000Y-29306250D03*
X144575000Y-32606250D03*
X144575000Y-29306250D03*
X163625000Y-32606250D03*
X163625000Y-29306250D03*
X182675000Y-32606250D03*
X182675000Y-29306250D03*
X201725000Y-32606250D03*
X201725000Y-29306250D03*
X220775000Y-32606250D03*
X220775000Y-29306250D03*
X239825000Y-32606250D03*
X239825000Y-29306250D03*
X263637500Y-32606250D03*
X263637500Y-29306250D03*
X8843750Y-51656250D03*
X8843750Y-48356250D03*
X35037500Y-51656250D03*
X35037500Y-48356250D03*
X54087500Y-51656250D03*
X54087500Y-48356250D03*
X73137500Y-51656250D03*
X73137500Y-48356250D03*
X111237500Y-51656250D03*
X111237500Y-48356250D03*
X130287500Y-51656250D03*
X130287500Y-48356250D03*
X149337500Y-51656250D03*
X149337500Y-48356250D03*
X168387500Y-51656250D03*
X168387500Y-48356250D03*
X187437500Y-51656250D03*
X187437500Y-48356250D03*
X206487500Y-51656250D03*
X206487500Y-48356250D03*
X225537500Y-51656250D03*
X225537500Y-48356250D03*
X256493750Y-51656250D03*
X256493750Y-48356250D03*
X13606250Y-70706250D03*
X13606250Y-67406250D03*
X44562500Y-70706250D03*
X44562500Y-67406250D03*
X63612500Y-70706250D03*
X63612500Y-67406250D03*
X82662500Y-70706250D03*
X82662500Y-67406250D03*
X101712500Y-70706250D03*
X101712500Y-67406250D03*
X120762500Y-70706250D03*
X120762500Y-67406250D03*
X139812500Y-70706250D03*
X139812500Y-67406250D03*
X158862500Y-70706250D03*
X158862500Y-67406250D03*
X177900000Y-70706250D03*
X177900000Y-67406250D03*
X196962500Y-70706250D03*
X196962500Y-67406250D03*
X216012500Y-70706250D03*
X216012500Y-67406250D03*
X242206250Y-70706250D03*
X242206250Y-67406250D03*
X268400000Y-70706250D03*
X268400000Y-67406250D03*
X4081250Y-89756250D03*
X4081250Y-86456250D03*
X27893750Y-89756250D03*
X27893750Y-86456250D03*
X51681250Y-89756250D03*
X51681250Y-86456250D03*
X123143750Y-89756250D03*
X123143750Y-86456250D03*
X218312500Y-89756250D03*
X218312500Y-86456250D03*
X230300000Y-13556250D03*
X230300000Y-10256250D03*
D17*
X153610000Y-74682500D03*
X153610000Y-76557500D03*
D15*
X167467500Y-88600000D03*
X165592500Y-88600000D03*
D18*
X92187500Y-51656250D03*
X92187500Y-48356250D03*
X194500000Y-89756250D03*
X194500000Y-86456250D03*
D13*
X141806250Y-86688750D03*
X143681250Y-86688750D03*
D19*
X39173750Y-18603750D03*
X38223750Y-18603750D03*
X37273750Y-18603750D03*
X37273750Y-16403750D03*
X38223750Y-16403750D03*
X39173750Y-16403750D03*
D20*
X156023750Y-83860000D03*
X154723750Y-83860000D03*
X153423750Y-83860000D03*
X152123750Y-83860000D03*
X156023750Y-85160000D03*
X154723750Y-85160000D03*
X153423750Y-85160000D03*
X152123750Y-85160000D03*
X156023750Y-86460000D03*
X154723750Y-86460000D03*
X153423750Y-86460000D03*
X152123750Y-86460000D03*
X156023750Y-87760000D03*
X154723750Y-87760000D03*
X153423750Y-87760000D03*
X152123750Y-87760000D03*
D21*
X151573750Y-82472500D03*
X152073750Y-82472500D03*
X152573750Y-82472500D03*
X153073750Y-82472500D03*
X153573750Y-82472500D03*
X154073750Y-82472500D03*
X154573750Y-82472500D03*
X155073750Y-82472500D03*
X155573750Y-82472500D03*
X156073750Y-82472500D03*
X156573750Y-82472500D03*
D22*
X157411250Y-83310000D03*
X157411250Y-83810000D03*
X157411250Y-84310000D03*
X157411250Y-84810000D03*
X157411250Y-85310000D03*
X157411250Y-85810000D03*
X157411250Y-86310000D03*
X157411250Y-86810000D03*
X157411250Y-87310000D03*
X157411250Y-87810000D03*
X157411250Y-88310000D03*
D21*
X156573750Y-89147500D03*
X156073750Y-89147500D03*
X155573750Y-89147500D03*
X155073750Y-89147500D03*
X154573750Y-89147500D03*
X154073750Y-89147500D03*
X153573750Y-89147500D03*
X153073750Y-89147500D03*
X152573750Y-89147500D03*
X152073750Y-89147500D03*
X151573750Y-89147500D03*
D22*
X150736250Y-88310000D03*
X150736250Y-87810000D03*
X150736250Y-87310000D03*
X150736250Y-86810000D03*
X150736250Y-86310000D03*
X150736250Y-85810000D03*
X150736250Y-85310000D03*
X150736250Y-84810000D03*
X150736250Y-84310000D03*
X150736250Y-83810000D03*
X150736250Y-83310000D03*
D23*
X23290000Y-15090000D03*
X26090000Y-15090000D03*
D13*
X141806250Y-89080000D03*
X143681250Y-89080000D03*
D17*
X145850000Y-75382500D03*
X145850000Y-77257500D03*
D18*
X266018750Y-89756250D03*
X266018750Y-86456250D03*
X242206250Y-89756250D03*
X242206250Y-86456250D03*
D24*
X119606310Y-16150000D03*
X119606310Y-19450000D03*
X114706310Y-19450000D03*
X114706310Y-16150000D03*
X163736310Y-76600000D03*
X163736310Y-73300000D03*
X168636310Y-73300000D03*
X168636310Y-76600000D03*
X114706310Y-76600000D03*
X114706310Y-73300000D03*
X119606310Y-73300000D03*
X119606310Y-76600000D03*
X168636310Y-16150000D03*
X168636310Y-19450000D03*
X163736310Y-19450000D03*
X163736310Y-16150000D03*
X262796310Y-76600000D03*
X262796310Y-73300000D03*
X267696310Y-73300000D03*
X267696310Y-76600000D03*
X15146310Y-76600000D03*
X15146310Y-73300000D03*
X20046310Y-73300000D03*
X20046310Y-76600000D03*
X213266310Y-76600000D03*
X213266310Y-73300000D03*
X218166310Y-73300000D03*
X218166310Y-76600000D03*
X267696310Y-16150000D03*
X267696310Y-19450000D03*
X262796310Y-19450000D03*
X262796310Y-16150000D03*
X64676310Y-76600000D03*
X64676310Y-73300000D03*
X69576310Y-73300000D03*
X69576310Y-76600000D03*
X20046310Y-16150000D03*
X20046310Y-19450000D03*
X15146310Y-19450000D03*
X15146310Y-16150000D03*
X69576310Y-16150000D03*
X69576310Y-19450000D03*
X64676310Y-19450000D03*
X64676310Y-16150000D03*
X218166310Y-16150000D03*
X218166310Y-19450000D03*
X213266310Y-19450000D03*
X213266310Y-16150000D03*
M02*
